<svg width="29" height="29" viewBox="0 0 29 29" fill="none" xmlns="http://www.w3.org/2000/svg">
<path d="M21.3986 14.0297L14.6073 20.8095C14.4692 20.9591 14.285 21.0627 14.1008 21.1087C13.8821 21.1778 13.6403 21.1778 13.4217 21.0972C13.249 21.0397 13.0879 20.9476 12.9498 20.8095L8.0117 15.8714C7.85055 15.7103 7.73545 15.5031 7.68941 15.2959C7.60883 14.916 7.71243 14.5016 8.0117 14.2139L14.7914 7.4226L17.8072 10.4384L21.3986 14.0297Z" fill="#EFD510"/>
<path d="M12.7659 20.6256L8.19619 25.1953L5.62931 22.6284H5.6178L3.62646 20.6256L8.19619 16.0559L12.7659 20.6256Z" fill="#F2910A"/>
<path d="M9.20866 26.2197L7.17127 28.2456L3.59147 24.6658L0.575684 21.65L2.60155 19.6126L9.20866 26.2197Z" fill="#E94822"/>
<path d="M27.8789 8.8613C27.9019 9.27569 27.7638 9.69007 27.4415 10.0124L23.3322 14.1217C23.0099 14.444 22.584 14.5591 22.1811 14.49C21.9279 14.444 21.6863 14.3173 21.4905 14.1217L21.3984 14.0296L17.8071 10.4383L14.7912 7.42248L14.6992 7.33039C14.446 7.07716 14.3193 6.74335 14.3193 6.40954C14.3193 6.07573 14.446 5.74192 14.6992 5.48869L18.8085 1.37939C19.2344 0.953501 19.8329 0.838395 20.3624 1.02256C20.5696 1.09163 20.7653 1.20673 20.9379 1.37939L27.4415 7.8829C27.7177 8.15916 27.8558 8.50447 27.8789 8.8613Z" fill="#E94822"/>
<path d="M3.59147 24.666L0.575684 21.6502L2.60155 19.6128L5.61734 22.6286L3.59147 24.666Z" fill="#ED6D4E"/>
<path d="M10.1988 18.0586L8.01174 15.8716C7.8506 15.7104 7.73549 15.5032 7.68945 15.296C7.67184 15.2132 7.66297 15.128 7.66309 15.044C7.66355 14.7412 7.77796 14.4385 8.01174 14.214L14.7914 7.42277L17.8073 10.4386L10.1987 18.0586" fill="#F2DD40"/>
<path d="M5.62931 22.6284H5.6178L5.6132 22.6238L3.62646 20.6256L8.19619 16.0558L10.199 18.0587H10.1989L5.62931 22.6284Z" fill="#F5A73B"/>
<path d="M17.8071 10.439L14.7912 7.42318L14.6992 7.33109C14.446 7.07786 14.3193 6.74405 14.3193 6.41024C14.3193 6.07644 14.446 5.74263 14.6992 5.48939L18.8085 1.3801C19.1041 1.08428 19.483 0.938091 19.8641 0.938091C20.0321 0.938091 20.2005 0.966866 20.3624 1.02327C20.5696 1.09233 20.7653 1.20744 20.9379 1.3801L23.9077 4.34984L17.8071 10.439Z" fill="#ED6D4E"/>
<path d="M14.7935 8.23997L8.41598 14.618C8.2698 14.7642 8.21029 14.9702 8.25576 15.1705C8.28051 15.2845 8.33898 15.3915 8.41656 15.471L13.3519 20.4056C13.417 20.4712 13.5008 20.5207 13.6087 20.5587C13.7077 20.5897 13.829 20.5932 13.9409 20.5587C14.042 20.5299 14.1314 20.4769 14.2045 20.4044L20.5813 14.0275L14.7935 8.23997ZM13.7767 21.7339C13.5963 21.7339 13.4154 21.7063 13.24 21.6487C12.9567 21.5486 12.7246 21.4058 12.5379 21.2194L7.60219 16.2836C7.36944 16.0499 7.20311 15.7438 7.13232 15.4203C6.9996 14.8367 7.17503 14.2313 7.60219 13.8042L14.3866 7.01869C14.6024 6.80345 14.9845 6.80345 15.2003 7.01869L21.8022 13.62C22.027 13.8456 22.027 14.2094 21.8022 14.4338L15.0177 21.2194C14.8053 21.4312 14.5428 21.5842 14.2584 21.666C14.1015 21.7109 13.9391 21.7339 13.7767 21.7339Z" fill="#2C2D34"/>
<path d="M4.43532 20.629L8.19147 24.3861L11.9481 20.629L8.19147 16.8731L4.43532 20.629ZM8.19147 25.7754C8.0386 25.7754 7.89242 25.7144 7.78456 25.6062L3.2145 21.0365C2.9897 20.8109 2.9897 20.4471 3.2145 20.2227L7.78456 15.6518C8.00039 15.4365 8.38254 15.4365 8.59837 15.6518L13.1689 20.2227C13.3937 20.4471 13.3937 20.8109 13.1689 21.0365L8.59837 25.6062C8.4904 25.7144 8.34433 25.7754 8.19147 25.7754Z" fill="#2C2D34"/>
<path d="M1.38836 21.6454L7.17625 27.4329L8.39373 26.2163L2.6063 20.4276L1.38836 21.6454ZM7.17625 28.8223C7.02903 28.8223 6.88181 28.767 6.76935 28.6542L0.167653 22.0529C0.0596833 21.9447 -0.000976562 21.7985 -0.000976562 21.6454C-0.000976562 21.4923 0.0596833 21.3461 0.167653 21.2391L2.1994 19.2074C2.4242 18.983 2.7884 18.983 3.0132 19.2074L9.61443 25.8088C9.83923 26.0344 9.83923 26.3981 9.61443 26.6226L7.58326 28.6542C7.47081 28.767 7.32359 28.8223 7.17625 28.8223Z" fill="#2C2D34"/>
<path d="M27.4437 10.0116H27.4548H27.4437ZM19.8707 1.5133C19.6296 1.5133 19.3952 1.60769 19.2176 1.78496L15.1006 5.90116C14.9645 6.03698 14.8898 6.21885 14.8898 6.41108C14.8898 6.6033 14.9645 6.78402 15.1006 6.91985L21.9019 13.7203C22.0058 13.8251 22.1374 13.8941 22.2818 13.9195C22.5145 13.962 22.7529 13.8872 22.9203 13.7203L27.0362 9.60412C27.2255 9.4142 27.3217 9.16211 27.3059 8.89507C27.2924 8.66946 27.1969 8.45651 27.0362 8.29537L20.5254 1.78496C20.4248 1.68366 20.3068 1.60999 20.1736 1.56395C20.0741 1.52942 19.9718 1.5133 19.8707 1.5133ZM22.4105 15.082C22.2998 15.082 22.1885 15.0728 22.0778 15.0533C21.7012 14.9853 21.3583 14.8058 21.0875 14.5341L14.2868 7.73365C13.9333 7.38027 13.7388 6.91064 13.7388 6.41108C13.7388 5.91036 13.9333 5.44073 14.2868 5.08735L18.4037 0.971152C18.9692 0.407131 19.7892 0.213752 20.5473 0.475042C20.8492 0.578638 21.1162 0.746696 21.341 0.972304L27.8506 7.48156C28.2109 7.843 28.4249 8.32069 28.4548 8.82716C28.4895 9.4188 28.2692 9.99894 27.8511 10.4179H27.8506L23.7336 14.5341C23.3789 14.8887 22.9018 15.082 22.4105 15.082Z" fill="#2C2D34"/>
</svg>
