<svg width="112" height="81" viewBox="0 0 112 81" fill="none" xmlns="http://www.w3.org/2000/svg">
<g clip-path="url(#clip0_772_2923)">
<path d="M20.6724 49.2076C20.1506 54.6027 19.6849 60.3253 22.0908 65.1839C24.0212 69.0826 27.6106 71.9424 31.4831 73.931C37.5735 77.0583 44.4813 78.2929 51.3213 78.6265C58.1614 78.9598 65.0101 78.4323 71.8552 78.2361C77.1695 78.0841 82.8714 78.0144 87.2034 74.9355C90.4635 72.6184 92.4727 68.8375 93.2941 64.9259C94.1155 61.0142 93.8517 56.9537 93.2866 52.9971C92.2014 45.3987 90.0147 37.9579 86.8161 30.9796C84.8163 26.6173 82.3343 22.3287 78.5899 19.3242C74.3026 15.8837 68.7418 14.4368 63.2804 13.79C56.0346 12.9312 48.5408 13.3503 41.694 15.8699C34.8477 18.3894 28.6887 23.1323 25.2393 29.5548C22.0344 35.5227 21.3234 42.4668 20.6724 49.2076Z" fill="#2E2227"/>
<path d="M88.5346 59.0261C87.9849 56.9304 87.4297 54.8115 87.3851 52.6457C87.3405 50.4669 87.8149 48.313 87.9628 46.1389C88.6309 36.3314 81.7881 26.5172 72.3477 23.742L75.105 26.165C71.9979 23.9626 67.4463 24.3294 63.5237 24.9695C61.3362 25.3264 59.0719 25.7502 56.9873 26.505C54.9028 25.7502 52.6384 25.3264 50.4514 24.9695C46.5287 24.3294 41.9767 23.9626 38.8697 26.165L41.6273 23.742C32.1866 26.5172 25.3442 36.3314 26.0118 46.1389C26.1601 48.313 26.6341 50.4669 26.5896 52.6457C26.5454 54.8115 25.9897 56.9304 25.44 59.0261C22.9375 68.5661 20.459 78.3768 21.5494 88.1791C22.6397 97.9811 28.0755 107.919 37.2512 111.56C43.5029 114.041 50.6268 113.3 56.9873 111.054C63.3478 113.3 70.4718 114.041 76.7238 111.56C85.8992 107.919 91.3353 97.9811 92.4253 88.1791C93.5157 78.3768 91.0372 68.5661 88.5346 59.0261Z" fill="#F2591D"/>
<path d="M56.9877 110.637C57.035 110.637 57.0823 110.644 57.1277 110.661C60.9458 112.009 64.6692 112.693 68.1939 112.693C71.2095 112.693 74.0272 112.181 76.5692 111.172C84.7531 107.925 90.8135 98.8815 92.0092 88.1341C93.1193 78.154 90.4681 68.0487 88.1296 59.1331C87.5802 57.039 87.012 54.8728 86.9662 52.6554C86.9382 51.2877 87.1114 49.9224 87.2782 48.6016C87.3815 47.7846 87.4884 46.9396 87.5448 46.1116C88.1497 37.2306 82.4399 28.309 74.2654 24.8701L75.3822 25.8517C75.5498 25.999 75.5726 26.2512 75.4338 26.4261C75.2958 26.6006 75.0446 26.636 74.8628 26.5076C73.3343 25.4243 71.3093 24.8976 68.6723 24.8976C66.7893 24.8976 64.8707 25.1749 63.5915 25.3837C61.1067 25.7891 59.0572 26.2023 57.1304 26.8995C57.0381 26.933 56.9372 26.933 56.8449 26.8995C54.9185 26.2023 52.8687 25.7891 50.3839 25.3837C49.1046 25.1749 47.1861 24.8976 45.303 24.8976C42.666 24.8976 40.641 25.4243 39.1125 26.5076C38.9307 26.636 38.6795 26.6006 38.5415 26.4261C38.4031 26.2512 38.4256 25.999 38.5932 25.8517L39.7099 24.8701C31.5354 28.309 25.8256 37.2306 26.4306 46.1116C26.487 46.9396 26.5938 47.7846 26.6972 48.6016C26.864 49.9224 27.0371 51.2877 27.0091 52.655C26.9637 54.872 26.3955 57.0386 25.8457 59.1331C23.5072 68.0487 20.8564 78.154 21.9661 88.1341C23.1618 98.8815 29.2222 107.925 37.4062 111.172C39.9485 112.181 42.7662 112.693 45.7814 112.693C49.3065 112.693 53.0296 112.009 56.8481 110.661C56.893 110.644 56.9403 110.637 56.9877 110.637ZM68.1943 113.53C68.1939 113.53 68.1943 113.53 68.1939 113.53C64.6168 113.53 60.8476 112.847 56.9877 111.499C53.1281 112.847 49.3585 113.53 45.7814 113.53C42.6597 113.53 39.7376 112.999 37.0966 111.951C28.6283 108.59 22.362 99.2778 21.1329 88.2262C20.0058 78.0918 22.6775 67.9069 25.035 58.9208C25.5721 56.8731 26.1277 54.7558 26.1707 52.6381C26.1975 51.3322 26.0287 49.9972 25.8655 48.7063C25.7606 47.8775 25.6521 47.0203 25.5941 46.1683C24.9147 36.1914 31.9053 26.1645 41.509 23.3413C41.6983 23.2861 41.8998 23.3688 41.9944 23.5406C42.0895 23.7127 42.052 23.9274 41.9045 24.0574L41.3434 24.5502C42.498 24.2217 43.8116 24.0602 45.303 24.0602C47.2472 24.0602 49.2111 24.3438 50.5191 24.5569C52.6597 24.9067 54.9217 25.3309 56.9877 26.0613C59.0541 25.3306 61.3157 24.9067 63.4562 24.5569C64.7643 24.3438 66.7281 24.0602 68.6723 24.0602C70.1637 24.0602 71.4773 24.2217 72.632 24.5502L72.0712 24.0574C71.9233 23.9274 71.8859 23.7127 71.9809 23.5406C72.0759 23.3688 72.2771 23.2861 72.4663 23.3413C82.0704 26.1645 89.061 36.1914 88.3816 46.1683C88.3236 47.0203 88.2151 47.8775 88.1103 48.7063C87.9466 49.9972 87.7778 51.3322 87.8046 52.6381C87.848 54.7566 88.4037 56.8735 88.9404 58.9208C91.2978 67.9069 93.9695 78.0918 92.8425 88.2262C91.6133 99.2778 85.347 108.59 76.8791 111.951C74.2378 112.999 71.3156 113.53 68.1943 113.53Z" fill="#292625"/>
<path d="M89.8786 80.839C89.4121 79.5831 88.2909 78.7267 87.0073 78.661C87.0077 78.6818 88.05 78.3411 88.1703 78.2765C88.6116 78.0405 88.9941 77.6947 89.2902 77.2775C89.8265 76.5227 90.0308 75.5632 89.9196 74.6347C89.7051 72.8435 88.201 71.4482 86.4706 71.54C86.4694 71.5314 86.4687 71.5227 86.4671 71.5136C88.2909 71.1213 89.3364 69.1855 88.8896 67.3172C88.6881 66.4753 88.2448 65.7336 87.5649 65.229C87.1769 64.9402 86.7269 64.7539 86.2569 64.6799C86.1098 64.6566 84.8684 64.7118 84.883 64.7531C86.5645 63.9361 87.1844 61.7928 86.3302 60.0832C85.4804 58.3806 83.5394 57.6062 81.8887 58.5721C81.8985 58.5874 82.6036 57.7208 82.6722 57.5987C82.9002 57.1941 83.0346 56.7447 83.0816 56.2783C83.1766 55.3372 82.8623 54.3721 82.2783 53.6583C81.0877 52.2027 79.0359 51.9057 77.6328 53.2222C77.6372 53.2269 78.1214 52.2993 78.164 52.1712C78.3194 51.7048 78.3651 51.2112 78.3123 50.7208C78.2113 49.7872 77.716 48.9375 77.0141 48.3663C75.568 47.1751 73.4606 47.378 72.3631 48.9718C72.3757 48.98 72.66 47.8865 72.6727 47.7443C72.7176 47.2381 72.6439 46.728 72.4684 46.2545C72.16 45.4217 71.5275 44.7541 70.764 44.3731C69.1077 43.536 67.0926 44.2108 66.3461 46.0115C66.35 46.013 66.4179 44.962 66.4052 44.8265C66.3595 44.3381 66.2053 43.8744 65.9644 43.4553C65.527 42.695 64.7967 42.1565 63.9871 41.9233C62.1608 41.3967 60.2348 42.4941 59.8661 44.4921C59.8787 44.4937 59.6981 43.3781 59.6524 43.243C59.5033 42.803 59.2639 42.4078 58.9524 42.0758C58.3226 41.4049 57.4255 41.0189 56.5263 41.0398C55.6134 41.0606 54.7502 41.3947 54.105 42.0872C53.7947 42.4201 53.5577 42.8215 53.411 43.2615C53.3656 43.397 53.1905 44.5118 53.2028 44.5106C52.8348 42.5717 51.0374 41.5211 49.2502 41.9127C48.4212 42.0947 47.6637 42.6281 47.1889 43.3627C46.9263 43.7689 46.7504 44.2266 46.6841 44.7135C46.6636 44.8628 46.7098 46.0725 46.7307 46.0646C45.9731 44.2628 43.9998 43.6385 42.3368 44.4302C41.5233 44.8175 40.8745 45.5557 40.576 46.4392C40.434 46.8588 40.3737 47.3016 40.4053 47.7463C40.4159 47.8964 40.7077 49.0695 40.7278 49.0565C39.6197 47.4643 37.562 47.3012 36.1013 48.4487C35.3856 49.0112 34.9021 49.8782 34.7909 50.809C34.738 51.2518 34.77 51.6985 34.8922 52.1267C34.9332 52.2705 35.4613 53.3518 35.4786 53.3341C34.0677 52.0243 32.0229 52.3359 30.8324 53.7922C29.6375 55.2545 29.8098 57.4971 31.2634 58.6828C31.2681 58.6753 30.3114 58.342 30.1853 58.3208C29.7132 58.2428 29.2234 58.2782 28.7691 58.4354C27.8984 58.7367 27.2335 59.395 26.812 60.24C25.9582 61.9512 26.6093 64.0988 28.2865 64.904C28.301 64.863 27.0573 64.8134 26.9098 64.8374C26.4401 64.9135 25.9909 65.1021 25.6045 65.3937C24.9278 65.9034 24.4916 66.6475 24.2901 67.4893C24.0578 68.4603 24.2171 69.5204 24.7692 70.3425C25.0098 70.7033 25.3201 71.011 25.6774 71.2414C25.7871 71.3123 26.73 71.7149 26.7315 71.7031C25.1056 71.62 23.6532 72.8561 23.3334 74.5232C22.9446 76.5491 24.2144 78.5881 26.2141 78.7965C26.2145 78.7752 25.1604 79.062 25.0378 79.1199C24.6304 79.3117 24.2605 79.5942 23.9612 79.9428C23.3622 80.6408 23.0838 81.5847 23.1299 82.5147C23.1745 83.4136 23.5038 84.2586 24.1126 84.9003C24.4277 85.2328 24.8162 85.4853 25.2358 85.6448C25.3714 85.6968 26.6065 85.9091 26.5994 85.8583C24.7266 86.2751 23.7565 88.212 24.1903 90.1127C24.3895 90.9856 24.9455 91.779 25.6719 92.2426C26.0864 92.5069 26.5462 92.6689 27.0312 92.6988C27.1657 92.7075 28.3807 92.5566 28.3582 92.5022C26.5699 93.4224 26.1739 95.6544 27.1957 97.3636C27.648 98.1188 28.4095 98.7038 29.2447 98.8826C29.6994 98.9803 30.1695 98.9756 30.6183 98.8491C30.7523 98.8113 31.9263 98.2165 31.8711 98.1542C30.5074 99.6228 30.806 101.928 32.3447 103.117C33.8665 104.294 35.9881 104.001 36.9961 102.256C36.972 102.242 36.7315 103.318 36.7224 103.445C36.6869 103.952 36.7638 104.471 36.9614 104.935C37.3281 105.798 38.0167 106.467 38.8578 106.79C40.5847 107.492 42.545 106.644 43.1539 104.77C43.1429 104.767 43.1472 105.833 43.1685 105.965C43.247 106.454 43.4323 106.915 43.6977 107.324C44.1709 108.053 44.9253 108.521 45.7329 108.72C47.5541 109.168 49.4186 107.97 49.7711 106.02C49.7695 106.02 49.9249 107.054 49.9663 107.184C50.1138 107.651 50.3591 108.077 50.6746 108.439C51.2673 109.118 52.1163 109.485 52.9835 109.54C54.7703 109.667 56.4057 108.284 56.5366 106.379C56.5433 106.379 56.7787 107.322 56.8296 107.442C57.0075 107.863 57.2697 108.242 57.5939 108.551C58.2883 109.214 59.2194 109.533 60.1508 109.457C60.9798 109.389 61.7909 109.047 62.3746 108.412C62.6936 108.065 62.9456 107.646 63.1037 107.192C63.1534 107.05 63.3482 105.867 63.3301 105.87C63.6996 107.716 65.4671 108.922 67.2286 108.541C68.0438 108.365 68.8199 107.924 69.3262 107.217C69.6089 106.823 69.8101 106.362 69.9075 105.879C69.9367 105.733 69.9698 104.515 69.9434 104.523C70.5716 106.382 72.5275 107.215 74.2469 106.51C75.0482 106.211 75.7139 105.567 76.0854 104.765C76.2944 104.314 76.3985 103.824 76.3878 103.322C76.3851 103.18 76.1516 101.968 76.1154 101.989C77.1115 103.714 79.2339 104.04 80.7529 102.872C82.2913 101.69 82.6296 99.4179 81.2861 97.9226C81.2577 97.9541 82.1959 98.5143 82.3075 98.5584C82.7633 98.7368 83.2543 98.7782 83.7346 98.7112C84.6499 98.5844 85.4544 97.9821 85.9694 97.1915C87.0377 95.509 86.6177 93.2452 84.8577 92.3171C84.8443 92.3486 85.8862 92.5302 86.0065 92.5306C86.4998 92.5349 86.9813 92.4033 87.4143 92.1564C88.2125 91.7014 88.8162 90.882 89.0375 89.9524C89.4894 88.0529 88.5039 86.1077 86.6362 85.6921C86.6256 85.7657 87.9952 85.4845 88.1407 85.4207C88.6849 85.1816 89.1451 84.7841 89.485 84.2787C90.1464 83.2943 90.2927 81.9605 89.8786 80.839C90.0442 81.2876 89.7118 80.3899 89.8786 80.839Z" fill="#F7A80E"/>
<path d="M84.4826 74.3826C84.0918 73.3304 83.1525 72.6131 82.0771 72.5579C82.0774 72.5752 82.9509 72.2896 83.0515 72.2361C83.4214 72.0379 83.7416 71.7484 83.9901 71.399C84.4388 70.7667 84.6104 69.9627 84.5169 69.1847C84.3371 67.6843 83.0771 66.5155 81.6275 66.5923C81.6267 66.5849 81.6259 66.5778 81.6247 66.5703C83.1525 66.2413 84.0283 64.62 83.6541 63.0545C83.4853 62.349 83.1138 61.7282 82.5444 61.3051C82.2194 61.0632 81.8424 60.9072 81.4485 60.845C81.325 60.8257 80.2851 60.8718 80.2973 60.9065C81.706 60.2222 82.2253 58.4263 81.51 56.994C80.7978 55.568 79.1719 54.9192 77.7889 55.7283C77.7972 55.7413 78.3879 55.0153 78.4455 54.9129C78.6363 54.5738 78.7491 54.1976 78.7886 53.8064C78.8678 53.0181 78.6048 52.2098 78.1154 51.6115C77.1181 50.3923 75.3991 50.1433 74.2236 51.2463C74.2275 51.2502 74.6329 50.473 74.6688 50.3659C74.7985 49.9751 74.8372 49.5615 74.7926 49.1506C74.7082 48.3687 74.2933 47.6569 73.7054 47.1782C72.4935 46.1804 70.728 46.3502 69.8088 47.6856C69.8194 47.6923 70.0576 46.7764 70.0683 46.6575C70.1057 46.2328 70.0438 45.8058 69.8971 45.4091C69.6384 44.7115 69.1088 44.1521 68.4692 43.8331C67.0815 43.1319 65.3932 43.6968 64.7682 45.2055C64.7714 45.2067 64.8281 44.3262 64.8175 44.2128C64.7792 43.8035 64.6503 43.4151 64.448 43.0641C64.082 42.4271 63.47 41.9761 62.7917 41.7803C61.262 41.3391 59.6483 42.2589 59.3396 43.9327C59.3502 43.9339 59.1988 42.9995 59.1605 42.8861C59.0355 42.5177 58.8348 42.1864 58.5741 41.9083C58.0465 41.3462 57.2948 41.0228 56.5412 41.0405C55.7766 41.0579 55.0537 41.3376 54.5127 41.9178C54.2528 42.1967 54.0545 42.5331 53.9314 42.9014C53.8936 43.0149 53.7469 43.9493 53.7571 43.9481C53.4491 42.3235 51.9431 41.4435 50.4457 41.7717C49.7513 41.9241 49.1164 42.3708 48.7189 42.9865C48.4988 43.3269 48.3517 43.7101 48.2961 44.1182C48.2792 44.2431 48.3174 45.2563 48.3348 45.25C47.7007 43.7405 46.0472 43.2178 44.6543 43.8807C43.9725 44.2053 43.4291 44.8238 43.179 45.564C43.0599 45.9153 43.0095 46.2864 43.0359 46.659C43.0446 46.7847 43.2891 47.7672 43.306 47.7565C42.3777 46.4227 40.654 46.286 39.4299 47.2472C38.8305 47.7183 38.4255 48.4451 38.3325 49.2247C38.2879 49.5958 38.3147 49.97 38.4172 50.3284C38.4516 50.449 38.894 51.355 38.9086 51.34C37.7267 50.2426 36.0137 50.5037 35.0164 51.7241C34.0151 52.9488 34.1594 54.8278 35.3772 55.8209C35.3811 55.8146 34.5798 55.5353 34.4737 55.5176C34.0786 55.4522 33.6681 55.4821 33.2879 55.6137C32.558 55.8662 32.0012 56.4177 31.6478 57.1256C30.9325 58.5591 31.4782 60.3585 32.8833 61.0329C32.8955 60.9986 31.8537 60.9573 31.7302 60.977C31.3363 61.0408 30.9601 61.1988 30.6363 61.443C30.0696 61.8704 29.7041 62.4936 29.5353 63.1987C29.3405 64.0121 29.4741 64.9004 29.9367 65.589C30.1382 65.8916 30.3981 66.1488 30.6974 66.3422C30.7893 66.4013 31.5792 66.7385 31.5804 66.729C30.2187 66.6593 29.0017 67.6949 28.734 69.0914C28.4082 70.7888 29.4718 72.4969 31.147 72.6714C31.1474 72.6536 30.2644 72.8939 30.1619 72.9424C29.8204 73.1031 29.5104 73.3398 29.2596 73.6317C28.758 74.2167 28.5246 75.0073 28.5632 75.7861C28.6007 76.5397 28.8767 77.2472 29.3866 77.7849C29.6508 78.0634 29.9758 78.2749 30.3275 78.4088C30.4411 78.4522 31.4759 78.6302 31.47 78.5877C29.9008 78.9367 29.0885 80.5597 29.4517 82.1519C29.6185 82.883 30.0842 83.5476 30.6927 83.936C31.0401 84.1578 31.4254 84.2929 31.8316 84.3185C31.9444 84.3252 32.9622 84.1991 32.9433 84.1534C31.4451 84.9247 31.1135 86.7943 31.9696 88.2262C32.3486 88.8588 32.9862 89.3489 33.6862 89.499C34.0668 89.5805 34.4607 89.577 34.8369 89.4706C34.9489 89.4391 35.9324 88.9408 35.8863 88.8888C34.7439 90.119 34.9943 92.05 36.2834 93.0462C37.558 94.0318 39.3353 93.7868 40.18 92.3246C40.1599 92.3131 39.958 93.2144 39.9505 93.3212C39.9209 93.7454 39.9852 94.1803 40.1508 94.5695C40.458 95.2916 41.0346 95.8529 41.7397 96.1232C43.1865 96.7113 44.8286 96.001 45.3385 94.4309C45.3294 94.4285 45.333 95.3215 45.3507 95.4318C45.4166 95.8415 45.5716 96.2283 45.7944 96.5707C46.1907 97.1808 46.8224 97.5732 47.4992 97.7398C49.0249 98.1152 50.5869 97.1119 50.8819 95.4783C50.8807 95.4779 51.0113 96.3445 51.0456 96.4533C51.1694 96.8444 51.3748 97.2013 51.6391 97.5043C52.1355 98.0739 52.847 98.3811 53.5733 98.4268C55.0703 98.5332 56.4403 97.3746 56.5503 95.7789C56.5554 95.7789 56.753 96.5695 56.7956 96.6695C56.9447 97.0221 57.1643 97.3396 57.436 97.5988C58.0177 98.1542 58.7977 98.4217 59.5777 98.3575C60.2722 98.3004 60.9521 98.014 61.4407 97.4822C61.7084 97.1911 61.919 96.8405 62.0515 96.4604C62.0933 96.341 62.2566 95.3503 62.2416 95.3523C62.5508 96.8992 64.0315 97.9096 65.5076 97.5901C66.1902 97.4424 66.8405 97.0733 67.2648 96.4812C67.5014 96.1507 67.6702 95.7647 67.7515 95.3597C67.7763 95.2376 67.8039 94.2178 67.7818 94.2241C68.3079 95.7812 69.9464 96.4797 71.387 95.8884C72.0586 95.6382 72.6158 95.0986 72.9273 94.4269C73.1024 94.0492 73.1896 93.6383 73.1809 93.2176C73.1781 93.0986 72.9829 92.0839 72.9525 92.1008C73.7866 93.5461 75.5651 93.8191 76.8377 92.841C78.126 91.8507 78.41 89.9472 77.2841 88.6946C77.2604 88.721 78.0464 89.1901 78.1398 89.2271C78.5216 89.3764 78.9329 89.4111 79.3355 89.3552C80.1021 89.2488 80.7761 88.7442 81.2075 88.082C82.1027 86.6726 81.7509 84.7762 80.2764 83.9982C80.265 84.025 81.1381 84.1771 81.2387 84.1775C81.6519 84.1806 82.0554 84.0707 82.4182 83.8639C83.0866 83.4826 83.5925 82.796 83.7779 82.0172C84.1565 80.4261 83.3311 78.7965 81.7663 78.4482C81.7576 78.5097 82.9048 78.2745 83.0267 78.2209C83.4825 78.0204 83.8682 77.6876 84.1529 77.2641C84.707 76.4396 84.8296 75.3221 84.4826 74.3826C84.6214 74.7584 84.343 74.0064 84.4826 74.3826Z" fill="#F3D055"/>
<path d="M79.0862 67.9252C78.7711 67.0767 78.0136 66.4984 77.1464 66.4539C77.1468 66.4677 77.8511 66.2376 77.9323 66.1943C78.2305 66.0347 78.4888 65.8011 78.6891 65.5195C79.0511 65.0094 79.1891 64.3614 79.1142 63.7338C78.9691 62.5241 77.9528 61.5814 76.784 61.6437C76.7836 61.6378 76.7828 61.6319 76.7816 61.626C78.0136 61.3609 78.7199 60.053 78.4182 58.7909C78.2821 58.2221 77.9824 57.7214 77.5234 57.3803C77.2612 57.1853 76.9571 57.0592 76.6396 57.0096C76.5403 56.9938 75.7019 57.0309 75.7117 57.0588C76.8475 56.5069 77.2663 55.0589 76.6893 53.9043C76.1152 52.754 74.8039 52.2309 73.6887 52.8832C73.6954 52.8939 74.1718 52.3085 74.2183 52.2258C74.3721 51.9528 74.4628 51.6491 74.4948 51.3339C74.5591 50.6982 74.3465 50.0462 73.9521 49.564C73.1481 48.5808 71.7619 48.3803 70.8139 49.2698C70.8171 49.2725 71.144 48.6462 71.1728 48.5595C71.2777 48.2444 71.3088 47.9112 71.2729 47.5799C71.2047 46.9492 70.8703 46.3752 70.3963 45.9892C69.4191 45.1844 67.9955 45.3215 67.2541 46.3985C67.2628 46.4036 67.4548 45.6654 67.4631 45.5693C67.4935 45.227 67.4438 44.8827 67.3251 44.5628C67.1169 44.0003 66.6898 43.5492 66.174 43.292C65.0552 42.7263 63.6939 43.1821 63.1895 44.3985C63.1923 44.3997 63.238 43.6895 63.2297 43.5981C63.1986 43.2684 63.0945 42.9548 62.9316 42.6716C62.6362 42.1583 62.1429 41.7947 61.5959 41.6367C60.3624 41.281 59.0614 42.0224 58.8122 43.3724C58.8209 43.3732 58.699 42.6196 58.6679 42.5282C58.5673 42.2312 58.4056 41.9645 58.1951 41.74C57.7695 41.2866 57.1634 41.0262 56.5561 41.04C55.9394 41.0541 55.3565 41.2798 54.9204 41.7478C54.711 41.9728 54.5509 42.2434 54.4519 42.5408C54.4211 42.6322 54.3028 43.3858 54.3111 43.3846C54.0626 42.0748 52.8484 41.3653 51.6409 41.6297C51.081 41.7526 50.5691 42.113 50.2485 42.6093C50.071 42.8835 49.9523 43.1927 49.9078 43.5217C49.894 43.6225 49.9247 44.4395 49.9389 44.4344C49.4274 43.2176 48.0945 42.7957 46.971 43.3302C46.4213 43.5918 45.9832 44.0909 45.7813 44.6873C45.6855 44.9709 45.6448 45.2699 45.6661 45.5705C45.6732 45.6717 45.8704 46.4643 45.8838 46.4556C45.1357 45.3798 43.7456 45.2699 42.7586 46.0451C42.2751 46.4249 41.9486 47.0106 41.8737 47.6393C41.8378 47.9387 41.8595 48.2405 41.9419 48.5292C41.9699 48.6265 42.3264 49.3572 42.3382 49.345C41.385 48.4603 40.0036 48.671 39.1996 49.6547C38.3923 50.6422 38.5087 52.1572 39.4906 52.9581C39.4941 52.9534 38.8478 52.728 38.7622 52.7138C38.4436 52.6611 38.1127 52.6851 37.8059 52.791C37.2175 52.9947 36.7684 53.4395 36.4837 54.0103C35.9067 55.166 36.3464 56.6168 37.4798 57.1608C37.4893 57.1329 36.6493 57.0998 36.5499 57.1159C36.2325 57.1671 35.9288 57.2948 35.6677 57.4914C35.2107 57.836 34.9161 58.3387 34.7801 58.9071C34.6231 59.563 34.7308 60.2791 35.1038 60.8346C35.2663 61.0784 35.4757 61.286 35.717 61.442C35.7912 61.4897 36.4284 61.7615 36.4292 61.754C35.331 61.6977 34.3498 62.5328 34.1337 63.6586C33.8711 65.0275 34.7288 66.4046 36.0798 66.5453C36.0798 66.5311 35.368 66.7249 35.2852 66.7639C35.01 66.8935 34.7599 67.0842 34.558 67.3197C34.1534 67.7913 33.9653 68.429 33.9965 69.0569C34.0265 69.6644 34.2489 70.2351 34.6602 70.6685C34.8731 70.8934 35.1354 71.0636 35.4189 71.1715C35.5104 71.2066 36.3448 71.3499 36.3401 71.3161C35.0746 71.5973 34.4196 72.9059 34.7126 74.1897C34.8471 74.7794 35.2225 75.3152 35.7135 75.6283C35.9935 75.8072 36.3038 75.9163 36.6319 75.9368C36.7226 75.9423 37.5433 75.8407 37.5279 75.8036C36.32 76.4257 36.0526 77.9332 36.7427 79.0878C37.0484 79.5979 37.5626 79.993 38.1269 80.1139C38.4341 80.1797 38.7516 80.177 39.0548 80.0911C39.1451 80.0659 39.9382 79.6641 39.9011 79.6219C38.9799 80.6138 39.1818 82.171 40.2213 82.9746C41.249 83.7691 42.6825 83.5718 43.3631 82.3928C43.3469 82.3833 43.1845 83.1097 43.1782 83.196C43.1545 83.5383 43.2062 83.8889 43.3398 84.2029C43.5875 84.7851 44.0524 85.2373 44.6211 85.4555C45.7876 85.9298 47.1118 85.3571 47.5227 84.091C47.5152 84.089 47.5184 84.8091 47.5326 84.8981C47.5858 85.2282 47.7108 85.5402 47.8903 85.8164C48.2101 86.3084 48.7196 86.6247 49.265 86.759C50.4953 87.062 51.7549 86.2528 51.9927 84.9352C51.9919 84.9352 52.0968 85.634 52.1248 85.7218C52.2246 86.037 52.3902 86.3245 52.6032 86.5691C53.0038 87.0285 53.5772 87.2763 54.1632 87.3129C55.3699 87.3988 56.4745 86.4648 56.5632 85.1778C56.5676 85.1778 56.7269 85.8152 56.7608 85.8959C56.8815 86.1803 57.0585 86.436 57.2774 86.6452C57.7467 87.0931 58.3757 87.3086 59.0047 87.257C59.5646 87.2113 60.1124 86.98 60.5067 86.5514C60.7225 86.3167 60.8924 86.0338 60.9993 85.7273C61.0328 85.6312 61.1645 84.8323 61.1523 84.8339C61.4019 86.0811 62.596 86.8957 63.7858 86.6385C64.3363 86.5191 64.8604 86.2217 65.2027 85.7443C65.3939 85.4776 65.5296 85.1664 65.5955 84.8398C65.6152 84.7413 65.6376 83.9188 65.6199 83.9244C66.0442 85.1798 67.3653 85.7427 68.5267 85.2661C69.0681 85.0644 69.5177 84.6291 69.7689 84.0874C69.91 83.7829 69.9802 83.4516 69.9731 83.1125C69.9712 83.0167 69.8134 82.1982 69.789 82.2124C70.4617 83.3772 71.8956 83.5978 72.9217 82.8088C73.9608 82.0103 74.1895 80.4756 73.2821 79.4656C73.2624 79.4868 73.8965 79.8654 73.9719 79.8949C74.2799 80.0155 74.6115 80.0434 74.9361 79.9981C75.554 79.9127 76.0974 79.5057 76.4456 78.9716C77.1669 77.8351 76.8834 76.3059 75.6948 75.6788C75.6857 75.7 76.3892 75.8229 76.4705 75.8229C76.8037 75.8257 77.129 75.7371 77.4216 75.57C77.9607 75.2628 78.3689 74.7093 78.5179 74.0814C78.8232 72.7984 78.1575 71.4843 76.896 71.2034C76.8889 71.253 77.814 71.0636 77.9122 71.0202C78.2798 70.8587 78.5909 70.5901 78.8204 70.2485C79.2672 69.584 79.3658 68.6827 79.0862 67.9252C79.1982 68.2281 78.9738 67.6219 79.0862 67.9252Z" fill="#F8E298"/>
<path d="M30.6919 96.0957C30.0314 93.5647 29.3709 91.0334 28.7103 88.5024C30.3678 91.4096 33.2544 93.5907 36.5059 94.3932C36.0117 92.3156 35.518 90.2385 35.0239 88.1609C36.4081 89.7449 38.1535 91.0121 40.0889 91.8386C40.615 92.0631 41.2538 92.2463 41.7298 91.9288C42.2105 91.6081 42.2819 90.9392 42.2717 90.3621C42.1731 84.742 38.9457 79.7128 35.7688 75.0736C32.5919 70.4344 29.2392 65.5364 28.8314 59.9304C28.6922 58.014 28.674 55.6536 26.9685 54.7649C25.7811 54.1457 24.2526 54.646 23.3128 55.5989C22.3727 56.5522 21.8971 57.8584 21.4957 59.1347C18.8981 67.3874 18.2872 76.2566 19.7298 84.787C20.1955 87.5428 20.955 90.4149 22.9433 92.3814C22.8507 89.644 22.7576 86.9071 22.6649 84.1701C23.9442 88.8763 26.8119 93.1366 30.6919 96.0957Z" fill="#F2591D"/>
<path d="M22.6654 83.7515C22.852 83.7515 23.0192 83.8756 23.0696 84.0604C24.2184 88.2868 26.6472 92.1161 29.9645 94.9677L28.3046 88.6082C28.2518 88.405 28.3579 88.1938 28.5527 88.1146C28.7463 88.0359 28.9703 88.1127 29.0748 88.2955C30.5517 90.8863 33.0818 92.9047 35.9334 93.7985L34.6162 88.258C34.5717 88.0705 34.6608 87.8771 34.8323 87.7889C35.0043 87.701 35.2133 87.7408 35.3399 87.8858C36.6803 89.4197 38.3795 90.6535 40.2539 91.4535C40.8486 91.7072 41.2445 91.749 41.4973 91.5808C41.7477 91.4137 41.864 91.0175 41.8526 90.3695C41.7583 84.9952 38.7573 80.1795 35.4231 75.3102C32.1815 70.5772 28.8295 65.6823 28.4135 59.961L28.3823 59.5032C28.268 57.7897 28.1386 55.8472 26.775 55.1362C26.4879 54.9865 26.1657 54.9109 25.8171 54.9109C25.054 54.9109 24.2089 55.2871 23.6115 55.8929C22.7226 56.7942 22.2766 58.0508 21.8957 59.2606C19.3178 67.4498 18.7121 76.2524 20.1432 84.7174C20.5146 86.9147 21.088 89.3468 22.4844 91.2156L22.2458 84.1845C22.2387 83.9718 22.3921 83.7878 22.6027 83.7559C22.6236 83.7527 22.6445 83.7515 22.6654 83.7515ZM30.6921 96.5146C30.6021 96.5146 30.5126 96.4859 30.4377 96.4288C27.2289 93.9813 24.7149 90.6889 23.1797 86.973L23.3595 92.2863C23.3666 92.317 23.3705 92.3489 23.3705 92.3816C23.3705 92.6128 23.1828 92.8003 22.9513 92.8003C22.949 92.8 22.9462 92.8003 22.9438 92.8003C22.8354 92.8003 22.7289 92.7582 22.6485 92.679C20.5221 90.5767 19.7709 87.545 19.3162 84.8569C17.8634 76.2623 18.4786 67.3242 21.0955 59.0093C21.4895 57.7593 21.9946 56.3392 23.014 55.3052C23.7747 54.5339 24.8229 54.0734 25.8171 54.0734C26.3021 54.0734 26.7549 54.1809 27.1626 54.3937C28.9439 55.3225 29.0961 57.6096 29.2188 59.4477L29.2495 59.9003C29.6494 65.3963 32.9363 70.1959 36.1148 74.8375C39.5239 79.8159 42.5924 84.7486 42.691 90.3549C42.7016 90.9647 42.6377 91.8274 41.9626 92.2776C41.461 92.6117 40.8237 92.6073 39.9246 92.2236C38.4068 91.576 36.9973 90.6602 35.7827 89.5398L36.8956 94.2205C36.9193 94.2732 36.9331 94.3315 36.9331 94.3934C36.9331 94.6246 36.7453 94.8121 36.5139 94.8121C36.5115 94.8121 36.5083 94.8121 36.506 94.8121C36.4725 94.8121 36.4385 94.8082 36.4054 94.7999C33.822 94.1625 31.4354 92.6574 29.6979 90.6271L31.0978 95.9903C31.1432 96.1633 31.0734 96.3457 30.9243 96.4449C30.8537 96.4914 30.7729 96.5146 30.6921 96.5146Z" fill="#292625"/>
<path d="M83.2832 96.0957C83.9437 93.5647 84.6043 91.0334 85.2648 88.5024C83.6074 91.4096 80.7211 93.5907 77.4697 94.3932C77.9634 92.3156 78.4571 90.2385 78.9513 88.1609C77.5671 89.7449 75.8217 91.0121 73.8862 91.8386C73.3601 92.0631 72.7213 92.2463 72.2453 91.9288C71.7646 91.6081 71.6936 90.9392 71.7035 90.3621C71.8025 84.742 75.0294 79.7128 78.2063 75.0736C81.3836 70.4344 84.736 65.5364 85.1438 59.9304C85.2834 58.014 85.3011 55.6536 87.0067 54.7649C88.1941 54.1457 89.7226 54.646 90.6627 55.5989C91.6024 56.5522 92.078 57.8584 92.4795 59.1347C95.0775 67.3874 95.6879 76.2566 94.2454 84.787C93.7797 87.5428 93.0205 90.4149 91.0318 92.3814C91.1249 89.644 91.2175 86.9071 91.3102 84.1701C90.0309 88.8763 87.1632 93.1366 83.2832 96.0957Z" fill="#F2591D"/>
<path d="M85.2651 88.0839C85.3176 88.0839 85.3712 88.0938 85.4229 88.1146C85.6177 88.1938 85.7234 88.405 85.6705 88.6082L84.0107 94.9677C87.3284 92.1161 89.7568 88.2868 90.9055 84.0604C90.9615 83.8551 91.1634 83.7255 91.3724 83.7559C91.583 83.7878 91.7364 83.9718 91.7293 84.1845L91.4907 91.2156C92.8871 89.3468 93.4605 86.9147 93.832 84.7174C95.2635 76.2524 94.6574 67.4498 92.0795 59.2606C91.699 58.0508 91.2526 56.7942 90.3637 55.8929C89.7662 55.2871 88.9212 54.9109 88.1581 54.9109C87.8095 54.9109 87.4873 54.9865 87.2002 55.1362C85.8365 55.8472 85.7072 57.7897 85.5932 59.5032L85.5617 59.961C85.1456 65.6823 81.7936 70.5772 78.5525 75.3102C75.2178 80.1795 72.2168 84.9952 72.1226 90.3695C72.1112 91.0175 72.2275 91.4137 72.4783 91.5808C72.7307 91.7494 73.127 91.7072 73.7217 91.4535C75.596 90.6535 77.2953 89.4197 78.6353 87.8858C78.7623 87.7408 78.9721 87.701 79.1428 87.7889C79.3144 87.8771 79.4035 88.0705 79.3589 88.258L78.0418 93.7985C80.8937 92.9047 83.4235 90.8863 84.9004 88.2955C84.9773 88.1611 85.1184 88.0839 85.2651 88.0839ZM83.2831 96.5146C83.2023 96.5146 83.1214 96.4914 83.0508 96.4449C82.9018 96.3457 82.8324 96.1633 82.8773 95.9903L84.2773 90.6271C82.5398 92.6574 80.1532 94.1625 77.5698 94.7999C77.4278 94.835 77.2779 94.7936 77.1746 94.6908C77.0705 94.588 77.0279 94.4387 77.0614 94.2969L78.1924 89.5398C76.9778 90.6602 75.5684 91.576 74.051 92.2236C73.1514 92.6073 72.5146 92.6121 72.013 92.2776C71.3374 91.8274 71.2736 90.9647 71.2842 90.3549C71.3828 84.7486 74.4512 79.8159 77.8604 74.8375C81.0389 70.1959 84.3258 65.3963 84.7257 59.9003L84.7568 59.4477C84.8791 57.6096 85.0313 55.3225 86.8126 54.3937C87.2203 54.1809 87.6734 54.0734 88.1581 54.0734C89.1526 54.0734 90.2004 54.5339 90.9611 55.3052C91.9805 56.3392 92.4861 57.7593 92.8797 59.0093C95.4966 67.3242 96.1122 76.2623 94.659 84.8569C94.2043 87.545 93.453 90.5767 91.3267 92.679C91.2045 92.7996 91.0215 92.8334 90.8637 92.7653C90.7064 92.6963 90.607 92.5388 90.6129 92.3674L90.7959 86.973C89.2603 90.6889 86.7463 93.9813 83.5375 96.4288C83.4626 96.4859 83.3726 96.5146 83.2831 96.5146Z" fill="#292625"/>
<path d="M99.5221 41.4186C98.9877 32.4971 94.9689 23.1036 88.0133 16.5912C84.5651 13.3627 70.956 6.10305 57.2602 6.07587C43.3298 6.0479 29.3098 13.3075 25.8024 16.5912C18.8465 23.1036 14.828 32.4971 14.2937 41.4186C13.7597 50.3402 13.0061 57.2421 16.0308 65.7706C16.4547 66.9653 20.1411 66.9909 21.5643 66.998C23.1161 67.0055 23.8709 65.3357 24.0342 63.9782C24.4526 60.5014 23.7767 56.9995 23.7518 53.5034C23.727 50.0069 25.5528 39.5672 27.2276 36.2334C29.3626 31.983 33.428 29.9169 36.9224 29.0963C43.2643 27.6069 48.0009 28.2309 54.3432 26.7415H59.4725C65.8149 28.2309 70.5511 27.6069 76.8934 29.0963C80.3877 29.9169 84.4527 31.983 86.5881 36.2334C88.2629 39.5672 90.0888 50.0069 90.0639 53.5034C90.0391 56.9995 89.3632 60.5014 89.7816 63.9782C89.9448 65.3357 90.6992 67.0055 92.2514 66.998C93.6746 66.9909 97.3492 66.2145 97.7727 65.0197C100.798 56.4913 100.056 50.3402 99.5221 41.4186Z" fill="#795B26"/>
<path d="M54.3429 26.1814H59.4723C59.5157 26.1814 59.5586 26.1865 59.6004 26.1963C62.7296 26.9314 65.524 27.1496 68.2265 27.3608C70.9708 27.5751 73.8081 27.7969 77.0209 28.5512C79.7029 29.1811 84.5771 30.9837 87.0875 35.9814C88.7844 39.3593 90.6481 49.9109 90.6225 53.5058C90.613 54.8302 90.5105 56.1676 90.4115 57.4604C90.249 59.5868 90.0806 61.7857 90.3362 63.9101C90.4493 64.8492 90.9774 66.4379 92.2405 66.4383V66.9965L92.2484 66.4379C93.9595 66.4296 96.9904 65.5508 97.2456 64.8319C99.9623 57.1725 99.6042 51.5547 99.1089 43.7795C99.0608 43.0227 99.0115 42.2479 98.9638 41.4506C98.4137 32.2675 94.1772 23.1261 87.6309 16.9971C84.385 13.9583 71.0358 6.66012 57.2592 6.63254H57.1795C43.1816 6.63254 29.3352 14.047 26.1843 16.9971C19.6381 23.1261 15.4016 32.2675 14.8514 41.4506C14.8077 42.1837 14.7623 42.9026 14.7177 43.6105C14.2157 51.5724 13.819 57.8618 16.5574 65.5827C16.6264 65.7781 17.1923 66.4162 21.5668 66.4379C22.8378 66.4383 23.3659 64.8492 23.479 63.9101C23.7346 61.7857 23.5662 59.5868 23.4037 57.4604C23.3047 56.1676 23.2022 54.8302 23.1927 53.5058C23.1671 49.9109 25.0308 39.3593 26.7277 35.9814C29.2382 30.9837 34.1123 29.1811 36.7943 28.5512C40.0071 27.7969 42.8445 27.5751 45.5887 27.3608C48.2912 27.1496 51.0856 26.9314 54.2148 26.1963C54.2566 26.1865 54.2996 26.1814 54.3429 26.1814ZM92.2405 67.5547C90.4501 67.5547 89.4367 65.7911 89.2265 64.0433C88.9575 61.8101 89.1302 59.5557 89.2971 57.3753C89.3945 56.1014 89.4954 54.7837 89.5045 53.4975C89.5289 50.083 87.6932 39.6772 86.0886 36.482C83.7817 31.8909 79.2569 30.2234 76.765 29.6384C73.6358 28.9034 70.8414 28.6847 68.1389 28.474C65.4128 28.2609 62.5943 28.0407 59.408 27.2981H54.4072C51.2209 28.0407 48.4024 28.2609 45.6763 28.474C42.9738 28.6847 40.1794 28.9034 37.0499 29.6384C34.5583 30.2234 30.0336 31.8909 27.7266 36.482C26.122 39.6772 24.2863 50.083 24.3107 53.4975C24.3198 54.7837 24.4208 56.1014 24.5182 57.3753C24.685 59.5557 24.8577 61.8101 24.5888 64.0433C24.3786 65.7911 23.3651 67.5547 21.5747 67.5547C18.7046 67.5405 15.9935 67.3368 15.5037 65.9557C12.6888 58.0194 13.0918 51.6296 13.6021 43.54C13.6467 42.8337 13.692 42.1156 13.7358 41.384C14.3021 31.9228 18.6703 22.5017 25.42 16.1824C28.7728 13.0433 42.6733 5.51617 57.1795 5.51617H57.2611C71.3517 5.54414 85.0546 13.0551 88.3952 16.1824C95.1449 22.5017 99.5131 31.9228 100.08 41.384C100.127 42.1798 100.176 42.9534 100.225 43.709C100.71 51.3188 101.092 57.3296 98.2993 65.2045C97.69 66.922 93.3167 67.5496 92.2539 67.5547C92.2531 67.5547 92.2413 67.5547 92.2405 67.5547Z" fill="#292625"/>
<path d="M14.1658 36.5238C13.4532 38.7455 13.5617 41.1504 13.9331 43.4541C16.8431 39.5893 20.4589 36.2567 24.5491 33.6702C23.9067 31.5714 23.2643 29.4726 22.6223 27.3738C19.148 29.7933 15.4581 32.4952 14.1658 36.5238Z" fill="#7D3325"/>
<path d="M22.3898 28.0466C18.7689 30.591 15.7205 33.0479 14.5647 36.6507C14.0445 38.2721 13.9282 40.1215 14.2082 42.4114C16.9825 38.9075 20.2899 35.9101 24.0552 33.4879L22.3898 28.0466ZM13.9329 43.8721C13.8994 43.8721 13.8659 43.8677 13.8324 43.8595C13.6691 43.8193 13.5461 43.6857 13.5193 43.5199C13.0539 40.6348 13.1328 38.3709 13.7665 36.3954C15.1566 32.0615 19.3328 29.1531 22.3823 27.0295C22.4923 26.9527 22.6319 26.9338 22.7589 26.9771C22.8855 27.0212 22.9837 27.1229 23.0227 27.2509L24.9499 33.5473C25.0051 33.7274 24.9326 33.9224 24.7733 34.0232C20.7004 36.5987 17.1662 39.856 14.2681 43.7051C14.1877 43.8114 14.0627 43.8721 13.9329 43.8721Z" fill="#292625"/>
<path d="M99.562 36.5238C100.275 38.7455 100.166 41.1504 99.7946 43.4541C96.8847 39.5893 93.2689 36.2567 89.1787 33.6702C89.8211 31.5714 90.4635 29.4726 91.1059 27.3738C94.5797 29.7933 98.2697 32.4952 99.562 36.5238Z" fill="#7D3325"/>
<path d="M89.6724 33.4879C93.4381 35.9101 96.7455 38.9079 99.5197 42.4114C99.7997 40.1215 99.683 38.2725 99.1628 36.6507C98.007 33.0479 94.9587 30.591 91.3381 28.0466L89.6724 33.4879ZM99.7946 43.8721C99.6649 43.8721 99.5398 43.8114 99.4594 43.7051C96.5621 39.8564 93.0275 36.5991 88.9547 34.0232C88.795 33.9224 88.7224 33.7274 88.7776 33.5473L90.7048 27.2509C90.7442 27.1229 90.842 27.0212 90.969 26.9771C91.0952 26.9334 91.2352 26.9527 91.3456 27.0295C94.3947 29.1531 98.5709 32.0615 99.9614 36.3954C100.595 38.3709 100.674 40.6348 100.208 43.5199C100.181 43.6857 100.058 43.8193 99.8952 43.8595C99.8616 43.8677 99.8281 43.8721 99.7946 43.8721Z" fill="#292625"/>
<path d="M47.9575 5.95399C45.7605 4.97706 43.2241 5.88742 41.0086 6.8222C35.7393 9.04629 30.4175 11.4965 26.3175 15.4806C22.217 19.4648 19.5007 25.3082 20.653 30.9051C20.8943 32.0754 21.3344 33.2678 22.2438 34.0438C23.3373 34.9774 24.9321 35.1327 26.3305 34.7966C27.7288 34.4606 28.9805 33.6976 30.2061 32.946C35.9262 29.4385 41.6463 25.9306 47.3659 22.4227C49.7045 20.9889 52.2555 19.2647 52.8104 16.5805C53.1858 14.7625 52.5394 12.904 51.8616 11.1758C51.0464 9.09829 49.9982 6.86159 47.9575 5.95399Z" fill="#D1B86C"/>
<path d="M45.8741 5.95307C44.2802 5.95307 42.6113 6.60107 41.1719 7.20811C36.0378 9.37508 30.6845 11.8221 26.6101 15.781C22.1677 20.0976 20.0425 25.8607 21.0639 30.8206C21.3443 32.1804 21.8191 33.1306 22.5167 33.7258C23.305 34.399 24.2913 34.5404 24.9798 34.5404C25.3947 34.5404 25.8166 34.4896 26.2327 34.3896C27.5802 34.0658 28.8038 33.3153 29.9873 32.5897L47.1471 22.0665C49.5238 20.609 51.8872 18.9781 52.4002 16.496C52.75 14.8037 52.1333 13.0153 51.4715 11.3289C50.7002 9.36367 49.7163 7.19472 47.7875 6.33715C47.2066 6.07874 46.5804 5.95307 45.8741 5.95307ZM24.9798 35.3779C23.7901 35.3779 22.7498 35.0269 21.9721 34.3628C21.1278 33.6419 20.5619 32.5385 20.2429 30.9896C19.1643 25.7524 21.3802 19.6947 26.0252 15.1807C30.2042 11.1206 35.6379 8.63489 40.8457 6.4368C42.4721 5.75059 44.2068 5.11559 45.8741 5.11559C46.6892 5.11559 47.4476 5.26922 48.1282 5.57175C50.2416 6.51165 51.3592 8.74757 52.252 11.0237C52.9598 12.827 53.6176 14.7482 53.2213 16.665C52.6404 19.4749 50.1189 21.2266 47.586 22.7799L30.4258 33.3031C29.1868 34.063 27.9055 34.8489 26.4287 35.2038C25.9483 35.3192 25.4609 35.3779 24.9798 35.3779Z" fill="#292625"/>
<path d="M46.9319 13.001C46.2059 14.1343 45.2264 15.0793 44.2566 16.0126C42.5199 17.684 40.7694 19.366 38.7472 20.679C37.7337 21.3376 36.6587 21.8977 35.642 22.5513C34.1195 23.5294 32.7365 24.7096 31.2344 25.718C30.043 26.5177 28.7788 27.2082 27.4616 27.7778C25.6571 28.5586 23.6258 29.1144 21.7356 28.5716C21.6887 29.7778 22.0346 31.0171 22.8039 31.9479C23.5733 32.8783 24.784 33.4637 25.9879 33.3664C27.322 33.2589 28.4507 32.3856 29.5111 31.5693C34.0398 28.0831 38.873 25.0046 43.8422 22.1798C45.6317 21.1627 47.4667 20.1578 48.9159 18.6971C50.3655 17.2365 51.4011 15.2192 51.1779 13.1743C51.0852 12.3246 50.782 11.5108 50.4129 10.7395C49.8422 9.54669 49.1079 8.43189 48.2368 7.43685C48.4482 9.36707 47.9797 11.3654 46.9319 13.001Z" fill="#A37E33"/>
<path d="M23.5337 27.5121C24.6265 28.2074 26.0375 27.4703 27.1121 26.7471C31.2658 23.9502 35.4199 21.1534 39.5736 18.3565C42.5829 16.3306 45.884 13.8386 46.2413 10.2311C46.3284 9.35264 46.1636 8.34657 45.4447 7.83368C44.7372 7.32906 43.7691 7.48111 42.9259 7.69107C34.5787 9.7698 27.2481 15.6121 23.3657 23.2806C22.6634 24.6676 22.2217 26.6766 23.5337 27.5121Z" fill="#2E2227"/>
<path d="M65.5895 5.95399C67.7864 4.97706 70.3229 5.88742 72.5383 6.8222C77.8076 9.04629 83.1294 11.4965 87.2295 15.4806C91.3299 19.4648 94.0462 25.3082 92.8939 30.9051C92.6526 32.0754 92.2125 33.2678 91.3031 34.0438C90.2096 34.9774 88.6148 35.1327 87.2165 34.7966C85.8181 34.4606 84.5664 33.6976 83.3408 32.946C77.6207 29.4385 71.9007 25.9306 66.181 22.4227C63.8425 20.9889 61.2914 19.2647 60.7366 16.5805C60.3612 14.7625 61.0075 12.904 61.6854 11.1758C62.5005 9.09829 63.5487 6.86159 65.5895 5.95399Z" fill="#D1B86C"/>
<path d="M67.6736 5.95307C66.9669 5.95307 66.3411 6.07874 65.7602 6.33715C63.8318 7.19472 62.8475 9.36367 62.0761 11.3289C61.4144 13.0153 60.7977 14.8033 61.1474 16.496C61.6605 18.9777 64.0238 20.609 66.4006 22.0665L83.5604 32.5897C84.7439 33.3153 85.9679 34.0658 87.315 34.3896C87.7315 34.4896 88.153 34.5404 88.5683 34.5404C89.2564 34.5404 90.2427 34.399 91.0314 33.7258C91.7286 33.1306 92.2038 32.1805 92.4834 30.821C93.5051 25.8607 91.38 20.0976 86.9376 15.781C82.8636 11.8221 77.5099 9.37508 72.3758 7.20811C70.9364 6.60107 69.2675 5.95307 67.6736 5.95307ZM88.5683 35.3779C88.0868 35.3779 87.5993 35.3192 87.119 35.2038C85.6426 34.8489 84.3609 34.0634 83.1219 33.3031L65.9617 22.7799C63.4288 21.2266 60.9073 19.4749 60.3264 16.665C59.9305 14.7482 60.5879 12.827 61.2953 11.0237C62.1889 8.74718 63.3065 6.51165 65.4191 5.57175C66.1001 5.26922 66.8584 5.11559 67.6736 5.11559C69.3409 5.11559 71.0756 5.75059 72.7019 6.4368C77.9097 8.63489 83.3439 11.1206 87.5221 15.1807C92.1675 19.6947 94.3834 25.7524 93.3044 30.9896C92.9858 32.5381 92.4203 33.6415 91.576 34.3628C90.7975 35.0269 89.7576 35.3779 88.5683 35.3779Z" fill="#292625"/>
<path d="M66.4311 13.001C67.1571 14.1343 68.1366 15.0793 69.1063 16.0126C70.8431 17.684 72.5936 19.366 74.6158 20.679C75.6293 21.3376 76.7043 21.8977 77.7209 22.5513C79.2435 23.5294 80.6265 24.7096 82.1286 25.718C83.3199 26.5177 84.5842 27.2082 85.9014 27.7778C87.7059 28.5586 89.7372 29.1144 91.6273 28.5716C91.6743 29.7778 91.3284 31.0171 90.5591 31.9479C89.7897 32.8783 88.579 33.4637 87.3751 33.3664C86.041 33.2589 84.9123 32.3856 83.8519 31.5693C79.3232 28.0831 74.49 25.0046 69.5208 22.1798C67.7312 21.1627 65.8963 20.1578 64.4471 18.6971C62.9974 17.2365 61.9619 15.2192 62.1851 13.1743C62.2778 12.3246 62.581 11.5108 62.9501 10.7395C63.5207 9.54669 64.255 8.43189 65.1262 7.43685C64.9148 9.36707 65.3833 11.3654 66.4311 13.001Z" fill="#A37E33"/>
<path d="M90.0134 27.5121C88.9207 28.2074 87.5097 27.4703 86.4351 26.7471C82.2814 23.9502 78.1273 21.1534 73.9736 18.3565C70.9643 16.3306 67.6632 13.8386 67.3059 10.2311C67.2188 9.35264 67.3836 8.34657 68.1025 7.83368C68.81 7.32906 69.7781 7.48111 70.6212 7.69107C78.9685 9.7698 86.2991 15.6121 90.1814 23.2806C90.8838 24.6676 91.3255 26.6766 90.0134 27.5121Z" fill="#2E2227"/>
<path d="M51.8424 10.7074C51.5596 10.9682 51.4567 11.3653 51.3668 11.7395C51.0533 13.0438 50.7398 14.3481 50.4263 15.6523C54.5031 14.3808 58.9032 14.1578 63.0881 15.0107C62.3672 13.4755 62.1294 11.7182 62.4165 10.0468C59.3315 10.1457 56.2465 10.245 53.1615 10.3438C52.6954 10.3588 52.1851 10.3907 51.8424 10.7074Z" fill="#7D3325"/>
<path d="M61.9312 10.4825L53.1742 10.7638C52.7515 10.7771 52.3532 10.8067 52.1264 11.0159C51.9423 11.186 51.8575 11.489 51.7735 11.8384L51.0025 15.0457C53.2756 14.4075 55.6318 14.0845 58.0177 14.0845C59.491 14.0845 60.9635 14.2098 62.4048 14.4576C61.9478 13.1927 61.7833 11.8187 61.9312 10.4825ZM50.4256 16.0723C50.3207 16.0723 50.2182 16.0333 50.1393 15.9596C50.0293 15.8568 49.9828 15.7024 50.0179 15.5558L50.9584 11.643C51.0483 11.2692 51.1713 10.7571 51.5574 10.401C52.0326 9.96212 52.7034 9.94085 53.1474 9.92667L62.4025 9.62926C62.5267 9.62178 62.6489 9.6781 62.7317 9.77304C62.8145 9.86758 62.85 9.99481 62.8291 10.1189C62.561 11.68 62.7767 13.3282 63.4368 14.7688C63.4857 14.8373 63.5145 14.9212 63.5145 15.0118C63.5145 15.2442 63.3158 15.4317 63.0922 15.4306C63.061 15.4286 63.033 15.4282 63.0034 15.4223C61.3748 15.0902 59.6972 14.922 58.0177 14.922C55.4698 14.922 52.9577 15.3025 50.5506 16.0534C50.5096 16.0664 50.4674 16.0723 50.4256 16.0723Z" fill="#292625"/>
<path d="M18.5369 61.1142C18.0093 61.6846 17.3373 62.2144 17.2005 62.979C17.0025 64.0867 18.1899 65.0995 19.3115 64.9967C20.433 64.8939 21.34 63.9619 21.7485 62.9132C22.1571 61.865 22.1622 60.7092 22.1559 59.5842C22.1161 52.5566 21.8645 45.3187 24.354 38.7457C24.5015 38.3565 24.6451 37.8767 24.3749 37.56C24.1135 37.2527 23.5902 37.3153 23.2893 37.584C22.988 37.8526 22.8547 38.2572 22.7411 38.6444C22.0356 41.0489 21.6137 43.5291 21.3148 46.0171C21.0643 48.099 20.8991 50.1915 20.8191 52.2868C20.7008 55.3936 20.6499 58.8306 18.5369 61.1142Z" fill="#D1B86C"/>
<path d="M95.4759 61.1142C96.0039 61.6846 96.6755 62.2144 96.8123 62.979C97.0107 64.0867 95.8233 65.0995 94.7018 64.9967C93.5798 64.8939 92.6732 63.9619 92.2647 62.9132C91.8561 61.865 91.8506 60.7092 91.8569 59.5842C91.8967 52.5566 92.1487 45.3187 89.6592 38.7457C89.5117 38.3565 89.3682 37.8767 89.6379 37.56C89.8997 37.2527 90.4227 37.3153 90.7239 37.584C91.0248 37.8526 91.1581 38.2572 91.2717 38.6444C91.9772 41.0489 92.3991 43.5291 92.6985 46.0171C92.9485 48.099 93.1141 50.1915 93.1938 52.2868C93.3121 55.3936 93.3633 58.8306 95.4759 61.1142Z" fill="#D1B86C"/>
<path d="M34.4913 13.1394C34.8841 13.5148 33.8564 15.2237 32.1962 16.9557C30.536 18.6878 28.8718 19.7873 28.4791 19.4118C28.0867 19.0364 29.114 17.3276 30.7742 15.5955C32.4344 13.8634 34.0986 12.764 34.4913 13.1394Z" fill="white"/>
<path d="M77.2452 12.24C77.0137 12.7313 75.0652 12.3019 72.8927 11.2812C70.7206 10.2602 69.1476 9.03428 69.379 8.54306C69.6101 8.05144 71.5586 8.48081 73.7311 9.50186C75.9032 10.5225 77.4767 11.7484 77.2452 12.24Z" fill="white"/>
<path d="M50.6598 32.5606C47.1528 30.0166 42.3496 30.2593 38.1336 31.263C33.9172 32.2671 29.7738 33.9287 25.4394 33.8672C21.4888 33.8117 17.7082 32.3218 14.1133 30.6835C14.8913 33.5915 17.1305 36.07 19.9465 37.1407C18.6073 37.1257 17.2677 37.1104 15.9285 37.0954C17.3809 39.1414 19.1125 40.9889 21.061 42.5709C20.051 42.7801 19.0119 42.8475 17.9838 42.7699C17.819 43.4061 18.3463 44.0013 18.8636 44.407C22.6967 47.4103 28.3032 47.471 32.7069 45.3895C38.4854 42.658 42.4171 36.8055 48.369 34.4754C49.9235 33.8672 51.7616 33.5446 53.2053 34.3817L50.6598 32.5606Z" fill="#F2591D"/>
<path d="M26.3717 47.2363C23.4843 47.2367 20.7152 46.3902 18.605 44.7369C17.5304 43.8951 17.4535 43.1458 17.5781 42.6656C17.629 42.4695 17.8112 42.3391 18.015 42.3529C18.7087 42.4053 19.4047 42.3891 20.0933 42.306C18.3991 40.8363 16.886 39.1684 15.5866 37.3382C15.4955 37.2098 15.4841 37.0412 15.5574 36.9018C15.6304 36.7623 15.7704 36.6796 15.9333 36.6772L18.1258 36.702C15.9889 35.3714 14.3602 33.2284 13.7087 30.792C13.6665 30.6356 13.719 30.469 13.8428 30.3642C13.967 30.2598 14.1393 30.2358 14.2876 30.3028C17.8021 31.9049 21.5863 33.3947 25.4458 33.449C28.5194 33.4971 31.5795 32.6285 34.5368 31.793C35.6808 31.47 36.8634 31.1359 38.0362 30.8562C43.5244 29.5496 47.8544 30.0089 50.9063 32.2224C51.0936 32.3583 51.135 32.6202 50.9994 32.8073C50.8633 32.9945 50.6011 33.0362 50.4137 32.9003C47.5693 30.8365 43.4708 30.4233 38.2307 31.6713C37.0744 31.9462 35.9004 32.2783 34.7651 32.599C31.7499 33.451 28.6349 34.333 25.4336 34.2865C21.7397 34.2345 18.1562 32.9381 14.8042 31.4538C15.727 33.85 17.6885 35.8346 20.0956 36.7497C20.2857 36.8222 20.3965 37.02 20.3587 37.2193C20.3208 37.4186 20.1433 37.5466 19.9422 37.56L16.7618 37.5242C18.0868 39.2752 19.6189 40.8611 21.3252 42.2465C21.4506 42.3485 21.5062 42.5132 21.468 42.6704C21.4297 42.8276 21.3043 42.9485 21.1462 42.9812C20.2451 43.1683 19.3255 43.2463 18.407 43.2132C18.5182 43.5579 18.8779 43.886 19.1224 44.0779C22.5836 46.7896 27.9708 47.1654 32.5275 45.0115C35.2064 43.7454 37.5386 41.7458 39.7943 39.8125C42.3583 37.6144 45.0096 35.3414 48.216 34.0864C50.2915 33.2741 52.0893 33.2509 53.4155 34.0202C53.6159 34.1364 53.6841 34.3925 53.5678 34.5926C53.4518 34.7927 53.1951 34.8601 52.9948 34.7446C51.6082 33.9403 49.7974 34.3673 48.522 34.866C45.4477 36.0694 42.8513 38.2951 40.34 40.4479C38.0425 42.4175 35.6666 44.4541 32.886 45.7686C30.8042 46.7526 28.5541 47.2363 26.3717 47.2363Z" fill="#292625"/>
<path d="M63.0964 32.5606C66.6038 30.0166 71.4066 30.2593 75.623 31.263C79.839 32.2671 83.9828 33.9287 88.3168 33.8672C92.2678 33.8117 96.048 32.3218 99.6429 30.6835C98.8649 33.5915 96.6261 36.07 93.8097 37.1407C95.1493 37.1257 96.4885 37.1104 97.8277 37.0954C96.3757 39.1414 94.6437 40.9889 92.6956 42.5709C93.7052 42.7801 94.7443 42.8475 95.7728 42.7699C95.9376 43.4061 95.4103 44.0013 94.8926 44.407C91.0595 47.4103 85.453 47.471 81.0496 45.3895C75.2712 42.658 71.3391 36.8055 65.3872 34.4754C63.8331 33.8672 61.995 33.5446 60.5513 34.3817L63.0964 32.5606Z" fill="#F2591D"/>
<path d="M87.3853 47.2363C85.2026 47.2363 82.9532 46.7526 80.8707 45.7686C78.0901 44.4541 75.7141 42.4175 73.4166 40.4479C70.9058 38.2951 68.309 36.0694 65.235 34.866C63.9597 34.3669 62.1484 33.9403 60.7619 34.7446C60.5616 34.8597 60.3052 34.7923 60.1889 34.5926C60.073 34.3925 60.1408 34.1364 60.3411 34.0202C61.6673 33.2513 63.4656 33.2741 65.5406 34.0864C68.7471 35.3414 71.3987 37.6144 73.9628 39.8125C76.2181 41.7458 78.5507 43.7454 81.2291 45.0115C85.7862 47.1654 91.1731 46.7904 94.6343 44.0779C94.8792 43.8864 95.2388 43.5579 95.3501 43.2132C94.4312 43.2455 93.5116 43.1679 92.6109 42.9812C92.4524 42.9485 92.327 42.8276 92.2887 42.6704C92.2505 42.5132 92.3061 42.3485 92.4315 42.2465C94.1378 40.8611 95.6699 39.2752 96.9949 37.5242L93.8148 37.56C93.6173 37.5458 93.4363 37.4186 93.3984 37.2193C93.3602 37.02 93.4714 36.8222 93.661 36.7497C96.0682 35.8346 98.0301 33.85 98.9524 31.4538C95.6005 32.9381 92.0174 34.2345 88.3231 34.2865C85.1241 34.3358 82.0068 33.4506 78.9916 32.599C77.8562 32.2783 76.6823 31.9462 75.526 31.6713C70.2863 30.4233 66.1878 30.8369 63.3433 32.9003C63.156 33.0362 62.8938 32.9945 62.7577 32.8073C62.6217 32.6202 62.6635 32.3583 62.8508 32.2224C65.9027 30.0089 70.2323 29.5492 75.7208 30.8562C76.8936 31.1359 78.0763 31.47 79.2199 31.793C82.1775 32.6289 85.2353 33.5006 88.3113 33.449C92.1704 33.3947 95.955 31.9049 99.4694 30.3028C99.6169 30.2358 99.7901 30.2598 99.9143 30.3642C100.038 30.469 100.09 30.6356 100.048 30.792C99.3965 33.2284 97.7678 35.3714 95.6312 36.702L97.8238 36.6772C97.9705 36.682 98.1263 36.7623 98.1996 36.9018C98.273 37.0412 98.2616 37.2098 98.1705 37.3382C96.8711 39.1684 95.3575 40.8363 93.6638 42.306C94.3523 42.3891 95.0476 42.4053 95.7416 42.3529C95.9455 42.3383 96.1281 42.4695 96.1786 42.6657C96.3032 43.1458 96.2263 43.8951 95.1517 44.7369C93.0419 46.3902 90.272 47.2363 87.3853 47.2363Z" fill="#292625"/>
<path d="M24.2447 44.1345C25.1588 44.7364 26.2744 45.0744 27.3589 44.9263C28.8752 44.7195 30.1367 43.5987 30.9278 42.2905C31.7189 40.9819 32.1219 39.4838 32.5797 38.0251C33.0372 36.5668 33.5798 35.0908 34.5846 33.9382C30.7152 36.0453 26.1999 36.9493 21.8163 36.4943C21.7402 37.1396 22.3238 37.6513 22.8479 38.0358C23.7317 38.6842 24.6154 39.3326 25.4995 39.981C24.8015 39.9766 24.1035 39.9723 23.4055 39.9679C22.9737 39.9656 22.3715 40.1574 22.4693 40.5777C22.5009 40.7136 22.6074 40.8176 22.7107 40.911C23.5073 41.6307 24.4344 42.2058 25.4337 42.5993C24.9672 43.0004 24.0361 42.5395 23.7254 43.0701C23.5041 43.4475 23.8791 43.8942 24.2447 44.1345Z" fill="#D34B20"/>
<path d="M80.9958 34.7115C84.5209 36.6141 88.7491 37.1782 92.6504 36.2671C92.8689 37.0494 92.0699 37.7112 91.3743 38.1327C90.5272 38.6464 89.6802 39.1596 88.8331 39.6733C89.2558 39.9853 89.7649 40.1787 90.2882 40.2264C90.2784 40.8508 89.8801 41.4172 89.3761 41.7867C88.8725 42.1562 88.27 42.3615 87.678 42.5616C88.3626 42.3422 88.953 43.2864 88.6974 43.958C88.4419 44.6293 87.7289 44.9964 87.0593 45.258C85.8072 45.7472 84.4897 46.0848 83.1485 46.1762C82.7147 46.2057 82.2462 46.1998 81.8901 45.9509C81.3033 45.5408 81.2864 44.6954 81.3187 43.9809C81.4331 41.4475 81.3657 38.7405 79.957 36.631L80.9958 34.7115Z" fill="#D34B20"/>
<path d="M86.5502 45.3051C86.5502 53.2934 80.0675 59.7695 72.07 59.7695C64.073 59.7695 57.5898 53.2934 57.5898 45.3051C57.5898 37.3167 64.073 30.8406 72.07 30.8406C80.0675 30.8406 86.5502 37.3167 86.5502 45.3051Z" fill="#523B1A"/>
<path d="M84.6124 45.7756C84.6124 53.0132 78.7389 58.8799 71.4939 58.8799C64.2485 58.8799 58.375 53.0132 58.375 45.7756C58.375 38.5385 64.2485 32.6714 71.4939 32.6714C78.7389 32.6714 84.6124 38.5385 84.6124 45.7756Z" fill="#D1B86C"/>
<path d="M74.1404 55.4815C67.8852 55.4815 62.5015 51.7558 60.0908 46.4047C60.2344 50.6867 62.8469 54.6889 67.0795 56.3978C70.829 57.9116 74.9176 57.2498 77.9443 55.008C76.7277 55.3168 75.4532 55.4815 74.1404 55.4815Z" fill="#D4C18D"/>
<path d="M27.4248 45.3051C27.4248 53.2934 33.9079 59.7695 41.905 59.7695C49.902 59.7695 56.3852 53.2934 56.3852 45.3051C56.3852 37.3167 49.902 30.8406 41.905 30.8406C33.9079 30.8406 27.4248 37.3167 27.4248 45.3051Z" fill="#523B1A"/>
<path d="M29.3623 45.7756C29.3623 53.0132 35.2358 58.8799 42.4812 58.8799C49.7262 58.8799 55.5997 53.0132 55.5997 45.7756C55.5997 38.5385 49.7262 32.6714 42.4812 32.6714C35.2358 32.6714 29.3623 38.5385 29.3623 45.7756Z" fill="#D1B86C"/>
<path d="M29.3623 45.7756C29.3623 53.0132 35.2358 58.8799 42.4812 58.8799C49.7262 58.8799 55.5997 53.0132 55.5997 45.7756C55.5997 38.5385 49.7262 32.6714 42.4812 32.6714C35.2358 32.6714 29.3623 38.5385 29.3623 45.7756Z" fill="#D1B86C"/>
<path d="M30.6196 45.7752C30.6196 52.3191 35.9304 57.624 42.4813 57.624C49.0323 57.624 54.343 52.3191 54.343 45.7752C54.343 39.2314 49.0323 33.9264 42.4813 33.9264C35.9304 33.9264 30.6196 39.2314 30.6196 45.7752Z" fill="#F3ED99"/>
<path d="M36.7988 45.7761C36.7988 48.911 39.3428 51.4521 42.481 51.4521C45.6189 51.4521 48.1628 48.911 48.1628 45.7761C48.1628 42.6413 45.6189 40.1001 42.481 40.1001C39.3428 40.1001 36.7988 42.6413 36.7988 45.7761Z" fill="#D4C18D"/>
<path d="M38.3701 45.7752C38.3701 48.0434 40.2106 49.8818 42.4812 49.8818C44.7515 49.8818 46.5919 48.0434 46.5919 45.7752C46.5919 43.5074 44.7515 41.6685 42.4812 41.6685C40.2106 41.6685 38.3701 43.5074 38.3701 45.7752Z" fill="#2E2227"/>
<path d="M42.4814 44.5733C42.4814 45.2379 43.0205 45.7764 43.6858 45.7764C44.3511 45.7764 44.8901 45.2379 44.8901 44.5733C44.8901 43.9088 44.3511 43.3699 43.6858 43.3699C43.0205 43.3699 42.4814 43.9088 42.4814 44.5733Z" fill="white"/>
<path d="M39.0367 36.963C40.0132 37.897 39.4591 40.0585 37.7989 41.7905C36.1386 43.5226 34.0013 44.1695 33.0245 43.2355C32.048 42.3015 32.6021 40.14 34.2623 38.4079C35.9222 36.6758 38.0599 36.029 39.0367 36.963Z" fill="white"/>
<path d="M39.8351 55.4815C46.0899 55.4815 51.4736 51.7558 53.8842 46.4047C53.7407 50.6867 51.1281 54.6889 46.8955 56.3978C43.146 57.9116 39.0578 57.2498 36.0308 55.008C37.2473 55.3168 38.5219 55.4815 39.8351 55.4815Z" fill="#D4C18D"/>
<path d="M59.3403 47.166C58.9783 46.7689 58.5556 46.412 58.0611 46.2891C57.5811 46.1693 57.0263 46.3194 56.7293 46.7547C56.4332 46.3186 55.8787 46.1674 55.3988 46.2859C54.9039 46.4077 54.4804 46.7638 54.1172 47.1597C52.184 49.2675 51.6528 52.5985 52.0933 55.5817C52.5342 58.5649 53.8103 61.2975 55.0687 63.9715C55.1614 64.1688 55.9477 65.3928 56.7214 65.3936C57.4952 65.3943 58.2567 64.1724 58.3497 63.975C59.614 61.3043 60.8968 58.5747 61.3444 55.5924C61.7924 52.6104 61.2687 49.2782 59.3403 47.166Z" fill="#2D1615"/>
<path d="M55.2482 46.8077C54.8866 46.8731 54.6176 47.1831 54.3991 47.4884C52.8454 49.6581 52.343 52.4884 52.5343 55.1821C52.7464 58.1672 53.7678 61.0862 55.4513 63.5191C55.7427 63.9406 56.1666 64.3944 56.6564 64.288C57.2184 64.1659 57.386 63.4324 57.4376 62.8403C57.8663 57.9431 58.1833 52.8836 56.6777 48.2203C56.5633 47.8666 56.434 47.5077 56.1998 47.2241C55.9655 46.9408 55.6031 46.7431 55.2482 46.8077Z" fill="#EE8B40"/>
<path d="M57.7563 46.8045C57.2642 46.9227 57.0323 47.475 56.8864 47.9591C55.3902 52.9222 55.1658 58.2622 56.2405 63.3328C56.3166 63.6912 56.4487 64.1056 56.7969 64.2199C57.2334 64.3633 57.6317 63.9319 57.8774 63.5443C60.1122 60.0195 61.1237 55.7367 60.7021 51.5856C60.5361 49.9469 60.0791 48.2061 58.8029 47.1626C58.5072 46.9207 58.1282 46.7155 57.7563 46.8045Z" fill="#F2591D"/>
<path d="M57.8775 56.2682C57.8775 60.2866 57.3089 63.5439 56.6077 63.5439C55.9065 63.5439 55.3379 60.2866 55.3379 56.2682C55.3379 52.2498 55.9065 48.9924 56.6077 48.9924C57.3089 48.9924 57.8775 52.2498 57.8775 56.2682Z" fill="#F3DE3E"/>
<path d="M56.7763 53.848C57.0586 53.7606 57.1718 53.4253 57.2144 53.1331C57.3493 52.2097 57.1888 51.2462 56.7625 50.4162C56.0783 51.0768 55.8046 52.1006 55.9623 53.0377C55.9982 53.2524 56.0585 53.4706 56.197 53.6388C56.3354 53.8067 56.568 53.9126 56.7763 53.848Z" fill="white"/>
<path d="M57.0087 56.17C56.8616 55.6102 56.7145 55.0505 56.5674 54.4911C56.2551 55.0591 56.1135 55.7197 56.166 56.3658C56.1806 56.5446 56.2117 56.729 56.3135 56.8767C56.4152 57.0248 56.6037 57.1261 56.7764 57.0776C56.9444 57.0307 57.0517 56.8574 57.0749 56.6849C57.0978 56.5119 57.0533 56.3382 57.0087 56.17Z" fill="white"/>
<path d="M81.4021 47.2646C81.2933 47.2646 81.1841 47.2225 81.102 47.1382C78.3309 44.3012 74.4655 42.6313 70.4975 42.5573C66.528 42.4789 62.605 44.0081 59.7298 46.7407C59.5614 46.9003 59.2968 46.8936 59.1371 46.7262C58.9774 46.5583 58.984 46.2932 59.1516 46.1341C62.1854 43.251 66.3186 41.6445 70.5133 41.7198C74.6997 41.7982 78.7781 43.5598 81.7022 46.5536C81.8639 46.7191 81.8608 46.9842 81.6947 47.1457C81.6135 47.2249 81.5078 47.2646 81.4021 47.2646Z" fill="#292625"/>
<path d="M78.1261 44.3164C78.0315 44.3164 77.9364 44.2849 77.8579 44.2195C77.6801 44.0718 77.656 43.8075 77.8039 43.6298L80.7083 40.1452C80.8562 39.9675 81.1208 39.9435 81.2987 40.0912C81.4765 40.2393 81.5006 40.5032 81.3527 40.6809L78.4483 44.1655C78.3655 44.2652 78.246 44.3164 78.1261 44.3164Z" fill="#292625"/>
<path d="M73.3118 42.7822C73.2558 42.7822 73.1986 42.7708 73.1442 42.7468C72.932 42.6546 72.835 42.4076 72.9277 42.1957L74.4535 38.7016C74.5461 38.4896 74.7934 38.3923 75.0055 38.4853C75.2177 38.5779 75.3143 38.8245 75.2216 39.0364L73.6959 42.5305C73.6273 42.6881 73.4731 42.7822 73.3118 42.7822Z" fill="#292625"/>
<path d="M68.5777 42.5469C68.5725 42.5469 68.5674 42.5469 68.5623 42.5469C68.3308 42.5382 68.1502 42.3444 68.1585 42.1132L68.2847 38.6096C68.2929 38.3784 68.4744 38.1976 68.7185 38.2058C68.9499 38.2145 69.1309 38.4087 69.1227 38.6395L68.9965 42.1435C68.9882 42.3692 68.8021 42.5469 68.5777 42.5469Z" fill="#292625"/>
<path d="M64.438 43.8076C64.3185 43.8076 64.2002 43.7568 64.1174 43.6587C63.3733 42.7775 62.8275 41.7218 62.5388 40.6054C62.4809 40.3817 62.6157 40.1532 62.8397 40.0953C63.0625 40.0382 63.2924 40.1721 63.3504 40.3963C63.6079 41.3917 64.0946 42.3332 64.7582 43.1187C64.9073 43.2955 64.8848 43.5598 64.7082 43.7088C64.6293 43.7753 64.5335 43.8076 64.438 43.8076Z" fill="#292625"/>
<path d="M39.558 85.3482C37.0696 80.9871 34.0998 76.9163 31.5562 72.5871C29.0126 68.2574 26.8733 63.582 26.2668 58.5985C25.5356 67.0777 29.2733 75.2898 33.6096 82.6155C34.8486 84.7092 36.5404 87.0101 38.9743 87.0791C39.1928 87.085 39.4247 87.0677 39.6045 86.9432C40.0876 86.6087 39.849 85.8583 39.558 85.3482Z" fill="#D34B20"/>
<path d="M75.6608 88.0694C76.6069 88.7694 77.868 87.7802 78.5834 86.8458C84.4509 79.1801 87.7023 69.5522 87.6818 59.9023C85.0334 67.3475 81.0575 74.2356 77.2252 81.1474C76.3837 82.6655 75.5374 84.2156 75.186 85.9146C75.0287 86.6769 75.035 87.6057 75.6608 88.0694Z" fill="#D34B20"/>
<path d="M88.9668 70.2736C88.716 72.3445 87.8177 74.2735 86.9316 76.162C86.1227 77.8858 85.3135 79.6096 84.5047 81.3334C84.0414 82.3206 83.5662 83.3853 83.7444 84.4611C84.0591 84.6195 84.4282 84.404 84.7015 84.1814C86.3109 82.872 87.4261 81.0198 88.059 79.0447C88.6915 77.07 89.0264 72.3464 88.9668 70.2736Z" fill="#D34B20"/>
<path d="M90.2973 81.0407C90.5596 81.2692 90.9941 81.1675 91.2323 80.9142C91.4705 80.6609 91.5596 80.3056 91.6279 79.9649C92.146 77.3756 91.9713 74.6517 91.1259 72.1499C91.1807 74.9199 89.8186 77.6006 90.0449 80.3616C90.0651 80.6086 90.11 80.878 90.2973 81.0407Z" fill="#D34B20"/>
<path d="M25.3076 70.4009C26.3586 74.9425 28.8201 79.0086 31.1298 83.0589C31.506 83.7191 31.8905 84.4218 31.8799 85.1813C31.8692 85.9412 31.3014 86.7488 30.5411 86.7342C30.252 86.7287 29.9775 86.6089 29.7247 86.4687C27.3866 85.1742 26.5128 82.2832 26.0833 79.6475C25.726 77.4569 25.5285 75.2403 25.4922 73.0209L25.3076 70.4009Z" fill="#D34B20"/>
<path d="M21.0141 74.3818C21.5043 72.7856 22.1175 71.2273 22.8467 69.7248C23.0158 72.0876 23.1846 74.4503 23.3538 76.8131C23.4098 77.5966 23.4611 78.4112 23.1696 79.1408C23.0844 79.3539 22.9665 79.5615 22.7847 79.7021C22.4464 79.9641 21.9428 79.9341 21.5768 79.712C21.2109 79.4898 20.9664 79.1101 20.8055 78.7134C20.251 77.3461 20.5811 75.7924 21.0141 74.3818Z" fill="#D34B20"/>
<path d="M46.3555 87.0505C46.1875 87.1021 45.581 85.6154 45.0009 83.7297C44.4204 81.844 44.0864 80.2734 44.2544 80.2218C44.4224 80.1702 45.0293 81.6573 45.6094 83.5426C46.1895 85.4283 46.5239 86.9989 46.3555 87.0505Z" fill="#292625"/>
<path d="M72.5652 62.3687C72.5778 62.4471 72.0833 62.5979 71.2536 62.6882C70.4239 62.7606 69.2562 62.7122 68.012 62.4065C66.7753 62.0721 65.7303 61.5497 65.0394 61.0853C64.3568 60.6051 63.9975 60.2336 64.0464 60.1714C64.104 60.0942 64.5539 60.3329 65.2649 60.6961C65.9874 61.0451 67.0005 61.4733 68.1713 61.7908C69.3496 62.0792 70.4436 62.1946 71.2445 62.2387C72.0431 62.2647 72.5522 62.2738 72.5652 62.3687Z" fill="#292625"/>
<path d="M76.257 64.5168C76.2827 64.596 75.9475 64.7843 75.3634 64.9824C74.7782 65.1715 73.9367 65.3421 72.9942 65.3815C72.0509 65.4059 71.1999 65.292 70.6032 65.1427C70.007 64.9844 69.6599 64.8193 69.68 64.7382C69.7013 64.6488 70.0807 64.6574 70.6718 64.6984C71.2657 64.7307 72.0765 64.7681 72.9725 64.7457C73.868 64.7078 74.6745 64.6157 75.2648 64.5436C75.852 64.4628 76.2298 64.4289 76.257 64.5168Z" fill="#292625"/>
<path d="M40.2305 63.1976C40.2337 63.1046 40.5941 63.0377 41.1568 62.9518C41.7204 62.8545 42.485 62.7056 43.3088 62.4582C44.1267 62.1931 44.8405 61.8811 45.359 61.6404C45.8705 61.3915 46.2053 61.2414 46.2609 61.3158C46.311 61.3816 46.0669 61.6637 45.5897 62.0269C45.1078 62.3798 44.3732 62.7828 43.4985 63.0653C42.6183 63.3304 41.7846 63.4166 41.1872 63.4005C40.5878 63.3733 40.2266 63.2799 40.2305 63.1976Z" fill="#292625"/>
<path d="M37.0797 66.3696C37.0671 66.1703 38.5179 65.939 40.2503 65.4663C41.9692 64.9487 43.3215 64.3751 43.4169 64.5508C43.4942 64.6808 42.2228 65.536 40.4261 66.0777C38.6153 66.5717 37.0832 66.5212 37.0797 66.3696Z" fill="#292625"/>
</g>
<defs>
<clipPath id="clip0_772_2923">
<rect width="111.682" height="128.148" fill="white"/>
</clipPath>
</defs>
</svg>
