<svg width="25" height="19" viewBox="0 0 25 19" fill="none" xmlns="http://www.w3.org/2000/svg">
<path d="M23.7163 5.68317V9.91846H14.7374C14.1191 9.26622 13.2466 8.85963 12.281 8.85963C11.3153 8.85963 10.4429 9.26622 9.82451 9.91846H0.845703V5.68317H23.7163Z" fill="#FF7A01"/>
<path d="M23.7163 14.1539V18.3892H0.845703V14.1539H9.47722C10.0871 15.0518 11.1205 15.6362 12.281 15.6362C13.4415 15.6362 14.4749 15.0518 15.0847 14.1539H23.7163Z" fill="#FF7A01"/>
<path d="M8.89343 12.2479C8.89343 12.951 9.11366 13.6117 9.4779 14.1538H0.422852V9.91852H9.82519C9.24928 10.5284 8.89343 11.35 8.89343 12.2479Z" fill="#EFD510"/>
<path d="M24.1401 9.91852V14.1538H15.0851C15.4493 13.6117 15.6696 12.951 15.6696 12.2479C15.6696 11.35 15.3138 10.5284 14.7378 9.91852H24.1401Z" fill="#EFD510"/>
<path d="M15.6695 12.248C15.6695 12.9511 15.4493 13.6118 15.0851 14.1539C14.4752 15.0518 13.4418 15.6362 12.2813 15.6362C11.1208 15.6362 10.0875 15.0518 9.47754 14.1539C9.1133 13.6118 8.89307 12.9511 8.89307 12.248C8.89307 11.3501 9.24892 10.5285 9.82483 9.91859C10.4432 9.26636 11.3157 8.85977 12.2813 8.85977C13.2469 8.85977 14.1194 9.26636 14.7378 9.91859C15.3138 10.5285 15.6695 11.3501 15.6695 12.248Z" fill="#F2910A"/>
<path d="M6.35188 3.7782C6.35188 4.29491 6.19094 4.77773 5.92835 5.18432C5.80976 5.37067 5.65729 5.54008 5.48788 5.68408H2.13353C1.59988 5.2182 1.26953 4.54055 1.26953 3.7782C1.26953 2.37209 2.40459 1.23703 3.8107 1.23703C4.70012 1.23703 5.47094 1.68597 5.92835 2.37209C6.19094 2.77867 6.35188 3.2615 6.35188 3.7782Z" fill="#F2910A"/>
<path d="M9.74047 3.7782C9.74047 4.29491 9.90141 4.77773 10.164 5.18432C10.0454 5.37067 9.89294 5.54008 9.72353 5.68408H6.36918C6.19977 5.54008 6.04738 5.37067 5.92871 5.18432C6.1913 4.77773 6.35224 4.29491 6.35224 3.7782C6.35224 3.2615 6.1913 2.77867 5.92871 2.37209C6.38612 1.68597 7.15694 1.23703 8.04636 1.23703C8.93577 1.23703 9.70659 1.68597 10.164 2.37209C9.90141 2.77867 9.74047 3.2615 9.74047 3.7782Z" fill="#F2910A"/>
<path d="M14.8226 3.7782C14.8226 4.29491 14.6616 4.77773 14.3991 5.18432C14.2805 5.37067 14.128 5.54008 13.9586 5.68408H10.6042C10.4348 5.54008 10.2824 5.37067 10.1638 5.18432C9.90118 4.77773 9.74023 4.29491 9.74023 3.7782C9.74023 3.2615 9.90118 2.77867 10.1638 2.37209C10.6212 1.68597 11.392 1.23703 12.2814 1.23703C13.1708 1.23703 13.9416 1.68597 14.3991 2.37209C14.6616 2.77867 14.8226 3.2615 14.8226 3.7782Z" fill="#F2910A"/>
<path d="M18.2107 3.7782C18.2107 4.29491 18.3716 4.77773 18.6342 5.18432C18.5156 5.37067 18.3632 5.54008 18.1937 5.68408H14.8394C14.67 5.54008 14.5175 5.37067 14.3989 5.18432C14.6615 4.77773 14.8225 4.29491 14.8225 3.7782C14.8225 3.2615 14.6615 2.77867 14.3989 2.37209C14.8563 1.68597 15.6272 1.23703 16.5166 1.23703C17.406 1.23703 18.1768 1.68597 18.6342 2.37209C18.3716 2.77867 18.2107 3.2615 18.2107 3.7782Z" fill="#F2910A"/>
<path d="M23.2933 3.7782C23.2933 4.54055 22.9629 5.2182 22.4293 5.68408H19.0749C18.9055 5.54008 18.7531 5.37067 18.6345 5.18432C18.3719 4.77773 18.2109 4.29491 18.2109 3.7782C18.2109 3.2615 18.3719 2.77867 18.6345 2.37209C19.0919 1.68597 19.8627 1.23703 20.7521 1.23703C22.1582 1.23703 23.2933 2.37209 23.2933 3.7782Z" fill="#F2910A"/>
<path d="M22.4291 5.68408H20.752V1.23703C22.1581 1.23703 23.2931 2.37209 23.2931 3.7782C23.2931 4.54055 22.9628 5.2182 22.4291 5.68408Z" fill="#F5A73B"/>
<path d="M5.48772 5.68408H3.81055V1.23703C4.69996 1.23703 5.47078 1.68597 5.92819 2.37209C6.19078 2.77867 6.35172 3.2615 6.35172 3.7782C6.35172 4.29491 6.19078 4.77773 5.92819 5.18432C5.8096 5.37067 5.65713 5.54008 5.48772 5.68408Z" fill="#F5A73B"/>
<path d="M9.72307 5.68408H8.0459V1.23703C8.93531 1.23703 9.70613 1.68597 10.1635 2.37209C9.90095 2.77867 9.74001 3.2615 9.74001 3.7782C9.74001 4.29491 9.90095 4.77773 10.1635 5.18432C10.045 5.37067 9.89248 5.54008 9.72307 5.68408Z" fill="#F5A73B"/>
<path d="M13.9584 5.68408H12.2812V1.23703C13.1707 1.23703 13.9415 1.68597 14.3989 2.37209C14.6615 2.77867 14.8224 3.2615 14.8224 3.7782C14.8224 4.29491 14.6615 4.77773 14.3989 5.18432C14.2803 5.37067 14.1278 5.54008 13.9584 5.68408Z" fill="#F5A73B"/>
<path d="M18.1938 5.68408H16.5166V1.23703C17.406 1.23703 18.1768 1.68597 18.6342 2.37209C18.3717 2.77867 18.2107 3.2615 18.2107 3.7782C18.2107 4.29491 18.3717 4.77773 18.6342 5.18432C18.5157 5.37067 18.3632 5.54008 18.1938 5.68408Z" fill="#F5A73B"/>
<path d="M23.7165 9.91846H14.7377C14.1194 9.26622 13.2469 8.85963 12.2812 8.85963V5.68317H23.7165V9.91846Z" fill="#F7A80E"/>
<path d="M23.7165 18.3892H12.2812V15.6362C13.4417 15.6362 14.4751 15.0518 15.085 14.1539H23.7165V18.3892Z" fill="#F7A80E"/>
<path d="M24.1401 14.1538H15.0851C15.4493 13.6117 15.6696 12.951 15.6696 12.2479C15.6696 11.35 15.3138 10.5284 14.7378 9.91852H23.7166H24.1401V14.1538Z" fill="#F2DD40"/>
<path d="M12.2812 15.6362V8.85977C13.2469 8.85977 14.1194 9.26636 14.7377 9.91859C15.3137 10.5285 15.6695 11.3501 15.6695 12.248C15.6695 12.9511 15.4492 13.6118 15.085 14.1539C14.4751 15.0518 13.4417 15.6362 12.2812 15.6362Z" fill="#F5A73B"/>
<path d="M14.9137 9.49523H23.2929V6.107H1.26942V9.49523H9.6486C10.3612 8.8108 11.2889 8.43641 12.2812 8.43641C13.2734 8.43641 14.2011 8.8108 14.9137 9.49523ZM23.7165 10.3423H14.7376C14.6213 10.3423 14.51 10.294 14.4302 10.2101C13.297 9.0158 11.2654 9.0158 10.1321 10.2101C10.0523 10.294 9.94101 10.3423 9.82479 10.3423H0.845892C0.611765 10.3423 0.422363 10.1525 0.422363 9.91876V5.68347C0.422363 5.44968 0.611765 5.25994 0.845892 5.25994H23.7165C23.9506 5.25994 24.14 5.44968 24.14 5.68347V9.91876C24.14 10.1525 23.9506 10.3423 23.7165 10.3423Z" fill="#2C2D34"/>
<path d="M1.26942 17.9659H23.2929V14.5777H15.3008C14.5825 15.5103 13.4698 16.0601 12.2812 16.0601C11.0925 16.0601 9.97988 15.5103 9.2615 14.5777H1.26942V17.9659ZM23.7165 18.813H0.845892C0.611765 18.813 0.422363 18.6232 0.422363 18.3895V14.1542C0.422363 13.9204 0.611765 13.7306 0.845892 13.7306H9.47733C9.6176 13.7306 9.74872 13.8001 9.82767 13.9162C10.3794 14.7285 11.2964 15.213 12.2812 15.213C13.266 15.213 14.1829 14.7285 14.7347 13.9162C14.8136 13.8001 14.9447 13.7306 15.085 13.7306H23.7165C23.9506 13.7306 24.14 13.9204 24.14 14.1542V18.3895C24.14 18.6232 23.9506 18.813 23.7165 18.813Z" fill="#2C2D34"/>
<path d="M0.846081 13.7306H8.76946C8.57175 13.2622 8.4696 12.7599 8.4696 12.2482C8.4696 11.5731 8.64824 10.9183 8.98292 10.3423H0.846081V13.7306ZM9.47751 14.5776H0.422552C0.188426 14.5776 -0.000976562 14.3879 -0.000976562 14.1541V9.91882C-0.000976562 9.68503 0.188426 9.49529 0.422552 9.49529H9.82498C9.99413 9.49529 10.1472 9.59609 10.2138 9.7511C10.2808 9.90612 10.2489 10.0865 10.1327 10.2094C9.60661 10.7667 9.31666 11.491 9.31666 12.2482C9.31666 12.842 9.49369 13.4189 9.82913 13.9178C9.91637 14.0474 9.9251 14.2151 9.8514 14.3532C9.77779 14.4912 9.63388 14.5776 9.47751 14.5776" fill="#2C2D34"/>
<path d="M15.7934 13.7306H23.7168V10.3423H15.58C15.9146 10.9183 16.0933 11.5731 16.0933 12.2482C16.0933 12.7599 15.9911 13.2622 15.7934 13.7306ZM24.1403 14.5776H15.0854C14.929 14.5776 14.7851 14.4912 14.7115 14.3532C14.6378 14.2151 14.6465 14.0474 14.7337 13.9178C15.0692 13.4189 15.2462 12.842 15.2462 12.2482C15.2462 11.491 14.9563 10.7667 14.4302 10.2094C14.3139 10.0865 14.2821 9.90612 14.3491 9.7511C14.4157 9.59609 14.5687 9.49529 14.7379 9.49529H24.1403C24.3745 9.49529 24.5639 9.68503 24.5639 9.91882V14.1541C24.5639 14.3879 24.3745 14.5776 24.1403 14.5776" fill="#2C2D34"/>
<path d="M12.2815 9.2836C11.4621 9.2836 10.699 9.61311 10.1324 10.2103C9.60673 10.7668 9.31678 11.491 9.31678 12.2483C9.31678 12.8421 9.49382 13.4189 9.82925 13.9178C10.3798 14.7285 11.2967 15.213 12.2815 15.213C13.2663 15.213 14.1832 14.7285 14.735 13.9162C15.0692 13.4189 15.2462 12.8421 15.2462 12.2483C15.2462 11.491 14.9562 10.7668 14.4301 10.2094C13.864 9.6131 13.1008 9.2836 12.2815 9.2836ZM12.2815 16.0601C11.0159 16.0601 9.83713 15.4366 9.12738 14.3922C8.69682 13.751 8.46973 13.0107 8.46973 12.2483C8.46973 11.2733 8.84158 10.3433 9.51737 9.62835C10.2458 8.85922 11.2272 8.43654 12.2815 8.43654C13.3357 8.43654 14.3172 8.85922 15.0452 9.6275C15.7214 10.3433 16.0932 11.2733 16.0932 12.2483C16.0932 13.0107 15.8661 13.751 15.4369 14.3905C14.7258 15.4366 13.5471 16.0601 12.2815 16.0601Z" fill="#2C2D34"/>
<path d="M2.30084 5.25988H5.32382C5.4198 5.16501 5.50416 5.06166 5.57159 4.95578C5.80572 4.59324 5.92854 4.18665 5.92854 3.77753C5.92854 3.3684 5.80571 2.96181 5.57286 2.60096C5.18118 2.0131 4.52107 1.65988 3.81089 1.65988C2.64331 1.65988 1.69325 2.61028 1.69325 3.77753C1.69325 4.34421 1.90789 4.86515 2.30084 5.25988ZM5.48807 6.10693H2.13372C2.03114 6.10693 1.93229 6.06966 1.85538 6.0019C1.2139 5.44284 0.846191 4.63136 0.846191 3.77753C0.846191 2.1427 2.17633 0.812823 3.81089 0.812823C4.80517 0.812823 5.72838 1.30751 6.28091 2.13593C6.60559 2.63908 6.7756 3.20491 6.7756 3.77753C6.7756 4.35014 6.60559 4.91597 6.28422 5.41404C6.14691 5.62919 5.97072 5.8291 5.76226 6.00613C5.68577 6.07135 5.58853 6.10693 5.48807 6.10693Z" fill="#2C2D34"/>
<path d="M6.53314 5.25988H9.559C9.59339 5.22599 9.62642 5.19041 9.65743 5.15484C9.43372 4.72369 9.31666 4.25272 9.31666 3.77753C9.31666 3.30233 9.43329 2.83221 9.65666 2.4019C9.25584 1.93348 8.6706 1.65988 8.04607 1.65988C7.42153 1.65988 6.8363 1.93348 6.43547 2.4019C6.65884 2.83221 6.77548 3.30233 6.77548 3.77753C6.77548 4.25272 6.65842 4.72369 6.43471 5.15484C6.46571 5.19041 6.49875 5.22599 6.53314 5.25988V5.25988ZM9.72324 6.10693H6.36889C6.26843 6.10693 6.17119 6.07135 6.0947 6.00613C5.88624 5.8291 5.71005 5.6292 5.57148 5.4115C5.48211 5.27174 5.48296 5.09301 5.57274 4.95409C5.8056 4.59324 5.92842 4.18665 5.92842 3.77753C5.92842 3.3684 5.8056 2.96181 5.57274 2.60096C5.48092 2.4595 5.48253 2.27654 5.57605 2.13593C6.12858 1.30751 7.05179 0.812823 8.04607 0.812823C9.04034 0.812823 9.96355 1.30751 10.5161 2.13593C10.6096 2.27654 10.6112 2.4595 10.5194 2.60096C10.2865 2.96181 10.1637 3.3684 10.1637 3.77753C10.1637 4.18665 10.2865 4.59324 10.5194 4.95409C10.6092 5.09301 10.61 5.27174 10.5207 5.4115C10.3821 5.6292 10.2059 5.8291 9.99744 6.00613C9.92095 6.07135 9.8237 6.10693 9.72324 6.10693Z" fill="#2C2D34"/>
<path d="M10.7687 5.25988H13.7945C13.8905 5.16501 13.9749 5.06166 14.0423 4.95578C14.2764 4.59324 14.3992 4.18665 14.3992 3.77753C14.3992 3.3684 14.2764 2.96181 14.0436 2.60096C13.6519 2.0131 12.9918 1.65988 12.2816 1.65988C11.5714 1.65988 10.9113 2.01311 10.5163 2.60605C10.2868 2.96181 10.164 3.3684 10.164 3.77753C10.164 4.18665 10.2868 4.59324 10.5196 4.95409C10.5879 5.06082 10.6727 5.16501 10.7687 5.25988ZM13.9588 6.10693H10.6044C10.504 6.10693 10.4067 6.07135 10.3302 6.00613C10.1218 5.8291 9.94558 5.6292 9.807 5.4115C9.4869 4.91597 9.31689 4.35014 9.31689 3.77753C9.31689 3.20491 9.4869 2.63908 9.80827 2.14101C10.3641 1.3075 11.2873 0.812823 12.2816 0.812823C13.2759 0.812823 14.1991 1.30751 14.7516 2.13593C15.0763 2.63908 15.2463 3.20491 15.2463 3.77753C15.2463 4.35014 15.0763 4.91597 14.7549 5.41404C14.6176 5.62919 14.4414 5.8291 14.233 6.00613C14.1565 6.07135 14.0592 6.10693 13.9588 6.10693Z" fill="#2C2D34"/>
<path d="M15.0038 5.25988H18.0297C18.0641 5.22599 18.0971 5.19041 18.1281 5.15484C17.9044 4.72369 17.7874 4.25272 17.7874 3.77753C17.7874 3.30233 17.904 2.83221 18.1274 2.4019C17.7265 1.93348 17.1413 1.65988 16.5168 1.65988C15.8922 1.65988 15.307 1.93348 14.9062 2.4019C15.1295 2.83221 15.2462 3.30233 15.2462 3.77753C15.2462 4.25272 15.1291 4.72369 14.9054 5.15484C14.9364 5.19041 14.9695 5.22599 15.0038 5.25988V5.25988ZM18.1939 6.10693H14.8396C14.7391 6.10693 14.6419 6.07135 14.5654 6.00613C14.3569 5.8291 14.1808 5.6292 14.0422 5.4115C13.9528 5.27174 13.9537 5.09301 14.0434 4.95409C14.2763 4.59324 14.3991 4.18665 14.3991 3.77753C14.3991 3.3684 14.2763 2.96181 14.0434 2.60096C13.9516 2.4595 13.9532 2.27654 14.0468 2.13593C14.5993 1.30751 15.5225 0.812823 16.5168 0.812823C17.511 0.812823 18.4343 1.30751 18.9868 2.13593C19.0803 2.27654 19.0819 2.4595 18.9901 2.60096C18.7572 2.96181 18.6344 3.3684 18.6344 3.77753C18.6344 4.18665 18.7572 4.59324 18.9901 4.95409C19.0799 5.09301 19.0807 5.27174 18.9914 5.4115C18.8528 5.6292 18.6766 5.8291 18.4681 6.00613C18.3917 6.07135 18.2944 6.10693 18.1939 6.10693" fill="#2C2D34"/>
<path d="M19.2389 5.25988H22.2619C22.6548 4.86515 22.8695 4.34421 22.8695 3.77753C22.8695 2.61028 21.9194 1.65988 20.7518 1.65988C20.0416 1.65988 19.3815 2.01311 18.9865 2.60605C18.757 2.96181 18.6342 3.3684 18.6342 3.77753C18.6342 4.18665 18.757 4.59324 18.9898 4.95409C19.0581 5.06082 19.1429 5.16501 19.2389 5.25988ZM22.429 6.10693H19.0746C18.9742 6.10693 18.8769 6.07135 18.8004 6.00613C18.592 5.8291 18.4158 5.6292 18.2772 5.4115C17.9571 4.91597 17.7871 4.35014 17.7871 3.77753C17.7871 3.20491 17.9571 2.63908 18.2785 2.14101C18.8343 1.3075 19.7575 0.812823 20.7518 0.812823C22.3864 0.812823 23.7165 2.1427 23.7165 3.77753C23.7165 4.63136 23.3488 5.44284 22.7073 6.0019C22.6304 6.06966 22.5316 6.10693 22.429 6.10693Z" fill="#2C2D34"/>
</svg>
