<svg width="109" height="140" viewBox="0 0 109 140" fill="none" xmlns="http://www.w3.org/2000/svg">
<g clip-path="url(#clip0_2064_3397)">
<path d="M86.4584 130.842C86.4584 133.281 70.5514 135.258 50.9287 135.258C31.306 135.258 15.3989 133.281 15.3989 130.842C15.3989 128.404 31.306 126.427 50.9287 126.427C70.5514 126.427 86.4584 128.404 86.4584 130.842Z" fill="#60827F"/>
<path d="M92.8209 81.6187C91.6707 82.451 90.338 83.1718 88.9182 83.1194C86.5727 83.0328 84.8459 80.9328 83.6805 78.8996C81.223 74.6122 79.7707 69.7546 79.4722 64.8242C87.7214 61.894 94.6574 55.4654 98.1953 47.4718C100.502 49.556 100.78 53.5004 98.7885 55.8868C100.022 54.7932 102.12 56.2657 102.194 57.9105C102.268 59.5558 101.133 60.9801 100.061 62.2324C101.682 64.2793 101.742 67.4108 100.202 69.5186C99.4752 74.3121 96.7543 78.7733 92.8209 81.6187Z" fill="#F2591D"/>
<path d="M79.8641 65.0796C80.1962 69.8521 81.6255 74.5605 84.0055 78.7132C85.5018 81.3229 87.1596 82.6794 88.9319 82.7448C90.0419 82.787 91.1945 82.3325 92.6009 81.3152C96.4797 78.5091 99.1149 74.1887 99.8312 69.462C99.84 69.4022 99.8636 69.3459 99.8988 69.2974C101.344 67.3208 101.288 64.3824 99.7666 62.4632C99.656 62.3232 99.6595 62.1244 99.7758 61.9886C100.889 60.6864 101.883 59.3961 101.82 57.9261C101.774 56.914 100.748 55.8826 99.7861 55.8826C99.5009 55.8826 99.2489 55.9776 99.0377 56.1651C98.8907 56.2956 98.6687 56.2903 98.528 56.1545C98.3874 56.0181 98.3754 55.7968 98.5009 55.6466C100.265 53.5346 100.139 50.146 98.3126 48.118C94.725 55.8489 87.8786 62.1487 79.8641 65.0796ZM89.0644 83.4951C89.0109 83.4951 88.9576 83.4941 88.9044 83.492C86.8554 83.4167 84.9882 81.9336 83.3552 79.0846C80.8719 74.7515 79.3999 69.8278 79.0978 64.8457C79.088 64.6797 79.1891 64.5267 79.3467 64.4711C87.4564 61.5901 94.3743 55.1784 97.8523 47.3199C97.9006 47.2101 97.9993 47.1302 98.1167 47.1053C98.2362 47.0799 98.357 47.1134 98.4462 47.1936C100.604 49.1427 101.094 52.6017 99.742 55.1355C101.133 55.1031 102.504 56.4599 102.567 57.893C102.641 59.5372 101.633 60.946 100.54 62.2461C102.06 64.393 102.077 67.5097 100.558 69.6628C99.7924 74.5517 97.0567 79.0153 93.0408 81.9209C91.5558 82.9949 90.2925 83.4951 89.0644 83.4951Z" fill="#292625"/>
<path d="M92.0792 76.6315C92.2995 77.3709 91.9788 78.1645 91.5547 78.8093C91.1282 79.4573 90.5568 80.0542 89.8163 80.2878C88.6777 80.6466 87.3982 80.0254 86.6996 79.0594C86.0009 78.0935 85.7849 76.8602 85.7468 75.6698C85.727 75.0528 85.7542 74.4136 86.021 73.8571C86.0838 73.7259 86.1652 73.595 86.2924 73.5247C86.4119 73.4589 86.5543 73.4554 86.69 73.4427C87.8462 73.3347 88.811 72.4662 89.3887 71.4612C90.5082 69.5145 90.3876 66.9251 89.0923 65.0907C91.4338 63.5946 93.369 61.4713 94.6401 59.0033C94.8699 58.5565 95.0912 58.0831 95.4843 57.7696C96.4399 59.8219 96.1159 62.406 94.683 64.1602C96.1913 64.4631 97.1981 66.0679 97.1653 67.6026C97.1328 69.1378 96.2559 70.5512 95.1374 71.6054C95.8516 72.6192 95.8999 74.0573 95.2552 75.1164C94.6108 76.1756 93.3101 76.7961 92.0792 76.6315Z" fill="#D34B20"/>
<path d="M14.2952 81.6187C15.4454 82.451 16.7782 83.1718 18.198 83.1194C20.5434 83.0328 22.2703 80.9328 23.4356 78.8996C25.8932 74.6122 27.3454 69.7546 27.644 64.8242C19.3947 61.894 12.4584 55.4654 8.92085 47.4718C6.61347 49.556 6.33535 53.5004 8.32761 55.8868C7.0939 54.7932 4.99626 56.2657 4.9233 57.9105C4.84998 59.5558 5.98428 60.9801 7.05549 62.2324C5.4351 64.2793 5.37448 67.4108 6.91485 69.5186C7.64098 74.3121 10.3618 78.7733 14.2952 81.6187Z" fill="#F2591D"/>
<path d="M7.33064 55.8826C6.36835 55.8826 5.3426 56.914 5.29748 57.9261C5.23262 59.3961 6.22664 60.6864 7.3405 61.9886C7.45647 62.1244 7.46034 62.3232 7.34966 62.4632C5.83008 64.3828 5.77334 67.3208 7.21784 69.2974C7.25309 69.3459 7.27636 69.4022 7.28517 69.462C8.00142 74.1887 10.6366 78.5091 14.5154 81.3152C15.8658 82.2921 16.9895 82.7473 18.0519 82.7473C18.109 82.7571 18.14 82.7465 18.1845 82.7448C19.9568 82.6794 21.6142 81.3229 23.1105 78.7132C25.4905 74.5605 26.9202 69.8521 27.2519 65.0796C19.2377 62.1483 12.3909 55.8485 8.80367 48.118C6.97708 50.146 6.85266 53.5349 8.61545 55.6462C8.74129 55.7968 8.7293 56.0181 8.58831 56.1545C8.44837 56.2903 8.22596 56.2953 8.07897 56.1654C7.86713 55.978 7.61545 55.8826 7.33064 55.8826ZM18.0526 83.4951C18.0523 83.4951 18.0523 83.4951 18.0519 83.4951C16.8238 83.4951 15.5602 82.9949 14.0755 81.9209C10.0596 79.0153 7.32358 74.5517 6.55797 69.6628C5.03769 67.51 5.05673 64.3933 6.57701 62.2461C5.48218 60.946 4.47619 59.5372 4.54915 57.893C4.6126 56.4602 5.99012 55.1066 7.37434 55.1355C6.02255 52.6017 6.51181 49.1427 8.67009 47.1936C8.75892 47.1134 8.87982 47.0799 8.99931 47.1053C9.11669 47.1302 9.21573 47.2101 9.26402 47.3199C12.7417 55.1784 19.6596 61.5901 27.7697 64.4711C27.9272 64.5267 28.0284 64.6797 28.0182 64.8457C27.7164 69.8278 26.2444 74.7515 23.7612 79.0846C22.1277 81.9336 20.2606 83.4167 18.2119 83.492C18.1587 83.4941 18.1055 83.4951 18.0526 83.4951Z" fill="#292625"/>
<path d="M14.8412 76.6315C14.6209 77.3709 14.9417 78.1645 15.3661 78.8093C15.7922 79.4573 16.364 80.0542 17.1045 80.2878C18.2427 80.6466 19.5226 80.0254 20.2212 79.0594C20.9199 78.0935 21.1356 76.8602 21.174 75.6698C21.1938 75.0528 21.1663 74.4136 20.8998 73.8571C20.8367 73.7259 20.7556 73.595 20.628 73.5247C20.5089 73.4589 20.3665 73.4554 20.2304 73.4427C19.0746 73.3347 18.1095 72.4662 17.5318 71.4612C16.4126 69.5145 16.5332 66.9251 17.8285 65.0907C15.4866 63.5946 13.5515 61.4713 12.2804 59.0033C12.0506 58.5565 11.8292 58.0831 11.4362 57.7696C10.4806 59.8219 10.8049 62.406 12.2377 64.1602C10.7294 64.4631 9.72273 66.0679 9.75516 67.6026C9.78794 69.1378 10.6649 70.5512 11.7834 71.6054C11.0692 72.6192 11.0209 74.0573 11.6653 75.1164C12.3096 76.1756 13.6107 76.7961 14.8412 76.6315Z" fill="#D34B20"/>
<path d="M10.7305 71.8323C12.8979 72.8869 15.0657 73.9415 17.2335 74.9961C18.7602 63.597 23.1204 52.587 29.8152 43.2264C30.7631 47.0216 31.7113 50.8165 32.6591 54.6118C47.1904 51.1391 61.9537 48.632 76.8181 47.1124C73.5731 33.8605 65.7729 22.1216 56.702 11.9164C53.721 8.56303 50.3092 5.18148 45.9123 4.26512C41.6063 3.36775 37.068 5.08192 33.6884 7.8915C30.3084 10.7011 27.9153 14.5005 25.7909 18.3443C16.7482 34.7048 11.55 53.166 10.7305 71.8323Z" fill="#F2591D"/>
<path d="M11.1151 71.6037L16.9322 74.4337C18.5294 63.1447 22.8727 52.2898 29.5101 43.0091C29.595 42.8906 29.7402 42.8311 29.8848 42.8592C30.0282 42.8863 30.1431 42.9943 30.1784 43.1361L32.9324 54.1619C47.1789 50.7744 61.7814 48.293 76.3501 46.7846C73.4537 35.3184 66.9313 23.9889 56.4211 12.1645C53.6097 9.00108 50.2406 5.54954 45.8355 4.63142C45.0974 4.4777 44.3304 4.39957 43.5542 4.39957C40.3258 4.39957 36.8171 5.77712 33.9278 8.179C30.5284 11.0048 28.1657 14.8215 26.1188 18.5249C17.1525 34.7471 11.9667 53.0961 11.1151 71.6037ZM17.2333 75.3701C17.1769 75.3701 17.1208 75.3575 17.069 75.3321L10.5659 72.1687C10.4316 72.1032 10.3492 71.965 10.3558 71.8162C11.1775 53.1105 16.401 34.5578 25.4624 18.164C27.5449 14.3962 29.9538 10.5095 33.4481 7.60422C36.4699 5.09223 40.1534 3.65172 43.5542 3.65172C44.3815 3.65172 45.2004 3.7351 45.9889 3.89902C50.3982 4.8182 53.8783 8.1762 56.9816 11.6682C67.7018 23.729 74.3092 35.2941 77.1816 47.0235C77.2073 47.1287 77.1866 47.2398 77.1238 47.3281C77.0614 47.4164 76.9638 47.4734 76.8559 47.4847C62.0549 48.9976 47.2138 51.5177 32.7459 54.9752C32.5446 55.0234 32.3448 54.9014 32.2951 54.7023L29.6493 44.1098C23.2495 53.2843 19.0891 63.9629 17.6044 75.0454C17.5886 75.1647 17.5163 75.2688 17.4102 75.3258C17.3549 75.3554 17.2939 75.3701 17.2333 75.3701Z" fill="#292625"/>
<path d="M12.4647 56.1073C12.146 57.9111 11.8658 59.7217 11.6289 61.5379C14.4146 61.7377 17.0213 62.9316 19.476 64.4766C19.9459 62.8799 20.4753 61.3004 21.0558 59.74C18.5821 57.5252 15.655 55.9447 12.4647 56.1073Z" fill="white"/>
<path d="M12.051 61.1999C14.3154 61.4349 16.626 62.3013 19.2566 63.9012C19.6602 62.5651 20.1163 61.2059 20.6154 59.8505C18.0021 57.5672 15.3729 56.4303 12.7814 56.4707C12.5043 58.0604 12.259 59.6476 12.051 61.1999ZM19.4758 64.8506C19.4061 64.8506 19.3363 64.8313 19.276 64.7929C16.4233 62.9975 13.9848 62.0818 11.6016 61.9109C11.4987 61.9038 11.4035 61.8542 11.3383 61.7747C11.2727 61.6949 11.2435 61.5918 11.2572 61.4898C11.4899 59.7074 11.7719 57.8747 12.0955 56.0426C12.1258 55.871 12.2713 55.7429 12.4455 55.7341C12.6034 55.7261 12.7595 55.7222 12.9164 55.7222C15.7113 55.7222 18.534 56.9805 21.306 59.4618C21.4209 59.5645 21.4607 59.7264 21.4068 59.8706C20.8195 61.4486 20.2908 63.0337 19.835 64.5822C19.8023 64.6944 19.718 64.7852 19.6084 64.8263C19.5654 64.8428 19.5206 64.8506 19.4758 64.8506Z" fill="#292625"/>
<path d="M16.1948 40.8349C15.4606 43.184 14.7937 45.5542 14.2012 47.9431C17.6182 49.2102 21.2153 50.8083 23.8815 53.1729C24.823 51.2536 25.8537 49.378 26.9644 47.5516C24.3095 43.8928 20.5453 41.1163 16.1948 40.8349Z" fill="white"/>
<path d="M14.646 47.71C17.5191 48.7888 21.039 50.3004 23.7599 52.5746C24.6013 50.8903 25.5262 49.2102 26.5149 47.5717C23.7204 43.8109 20.1691 41.5719 16.4644 41.2314C15.7937 43.3959 15.1825 45.5723 14.646 47.71ZM23.8818 53.5469C23.7909 53.5469 23.7021 53.5142 23.633 53.4526C20.8624 50.9958 17.0676 49.4051 14.0711 48.2939C13.8923 48.2278 13.7919 48.0382 13.8377 47.8535C14.4204 45.504 15.0933 43.1053 15.8377 40.7238C15.8888 40.5592 16.0527 40.4452 16.2195 40.4621C20.3214 40.7277 24.2453 43.1676 27.2682 47.3325C27.3563 47.4542 27.3634 47.6171 27.2851 47.7458C26.1737 49.5733 25.142 51.4545 24.2185 53.3376C24.167 53.4424 24.069 53.5173 23.9541 53.5398C23.9305 53.5448 23.9058 53.5469 23.8818 53.5469Z" fill="#292625"/>
<path d="M30.3652 45.4287C32.2672 35.9162 36.4174 27.485 41.7361 19.0555C45.009 14.2419 49.1666 11.1059 53.7983 8.87387C51.518 6.70873 48.9505 4.89819 45.912 4.265C44.317 3.93258 42.6907 3.96001 41.1027 4.2671C31.3226 14.6693 29.2143 29.5502 29.9852 43.9087C30.1118 44.4152 30.2383 44.9222 30.3652 45.4287Z" fill="white"/>
<path d="M41.2932 4.6129C33.0221 13.4694 29.4422 26.2615 30.351 43.7124C32.1645 35.7927 35.6213 28.0475 41.4194 18.8571C44.3423 14.5581 48.1802 11.2603 53.1464 8.77821C50.6218 6.46462 48.288 5.14304 45.8361 4.63227C44.3962 4.33222 42.854 4.32586 41.2932 4.6129ZM30.3658 45.8037C30.1937 45.8037 30.0436 45.6873 30.002 45.5205L29.6224 44.0002C29.6167 43.977 29.6132 43.9534 29.6118 43.9298C28.6685 26.3632 32.4426 12.933 40.8301 4.01245C40.884 3.95512 40.9548 3.91642 41.032 3.90129C42.7303 3.57273 44.4159 3.57203 45.9894 3.89988C48.7107 4.46729 51.2743 5.96158 54.0568 8.60408C54.146 8.6885 54.188 8.81165 54.1689 8.93266C54.1499 9.05402 54.0723 9.15813 53.9617 9.2116C48.8791 11.661 44.9813 14.9497 42.0465 19.2662C35.9055 29.0004 32.4144 37.0953 30.733 45.5029C30.6989 45.6746 30.5498 45.7995 30.3746 45.8037C30.3714 45.8037 30.3682 45.8037 30.3658 45.8037Z" fill="#292625"/>
<path d="M51.8141 27.7719C57.4782 25.484 63.0334 25.737 68.3503 27.3998C66.2608 23.9904 63.9344 20.7095 61.444 17.5615C58.9139 18.0494 56.468 18.8578 54.1655 20.0615C43.4812 25.3929 34.5615 35.125 30.7046 46.7875C30.8368 47.3162 30.9689 47.8453 31.1008 48.374C35.6479 39.432 42.7022 31.2921 51.8141 27.7719Z" fill="white"/>
<path d="M31.0949 46.8024L31.2246 47.323C36.3833 37.5847 43.6185 30.5373 51.6788 27.4235C54.4585 26.3006 57.3739 25.7304 60.3384 25.7304C62.6475 25.7304 65.0571 26.0772 67.5143 26.7625C65.6793 23.8414 63.5894 20.8897 61.2918 17.9728C58.7881 18.4758 56.4501 19.2895 54.3394 20.393C43.488 25.8074 34.808 35.6735 31.0949 46.8024ZM31.1009 48.748C31.0871 48.748 31.073 48.7473 31.0589 48.7456C30.9035 48.728 30.7755 48.6161 30.7375 48.4645L30.3413 46.8781C30.324 46.8098 30.3268 46.7377 30.349 46.6705C34.1044 35.3147 42.9452 25.2425 53.9978 19.7271C56.2298 18.5606 58.7134 17.7072 61.3733 17.1947C61.5097 17.1673 61.6517 17.2204 61.7381 17.3298C64.3155 20.5875 66.6363 23.8917 68.6373 27.1508C68.6962 27.217 68.7322 27.3042 68.7322 27.3999C68.7322 27.6064 68.5647 27.7738 68.3575 27.7738C68.355 27.7738 68.3525 27.7738 68.3504 27.7738C68.3131 27.7738 68.2753 27.7682 68.2383 27.7566C65.5259 26.9081 62.8678 26.4782 60.3384 26.4782C57.4705 26.4782 54.6499 27.0302 51.9548 28.1189C43.8204 31.2609 36.5348 38.514 31.4354 48.5433C31.3709 48.67 31.2412 48.748 31.1009 48.748Z" fill="#292625"/>
<path d="M20.6904 28.7467C24.4924 33.5231 26.5153 39.5031 28.2171 45.5684C28.3641 45.3436 28.515 45.1213 28.6644 44.8982C27.8674 36.9999 27.1332 29.1362 23.9379 21.8552C22.7856 24.1189 21.6993 26.4159 20.6904 28.7467Z" fill="white"/>
<path d="M21.1229 28.6909C24.4493 32.9403 26.4162 38.0019 28.2174 44.2053C27.4909 36.9906 26.7228 29.5471 23.9086 22.7432C22.9089 24.7384 21.9738 26.7347 21.1229 28.6909ZM28.2167 45.9424C28.1976 45.9424 28.1786 45.941 28.1596 45.9382C28.0143 45.9156 27.8956 45.8105 27.8557 45.6691C25.9519 38.8848 23.9551 33.4503 20.3967 28.9797C20.3107 28.8717 20.2913 28.7254 20.3463 28.5987C21.3284 26.3288 22.4242 24.0032 23.6033 21.6858C23.6689 21.557 23.813 21.48 23.948 21.4814C24.0933 21.4856 24.2226 21.5725 24.2808 21.7051C27.4271 28.8742 28.2177 36.7267 28.9823 44.3204L29.0366 44.861C29.045 44.9472 29.0239 45.0338 28.9756 45.1059L28.8335 45.3173C28.732 45.4689 28.6301 45.6202 28.53 45.7728C28.4606 45.8798 28.3418 45.9424 28.2167 45.9424Z" fill="#292625"/>
<path d="M29.3677 41.1182C29.3624 41.1182 29.3571 41.1182 29.3518 41.1178C29.1453 41.1094 28.9845 40.9349 28.993 40.7287C29.299 33.4309 32.133 26.3938 36.9723 20.9139C37.1098 20.7584 37.3463 20.744 37.5014 20.8805C37.6565 21.017 37.6712 21.2534 37.5345 21.4081C32.808 26.7603 30.0409 33.6329 29.742 40.7601C29.7336 40.9609 29.5676 41.1182 29.3677 41.1182Z" fill="#292625"/>
<path d="M77.8111 53.4063C62.5078 49.9874 47.4544 49.9878 32.1515 53.4063C30.6898 53.7616 29.1952 52.9321 28.8046 51.5071C27.6936 47.4547 26.5829 43.4023 25.4719 39.3499C25.0813 37.9249 26.162 36.3834 27.8963 35.962C46.005 31.8762 63.9572 31.8762 82.066 35.962C83.8002 36.3834 84.881 37.9249 84.4904 39.3499C83.3794 43.4023 82.2687 47.4547 81.158 51.5071C80.7671 52.9321 79.2725 53.7616 77.8111 53.4063Z" fill="#F2591D"/>
<path d="M54.9817 50.4684C62.5425 50.4684 70.2511 51.3341 77.8934 53.0416C79.1909 53.3554 80.4712 52.5973 80.7969 51.4084L84.1297 39.2516C84.2699 38.7387 84.1839 38.179 83.8868 37.676C83.4983 37.0182 82.8025 36.5261 81.9781 36.3255C72.9988 34.2997 63.9137 33.2718 54.9813 33.2718C46.0493 33.2718 36.9643 34.2997 27.9793 36.327C27.1609 36.5261 26.465 37.0178 26.077 37.6756C25.7798 38.179 25.6934 38.7387 25.8341 39.2516L29.1665 51.4084C29.4418 52.413 30.3893 53.1145 31.47 53.1145C31.6692 53.1145 31.8687 53.0905 32.0636 53.0434C39.713 51.3341 47.4215 50.4684 54.9817 50.4684ZM78.4934 53.8623C78.235 53.8623 77.9759 53.8314 77.7232 53.7698C70.1408 52.076 62.4872 51.2163 54.9817 51.2163C47.4765 51.2163 39.8233 52.076 32.2339 53.7715C31.9878 53.8313 31.7288 53.8623 31.47 53.8623C30.0527 53.8623 28.808 52.9347 28.4436 51.6057L25.1111 39.4489C24.9169 38.7394 25.0304 37.975 25.4312 37.2961C25.9219 36.4652 26.7879 35.8468 27.8084 35.5988C36.8532 33.5578 45.9936 32.524 54.9813 32.524C63.9694 32.524 73.1098 33.5578 82.1494 35.5977C83.1754 35.8468 84.0419 36.4652 84.5322 37.2961C84.9333 37.975 85.0468 38.7397 84.8526 39.4489L81.5198 51.6057C81.1557 52.9343 79.9111 53.8623 78.4934 53.8623Z" fill="#292625"/>
<path d="M33.7835 49.29C33.9731 50.1645 33.3908 51.0309 32.4856 51.2427C31.5804 51.4544 30.6713 50.937 30.4517 50.0695C29.6104 46.7446 28.7686 43.4197 27.9272 40.0944C27.7076 39.2269 28.3615 38.3127 29.3911 38.0717C30.4207 37.8308 31.4119 38.3602 31.6019 39.2347C32.3291 42.5863 33.0563 45.9383 33.7835 49.29Z" fill="#F8E298"/>
<path d="M39.464 48.2327C39.6029 49.1163 38.9734 49.9476 38.0601 50.1062C37.1471 50.2652 36.2716 49.6957 36.1027 48.8173C35.4552 45.4491 34.8073 42.0813 34.1598 38.7131C33.991 37.8347 34.6938 36.9599 35.7326 36.7791C36.7714 36.5983 37.7284 37.1847 37.8673 38.0683C38.3995 41.4566 38.9318 44.8445 39.464 48.2327Z" fill="#F8E298"/>
<path d="M45.1835 47.5051C45.2713 48.3954 44.5962 49.189 43.677 49.2949C42.758 49.4007 41.9188 48.7816 41.801 47.8948C41.3488 44.4953 40.8965 41.0955 40.4443 37.696C40.3266 36.8092 41.0767 35.9765 42.1222 35.8559C43.1676 35.7356 44.0876 36.3758 44.1751 37.2661C44.5113 40.679 44.8472 44.0922 45.1835 47.5051Z" fill="#F8E298"/>
<path d="M50.927 47.1081C50.9633 48.002 50.2445 48.7555 49.3221 48.8086C48.3996 48.8614 47.5984 48.1951 47.5318 47.303C47.2762 43.8831 47.0207 40.4632 46.7651 37.0433C46.6985 36.1512 47.4941 35.3629 48.5434 35.3028C49.5928 35.2426 50.4737 35.9345 50.51 36.8284C50.6488 40.255 50.7881 43.6816 50.927 47.1081Z" fill="#F8E298"/>
<path d="M56.6814 47.04C56.6662 47.9346 55.9052 48.6455 54.9817 48.6455C54.0581 48.6455 53.2971 47.9346 53.282 47.04C53.2235 43.6113 53.1653 40.1823 53.1071 36.7532C53.0916 35.8587 53.9309 35.1175 54.9817 35.1175C56.0324 35.1175 56.8717 35.8587 56.8566 36.7532C56.7981 40.1823 56.7399 43.6113 56.6814 47.04Z" fill="#F8E298"/>
<path d="M62.4312 47.303C62.3645 48.1951 61.5633 48.8614 60.6409 48.8086C59.7184 48.7555 58.9997 48.002 59.036 47.1081C59.1749 43.6816 59.3141 40.255 59.4533 36.8284C59.4893 35.9345 60.3702 35.2426 61.4195 35.3028C62.4689 35.3629 63.2648 36.1512 63.1978 37.0433C62.9423 40.4632 62.6867 43.8831 62.4312 47.303Z" fill="#F8E298"/>
<path d="M68.1625 47.8948C68.0444 48.7816 67.2051 49.4007 66.2862 49.2949C65.3672 49.189 64.6919 48.3954 64.7796 47.5051C65.1159 44.0922 65.4518 40.679 65.7881 37.2661C65.8759 36.3758 66.7955 35.7356 67.841 35.8559C68.8865 35.9765 69.6366 36.8092 69.5189 37.696C69.0666 41.0955 68.6144 44.4953 68.1625 47.8948Z" fill="#F8E298"/>
<path d="M73.86 48.8173C73.6912 49.6957 72.816 50.2652 71.9027 50.1062C70.9894 49.9476 70.3598 49.1163 70.4987 48.2327C71.0309 44.8445 71.5632 41.4566 72.0955 38.0683C72.2343 37.1847 73.1914 36.5983 74.2301 36.7791C75.2689 36.9599 75.9718 37.8347 75.8029 38.7131C75.1554 42.0813 74.5076 45.4491 73.86 48.8173Z" fill="#F8E298"/>
<path d="M79.5117 50.0695C79.2921 50.937 78.3826 51.4544 77.4778 51.2427C76.5726 51.0309 75.99 50.1645 76.18 49.29C76.9068 45.9383 77.634 42.5863 78.3612 39.2347C78.5512 38.3602 79.5423 37.8308 80.572 38.0717C81.6016 38.3127 82.2554 39.2269 82.0358 40.0944C81.1945 43.4197 80.3531 46.7446 79.5117 50.0695Z" fill="#F8E298"/>
<path d="M88.9505 80.6433C88.2331 71.3625 85.936 61.723 79.6166 54.8761C74.5182 49.352 66.994 46.1414 59.4697 46.2793C57.793 46.3099 56.063 46.5459 54.439 47.0345C52.8151 46.5459 51.0851 46.3099 49.4083 46.2793C41.8841 46.1414 34.3599 49.352 29.2615 54.8761C22.9424 61.723 20.6449 71.3625 19.9276 80.6433C19.3992 87.4799 19.6188 94.4893 21.8134 100.987C24.0084 107.484 28.3669 113.457 34.5146 116.519C34.7762 116.031 35.0377 115.544 35.2993 115.056C35.736 117.55 37.5605 119.754 39.9317 120.653C42.3029 121.552 45.134 121.113 47.12 119.538C49.4714 120.104 52.0167 120.63 54.439 120.617C56.8613 120.63 59.4066 120.104 61.7584 119.538C63.744 121.113 66.5756 121.552 68.9464 120.653C71.3176 119.754 73.1421 117.55 73.5788 115.056C73.8404 115.544 74.1019 116.031 74.3634 116.519C80.5115 113.457 84.8697 107.484 87.0646 100.987C89.2592 94.4893 89.4792 87.4799 88.9505 80.6433Z" fill="#F2591D"/>
<path d="M61.7579 119.164C61.8414 119.164 61.9243 119.193 61.9909 119.246C63.2063 120.21 64.766 120.74 66.3822 120.74C67.231 120.74 68.0495 120.594 68.8133 120.304C71.0685 119.449 72.7943 117.363 73.2095 114.991C73.237 114.834 73.3615 114.712 73.519 114.687C73.6794 114.661 73.8338 114.739 73.9092 114.879L74.5204 116.019C79.9794 113.175 84.4102 107.674 86.7095 100.867C88.6129 95.2322 89.2062 88.8152 88.577 80.6721C87.6943 69.2625 84.6735 60.9072 79.3407 55.1294C74.3361 49.7069 66.8796 46.5139 59.4762 46.6532C57.7543 46.6849 56.0501 46.9402 54.5471 47.3926C54.4769 47.4137 54.4011 47.4137 54.331 47.3926C52.8276 46.9402 51.123 46.6849 49.4011 46.6532C42.0136 46.51 34.5412 49.7069 29.537 55.1294C24.2038 60.9079 21.183 69.2628 20.3011 80.6721C19.6715 88.8142 20.2648 95.2312 22.1685 100.867C24.4675 107.674 28.8979 113.175 34.3576 116.019L34.9684 114.879C35.0442 114.739 35.1993 114.66 35.3586 114.687C35.5162 114.712 35.6403 114.834 35.6678 114.991C36.0834 117.363 37.8095 119.448 40.0647 120.304C40.8286 120.594 41.6467 120.74 42.4958 120.74C44.112 120.74 45.671 120.21 46.8868 119.246C46.9767 119.174 47.0951 119.148 47.2075 119.175C49.5142 119.73 51.976 120.243 54.3493 120.243H54.4371H54.5287C56.9017 120.243 59.3634 119.73 61.6701 119.175C61.699 119.168 61.7286 119.164 61.7579 119.164ZM66.3822 121.488C64.661 121.488 62.9958 120.941 61.6708 119.944C59.3698 120.493 56.9193 120.991 54.5287 120.991H54.4371H54.3493C51.9584 120.991 49.5079 120.493 47.2068 119.944C45.8818 120.941 44.2167 121.488 42.4958 121.488C41.5554 121.488 40.6477 121.325 39.7982 121.003C37.6138 120.174 35.8779 118.304 35.169 116.09L34.8451 116.695C34.7495 116.874 34.5292 116.944 34.347 116.853C28.563 113.973 23.8654 108.233 21.4586 101.106C19.5214 95.3715 18.9161 88.8602 19.5541 80.6144C20.4495 69.0314 23.5344 60.5294 28.9853 54.6229C34.1323 49.0459 41.8053 45.7671 49.4148 45.9053C51.1892 45.938 52.8787 46.1864 54.4388 46.6444C55.9989 46.1864 57.6884 45.938 59.4625 45.9053C67.0805 45.7621 74.745 49.0456 79.892 54.6229C85.3429 60.5291 88.4282 69.031 89.3239 80.6144C89.9615 88.8613 89.3563 95.3726 87.4194 101.106C85.0122 108.233 80.3146 113.973 74.5307 116.853C74.3495 116.944 74.1292 116.874 74.0329 116.695L73.7083 116.09C73.0002 118.304 71.2641 120.174 69.0798 121.003C68.2299 121.325 67.3226 121.488 66.3822 121.488Z" fill="#292625"/>
<path d="M86.2827 90.1392C85.8435 89.0181 84.7885 88.2534 83.5805 88.1947C83.5808 88.213 84.5618 87.9087 84.6746 87.8513C85.0902 87.6403 85.4505 87.3318 85.7289 86.9592C86.2333 86.2853 86.4261 85.4283 86.3211 84.5989C86.1191 82.9997 84.7039 81.7538 83.0754 81.8357C83.0743 81.828 83.0733 81.8199 83.0722 81.8121C84.7881 81.4618 85.7723 79.7332 85.3517 78.0648C85.1621 77.3127 84.7448 76.6506 84.1053 76.1997C83.7402 75.9422 83.3165 75.7758 82.8745 75.7096C82.7356 75.6889 81.5674 75.7382 81.5812 75.7751C83.1635 75.0455 83.7469 73.1315 82.9435 71.6045C82.1434 70.0845 80.3172 69.3929 78.7634 70.2555C78.7729 70.2692 79.4363 69.4953 79.5011 69.3862C79.7154 69.025 79.8416 68.6236 79.886 68.2068C79.9756 67.3667 79.6799 66.5049 79.1303 65.8675C78.0098 64.5677 76.0788 64.3025 74.7584 65.4781C74.7626 65.4823 75.2184 64.6539 75.2582 64.5396C75.4045 64.1231 75.4475 63.6823 75.3978 63.2444C75.3026 62.4103 74.8367 61.6519 74.1761 61.1415C72.8152 60.0781 70.8321 60.2592 69.7993 61.6825C69.8113 61.6895 70.0784 60.7134 70.0904 60.5864C70.1327 60.134 70.0633 59.6788 69.8983 59.256C69.6079 58.5124 69.0129 57.9161 68.2945 57.5759C66.7358 56.8284 64.8394 57.431 64.1369 59.039C64.1408 59.0404 64.2046 58.1018 64.1926 57.9808C64.1496 57.5446 64.0044 57.1303 63.7777 56.756C63.366 56.0774 62.6787 55.5965 61.9169 55.3879C60.1982 54.9176 58.386 55.898 58.0388 57.6822C58.0508 57.6836 57.8809 56.6874 57.8376 56.5664C57.6973 56.1738 57.4721 55.821 57.1788 55.5244C56.5863 54.925 55.742 54.5806 54.8957 54.5993C54.0367 54.6179 53.2246 54.9162 52.6172 55.5346C52.325 55.8319 52.1022 56.19 51.9641 56.5829C51.9214 56.7039 51.7565 57.6998 51.7684 57.6983C51.4219 55.9669 49.7303 55.0291 48.0486 55.3788C47.2686 55.5409 46.5555 56.0172 46.1085 56.6736C45.8614 57.0363 45.6961 57.4451 45.6337 57.8799C45.6147 58.0132 45.6577 59.0931 45.6774 59.0864C44.9647 57.4775 43.1074 56.9199 41.5427 57.6269C40.7771 57.9727 40.1663 58.632 39.8854 59.4206C39.7518 59.7956 39.695 60.191 39.7246 60.5881C39.7349 60.7222 40.0094 61.7694 40.0281 61.7581C38.9858 60.3363 37.0492 60.1907 35.6745 61.2154C35.0009 61.7173 34.5459 62.4919 34.4412 63.3232C34.3915 63.7185 34.4214 64.1174 34.5367 64.4995C34.5755 64.6282 35.0721 65.5938 35.0887 65.578C33.7609 64.4084 31.8366 64.6866 30.7161 65.9871C29.5916 67.2929 29.7538 69.2955 31.1218 70.3543C31.1264 70.3476 30.2261 70.0497 30.107 70.031C29.6628 69.961 29.2021 69.993 28.7746 70.1334C27.955 70.4025 27.3294 70.9903 26.9325 71.7449C26.1291 73.2729 26.7418 75.1908 28.3202 75.9098C28.334 75.8732 27.1637 75.8289 27.0248 75.8504C26.5824 75.9182 26.1598 76.0868 25.796 76.3471C25.1595 76.8022 24.7488 77.4667 24.5592 78.2185C24.3406 79.0856 24.4908 80.0322 25.0104 80.7663C25.2366 81.0886 25.5289 81.3629 25.8648 81.5691C25.9681 81.632 26.8556 81.9915 26.857 81.9813C25.3269 81.9071 23.9599 83.011 23.6593 84.4997C23.2934 86.3088 24.488 88.1296 26.3699 88.3157C26.3702 88.2963 25.3783 88.5528 25.2631 88.6041C24.8796 88.7758 24.5317 89.028 24.25 89.3393C23.6861 89.9627 23.4242 90.8055 23.4675 91.6357C23.5095 92.4388 23.8196 93.1933 24.3921 93.7663C24.6889 94.0632 25.0544 94.2884 25.4492 94.4312C25.5772 94.4773 26.7393 94.6672 26.7326 94.6218C24.9702 94.994 24.0572 96.7237 24.4654 98.421C24.6529 99.2005 25.176 99.9089 25.8595 100.323C26.2497 100.559 26.6826 100.703 27.139 100.73C27.2652 100.738 28.409 100.603 28.3875 100.554C26.7048 101.377 26.3322 103.37 27.2938 104.896C27.7196 105.57 28.4358 106.092 29.2219 106.252C29.6498 106.339 30.0922 106.335 30.5148 106.222C30.6407 106.189 31.7453 105.658 31.6935 105.602C30.4101 106.913 30.6914 108.972 32.1394 110.034C33.5712 111.084 35.5681 110.823 36.5166 109.265C36.4941 109.252 36.2674 110.213 36.259 110.327C36.2255 110.779 36.2981 111.243 36.4838 111.657C36.8289 112.427 37.4768 113.025 38.2688 113.313C39.8938 113.94 41.7387 113.183 42.3115 111.51C42.301 111.507 42.3052 112.459 42.3249 112.576C42.3989 113.013 42.5734 113.425 42.8233 113.79C43.2685 114.441 43.9784 114.859 44.7384 115.037C46.4522 115.437 48.2073 114.367 48.5386 112.626C48.5372 112.626 48.6835 113.549 48.7222 113.666C48.8615 114.082 49.092 114.462 49.3891 114.786C49.9468 115.393 50.7459 115.72 51.5619 115.769C53.2432 115.882 54.7822 114.648 54.9056 112.946C54.9116 112.946 55.1337 113.789 55.1812 113.896C55.3487 114.271 55.5954 114.61 55.9006 114.886C56.5541 115.478 57.4305 115.764 58.3067 115.695C59.0868 115.634 59.8503 115.329 60.3994 114.762C60.6998 114.452 60.9367 114.078 61.0854 113.673C61.1323 113.546 61.3159 112.49 61.2987 112.492C61.6462 114.141 63.3096 115.218 64.9674 114.877C65.7344 114.72 66.4647 114.327 66.9416 113.695C67.2074 113.343 67.3967 112.931 67.4883 112.5C67.5158 112.37 67.5472 111.282 67.5222 111.289C68.1133 112.949 69.954 113.693 71.5719 113.063C72.3263 112.797 72.9526 112.221 73.3023 111.505C73.499 111.103 73.597 110.665 73.5871 110.216C73.5843 110.09 73.3647 109.008 73.3305 109.026C74.2678 110.566 76.2653 110.858 77.695 109.815C79.1423 108.759 79.461 106.73 78.1966 105.395C78.1698 105.423 79.0524 105.923 79.1575 105.963C79.5864 106.122 80.0486 106.159 80.5008 106.099C81.3619 105.986 82.1187 105.448 82.6038 104.742C83.609 103.239 83.2139 101.218 81.5575 100.389C81.5449 100.418 82.5255 100.58 82.6387 100.58C83.1029 100.584 83.5558 100.466 83.9633 100.246C84.7144 99.8393 85.283 99.1076 85.491 98.2778C85.9161 96.5815 84.989 94.8445 83.2312 94.4734C83.2213 94.5388 84.5103 94.288 84.6471 94.231C85.1593 94.0175 85.5921 93.6626 85.9122 93.2109C86.5347 92.3322 86.6722 91.1411 86.2827 90.1392C86.4385 90.5403 86.1258 89.7386 86.2827 90.1392Z" fill="#F7A80E"/>
<path d="M80.1625 86.1168C79.8093 85.2145 78.9605 84.5993 77.9887 84.5521C77.9891 84.5669 78.7783 84.3221 78.8692 84.276C79.2034 84.1061 79.4931 83.8581 79.7173 83.5584C80.123 83.016 80.2778 82.3265 80.1935 81.6595C80.031 80.3728 78.8925 79.3706 77.5823 79.4364C77.5816 79.43 77.5809 79.4237 77.5798 79.4177C78.9605 79.1356 79.7522 77.7451 79.4138 76.4027C79.2612 75.798 78.9256 75.2651 78.411 74.9024C78.117 74.6952 77.7765 74.5612 77.4208 74.5081C77.3091 74.4915 76.3694 74.5309 76.3806 74.5608C77.6535 73.9737 78.1227 72.434 77.4762 71.2057C76.8325 69.9826 75.3634 69.4264 74.1134 70.1201C74.1212 70.1314 74.6549 69.5087 74.707 69.4208C74.8794 69.1302 74.9809 68.8076 75.0169 68.4724C75.0884 67.7963 74.8508 67.103 74.4085 66.5901C73.5072 65.5446 71.9537 65.3311 70.8913 66.277C70.8949 66.2802 71.2615 65.6139 71.2935 65.5221C71.4113 65.1869 71.4458 64.8323 71.406 64.4798C71.3295 63.809 70.9545 63.1987 70.4233 62.7882C69.3281 61.9327 67.7327 62.0783 66.9019 63.2233C66.9114 63.2293 67.1268 62.4438 67.1363 62.3418C67.1705 61.9777 67.1144 61.6115 66.9815 61.2713C66.7482 60.673 66.2692 60.1932 65.6914 59.9198C64.4373 59.3183 62.9117 59.803 62.3467 61.0969C62.3498 61.0979 62.401 60.3427 62.3914 60.2456C62.3569 59.8945 62.2402 59.5614 62.0576 59.2603C61.7267 58.714 61.1736 58.3274 60.5606 58.1596C59.1781 57.7814 57.7199 58.5698 57.4407 60.0053C57.4506 60.0064 57.3139 59.205 57.279 59.1076C57.1662 58.7917 56.985 58.5078 56.7492 58.2693C56.2722 57.7874 55.593 57.5102 54.9124 57.525C54.2211 57.5401 53.5679 57.78 53.079 58.2774C52.8443 58.5166 52.6649 58.8051 52.5539 59.121C52.5197 59.2184 52.3868 60.0194 52.3963 60.0183C52.1178 58.6253 50.7569 57.8708 49.404 58.1522C48.7762 58.2827 48.2024 58.6661 47.8432 59.1938C47.6444 59.4857 47.5115 59.8143 47.4611 60.1643C47.4456 60.2716 47.4805 61.1405 47.4963 61.1348C46.9228 59.8407 45.429 59.3922 44.1699 59.9606C43.5541 60.2389 43.0628 60.7694 42.8368 61.4039C42.7293 61.7054 42.6838 62.0234 42.7075 62.3432C42.7156 62.4508 42.9362 63.2933 42.9517 63.2842C42.1128 62.1406 40.5552 62.0231 39.449 62.8476C38.9073 63.2514 38.541 63.8748 38.4568 64.5435C38.4169 64.8615 38.4409 65.1823 38.5336 65.4898C38.565 65.5932 38.9644 66.3702 38.9778 66.3572C37.9097 65.4162 36.3616 65.6403 35.4603 66.6865C34.5554 67.7369 34.6859 69.348 35.7867 70.2C35.7902 70.1943 35.0659 69.9548 34.97 69.9396C34.6129 69.8837 34.2421 69.9094 33.8981 70.022C33.2389 70.2386 32.7356 70.7114 32.4162 71.3186C31.7697 72.548 32.2629 74.0905 33.5329 74.6692C33.5435 74.6396 32.602 74.6041 32.4906 74.6213C32.1349 74.6759 31.7948 74.8113 31.5022 75.0206C30.9897 75.3871 30.6594 75.9218 30.5071 76.5262C30.3312 77.2237 30.4518 77.9857 30.8698 78.5759C31.0521 78.8355 31.2868 79.0561 31.5575 79.2218C31.6404 79.2728 32.3545 79.5619 32.3556 79.5535C31.1247 79.4937 30.0249 80.3819 29.7828 81.5797C29.4884 83.035 30.4497 84.4997 31.9636 84.6492C31.964 84.6341 31.1659 84.8402 31.0732 84.8817C30.7648 85.0196 30.4849 85.2226 30.2583 85.4731C29.8046 85.9743 29.5938 86.6525 29.6287 87.3206C29.6626 87.9664 29.9118 88.5732 30.3725 89.0344C30.6115 89.2732 30.9054 89.4544 31.223 89.5694C31.3259 89.6064 32.2607 89.759 32.2555 89.7228C30.8374 90.0218 30.1032 91.4137 30.4317 92.779C30.5822 93.4062 31.0031 93.976 31.5533 94.3092C31.867 94.4991 32.2149 94.6152 32.5822 94.637C32.6841 94.643 33.6041 94.5347 33.5868 94.4956C32.2333 95.1569 31.9333 96.7599 32.7067 97.988C33.0493 98.5304 33.6256 98.9508 34.2579 99.0792C34.6023 99.1492 34.9584 99.146 35.2982 99.0552C35.3993 99.0282 36.2883 98.6008 36.2463 98.5561C35.2142 99.611 35.4402 101.267 36.6052 102.121C37.7571 102.966 39.3634 102.757 40.1265 101.503C40.1082 101.493 39.926 102.265 39.9193 102.357C39.8925 102.721 39.9506 103.094 40.1001 103.427C40.3778 104.047 40.8992 104.528 41.5361 104.76C42.8435 105.264 44.3275 104.655 44.7886 103.309C44.7801 103.306 44.7832 104.072 44.7995 104.167C44.8587 104.518 44.999 104.85 45.2002 105.144C45.5584 105.667 46.1294 106.003 46.741 106.146C48.1196 106.468 49.5312 105.608 49.7981 104.207C49.7967 104.207 49.9148 104.95 49.9458 105.043C50.0575 105.378 50.2433 105.684 50.4823 105.944C50.931 106.433 51.5736 106.696 52.2303 106.735C53.5827 106.827 54.8211 105.833 54.9201 104.464C54.925 104.464 55.1034 105.143 55.1418 105.228C55.2768 105.531 55.4753 105.803 55.7206 106.025C56.2465 106.501 56.9511 106.731 57.6561 106.676C58.2839 106.627 58.8983 106.381 59.3399 105.925C59.5814 105.676 59.7721 105.375 59.8919 105.049C59.9297 104.947 60.077 104.097 60.0633 104.099C60.3431 105.425 61.6812 106.291 63.015 106.018C63.6319 105.891 64.2195 105.575 64.603 105.067C64.8169 104.783 64.9692 104.452 65.0429 104.105C65.0651 104 65.0901 103.126 65.07 103.131C65.5459 104.467 67.0263 105.066 68.328 104.558C68.935 104.344 69.4387 103.881 69.72 103.305C69.8783 102.981 69.9573 102.629 69.9492 102.268C69.9467 102.166 69.7701 101.296 69.7426 101.311C70.4969 102.55 72.1036 102.784 73.2537 101.945C74.4184 101.096 74.6746 99.464 73.6573 98.3897C73.6358 98.4122 74.3461 98.8146 74.4307 98.8463C74.7758 98.9743 75.1473 99.0042 75.5111 98.9564C76.2041 98.8649 76.8128 98.4323 77.203 97.8645C78.0116 96.6555 77.6937 95.0296 76.3616 94.3626C76.3514 94.3851 77.1399 94.5157 77.2312 94.516C77.6045 94.5188 77.9689 94.4246 78.2968 94.2469C78.9009 93.9201 79.3585 93.3316 79.5259 92.664C79.8678 91.2994 79.1219 89.9018 77.7077 89.6032C77.7 89.656 78.7367 89.454 78.847 89.4083C79.2587 89.2363 79.6073 88.951 79.8646 88.5876C80.3655 87.8806 80.4759 86.9224 80.1625 86.1168C80.288 86.439 80.0363 85.7942 80.1625 86.1168Z" fill="#F3D055"/>
<path d="M76.0056 81.3965C75.7109 80.643 75.0021 80.1294 74.1906 80.09C74.191 80.1023 74.8498 79.898 74.9256 79.8596C75.2047 79.7179 75.4465 79.5107 75.6337 79.2602C75.9725 78.8075 76.1018 78.232 76.0317 77.6751C75.896 76.6008 74.9453 75.764 73.8512 75.8188C73.8508 75.8136 73.8501 75.8083 73.8494 75.803C75.002 75.5677 75.663 74.4068 75.3803 73.2861C75.253 72.781 74.9728 72.3363 74.5431 72.0335C74.2978 71.8604 74.0133 71.7485 73.7165 71.7042C73.6231 71.6901 72.8385 71.7232 72.848 71.7482C73.9108 71.2582 74.3024 69.9724 73.7627 68.947C73.2255 67.9258 71.9989 67.4611 70.9552 68.0405C70.9615 68.05 71.407 67.5301 71.4507 67.4566C71.5945 67.2142 71.6795 66.9447 71.7091 66.6647C71.7694 66.1005 71.5706 65.5215 71.2015 65.0934C70.449 64.2203 69.1522 64.042 68.2649 64.8317C68.2678 64.8345 68.5741 64.278 68.6009 64.2013C68.6989 63.9216 68.7281 63.6255 68.6946 63.3314C68.6308 62.7714 68.3175 62.262 67.874 61.919C66.9597 61.2046 65.6276 61.3263 64.9343 62.2824C64.942 62.2873 65.1218 61.6316 65.1296 61.5462C65.1581 61.2422 65.1116 60.9365 65.0005 60.6523C64.8056 60.1531 64.4059 59.7525 63.9234 59.5242C62.8765 59.0222 61.6026 59.4267 61.131 60.5067C61.1334 60.5077 61.1761 59.8774 61.1683 59.7961C61.1394 59.5031 61.0418 59.2248 60.8895 58.9733C60.6131 58.5174 60.1514 58.1945 59.6396 58.0545C58.4855 57.7386 57.268 58.3971 57.035 59.5956C57.0428 59.5963 56.9286 58.9272 56.8997 58.846C56.8056 58.5825 56.654 58.3454 56.4573 58.1463C56.0594 57.7435 55.4922 57.5121 54.9236 57.5247C54.3466 57.5374 53.8013 57.7375 53.3931 58.153C53.1971 58.3528 53.0473 58.5934 52.9546 58.8572C52.9261 58.9385 52.815 59.6072 52.8231 59.6065C52.5905 58.4435 51.4541 57.8135 50.3247 58.0482C49.8006 58.1572 49.3215 58.4773 49.0216 58.9181C48.8555 59.1615 48.7445 59.4362 48.7026 59.7282C48.6899 59.8179 48.7188 60.5433 48.7318 60.5387C48.2531 59.458 47.0057 59.0834 45.9546 59.5583C45.4407 59.7905 45.0303 60.2333 44.8418 60.7631C44.7519 61.015 44.7138 61.2806 44.7335 61.5472C44.7402 61.6373 44.9249 62.3408 44.9376 62.333C44.2372 61.378 42.9366 61.2802 42.013 61.9686C41.5608 62.306 41.2552 62.8259 41.1847 63.3845C41.1512 63.6501 41.1717 63.9178 41.2489 64.1746C41.2749 64.2607 41.6087 64.9094 41.6197 64.8989C40.7279 64.1134 39.4353 64.3001 38.6827 65.1736C37.9273 66.0509 38.0363 67.3957 38.9552 68.107C38.9584 68.1024 38.3535 67.9026 38.2735 67.89C37.9753 67.8432 37.6658 67.8646 37.3785 67.9586C36.8283 68.1394 36.4078 68.5341 36.1413 69.041C35.6016 70.0674 36.0133 71.3556 37.0736 71.8386C37.0824 71.8139 36.2964 71.7844 36.2033 71.7985C35.9062 71.8442 35.6224 71.9575 35.3782 72.1323C34.9502 72.438 34.6746 72.8844 34.5473 73.3892C34.4003 73.9717 34.5012 74.6073 34.8505 75.1005C35.0024 75.3172 35.1984 75.5015 35.4243 75.6398C35.4934 75.6824 36.0898 75.9237 36.0905 75.9166C35.063 75.8667 34.1448 76.6082 33.9428 77.6083C33.6971 78.8233 34.4994 80.0464 35.7634 80.1713C35.7638 80.1586 35.0976 80.3306 35.02 80.3651C34.7624 80.4805 34.5287 80.6497 34.3394 80.859C33.9608 81.2776 33.7849 81.8436 33.8142 82.4015C33.8424 82.9408 34.0503 83.4473 34.4353 83.8325C34.6344 84.032 34.8797 84.1832 35.1452 84.2789C35.2308 84.3102 36.0116 84.4375 36.007 84.4073C34.8233 84.657 34.21 85.8189 34.4842 86.959C34.6101 87.4825 34.9615 87.9584 35.4208 88.2363C35.6827 88.3949 35.9735 88.492 36.2802 88.51C36.3648 88.5149 37.1332 88.4245 37.1187 88.3921C35.9883 88.9441 35.738 90.2829 36.3838 91.308C36.67 91.761 37.1512 92.1117 37.6792 92.219C37.9665 92.2774 38.2636 92.275 38.5474 92.199C38.632 92.1761 39.3739 91.8194 39.3394 91.7821C38.4772 92.663 38.6662 94.0454 39.6387 94.7592C40.6006 95.4645 41.9418 95.2893 42.5788 94.2424C42.5636 94.2343 42.4113 94.8791 42.4057 94.9558C42.3835 95.2597 42.4318 95.5707 42.5569 95.8497C42.7889 96.3668 43.2238 96.7685 43.7557 96.9619C44.8474 97.383 46.0864 96.8747 46.471 95.7505C46.4643 95.7483 46.4667 96.3879 46.4801 96.467C46.5298 96.7604 46.6468 97.0372 46.815 97.2824C47.1139 97.7193 47.5908 98 48.1012 98.1193C49.2524 98.388 50.4312 97.6697 50.6536 96.5001C50.6529 96.5001 50.7512 97.1202 50.7773 97.1983C50.8704 97.4783 51.0255 97.7337 51.225 97.9508C51.5997 98.3585 52.1362 98.5787 52.6846 98.6114C53.8136 98.6874 54.8475 97.8579 54.9303 96.7154C54.9346 96.7154 55.0833 97.2813 55.1154 97.3531C55.2278 97.6053 55.3938 97.8326 55.5986 98.0183C56.0375 98.4162 56.6261 98.6075 57.2148 98.5614C57.7386 98.5206 58.2515 98.3155 58.6202 97.9349C58.8221 97.7263 58.9811 97.4755 59.0812 97.2033C59.1126 97.1178 59.236 96.4086 59.2243 96.41C59.458 97.5174 60.5751 98.2406 61.6886 98.0123C62.2039 97.9064 62.6942 97.6423 63.0146 97.2184C63.1933 96.9817 63.3202 96.7052 63.3819 96.4153C63.4003 96.3281 63.4214 95.5978 63.4048 95.6023C63.8017 96.7171 65.0379 97.217 66.1247 96.7938C66.6315 96.6147 67.052 96.2281 67.2871 95.7473C67.4193 95.4768 67.4849 95.1827 67.4782 94.8816C67.4764 94.7965 67.3287 94.0697 67.3058 94.082C67.9354 95.1166 69.2773 95.3125 70.2375 94.6121C71.2096 93.903 71.4236 92.5402 70.5745 91.6432C70.5565 91.6622 71.1494 91.9981 71.2199 92.0245C71.5078 92.1314 71.8184 92.1564 72.1219 92.1163C72.7007 92.0403 73.209 91.6787 73.5346 91.2049C74.2097 90.1957 73.9442 88.8378 72.8321 88.281C72.8233 88.3 73.4821 88.409 73.5583 88.409C73.8699 88.4115 74.1741 88.3327 74.4479 88.1846C74.9524 87.9116 75.3341 87.4202 75.4741 86.8626C75.7596 85.7236 75.1367 84.5568 73.9562 84.3074C73.9495 84.3514 74.8153 84.1829 74.9073 84.1445C75.2513 84.001 75.5421 83.7628 75.7567 83.4596C76.1751 82.8694 76.2671 82.0691 76.0056 81.3965C76.1103 81.6656 75.9002 81.127 76.0056 81.3965Z" fill="#F8E298"/>
<path d="M41.5037 50.2729C38.2788 50.9011 35.6344 53.1229 33.1473 55.2659C30.1554 57.8437 27.1635 60.4214 24.1715 62.9992C24.8705 63.7457 25.9741 64.0893 26.9745 63.8726C25.7556 64.8907 24.4821 65.9868 23.9756 67.4902C23.469 68.9937 24.1017 70.9967 25.6432 71.384C25.3481 72.5955 24.6361 73.6585 24.1581 74.8102C23.6805 75.9619 23.462 77.3535 24.1324 78.4053C24.8028 79.4571 26.6326 79.7097 27.235 78.6178C26.9551 79.6316 26.6724 80.6711 26.7567 81.7193C26.8413 82.7676 27.3682 83.8444 28.3203 84.2957C29.272 84.7466 30.6291 84.3136 30.9086 83.2995C30.4275 84.918 31.4645 86.8277 33.086 87.3089C34.7074 87.7905 36.6218 86.757 37.1054 85.1392C36.8886 86.5632 38.1844 88.0174 39.6267 87.9696C41.0688 87.9217 42.2644 86.3845 41.9535 84.9781C42.5718 86.0573 44.0036 86.592 45.1802 86.1833C46.3564 85.7745 47.1457 84.4677 46.9585 83.2386C48.1679 83.7761 49.6874 83.5239 50.6575 82.6251C51.6279 81.7264 51.9927 80.2327 51.5454 78.9892C54.1912 77.4115 55.3114 73.7148 53.985 70.9386C55.3117 69.725 55.6357 67.7755 55.6787 65.9801C55.7753 61.9355 54.7682 57.7547 52.2317 54.5986C49.6952 51.4422 45.483 49.4976 41.5037 50.2729Z" fill="#F7A80E"/>
<path d="M66.7913 50.2729C70.0162 50.9011 72.6609 53.1229 75.1477 55.2659C78.1396 57.8437 81.1315 60.4214 84.1235 62.9992C83.4245 63.7457 82.3212 64.0893 81.3208 63.8726C82.5393 64.8907 83.8129 65.9868 84.3198 67.4902C84.8263 68.9937 84.1936 70.9967 82.6522 71.384C82.9472 72.5955 83.6592 73.6585 84.1368 74.8102C84.6148 75.9619 84.833 77.3535 84.1629 78.4053C83.4925 79.4571 81.6624 79.7097 81.06 78.6178C81.3402 79.6316 81.6229 80.6711 81.5383 81.7193C81.4541 82.7676 80.9271 83.8444 79.975 84.2957C79.0229 84.7466 77.6662 84.3136 77.3863 83.2995C77.8675 84.918 76.8308 86.8277 75.2094 87.3089C73.5879 87.7905 71.6736 86.757 71.19 85.1392C71.4064 86.5632 70.111 88.0174 68.6686 87.9696C67.2266 87.9217 66.0306 86.3845 66.3418 84.9781C65.7232 86.0573 64.2918 86.592 63.1152 86.1833C61.9386 85.7745 61.1497 84.4677 61.3365 83.2386C60.1275 83.7761 58.6079 83.5239 57.6375 82.6251C56.6674 81.7264 56.3026 80.2327 56.7496 78.9892C54.1042 77.4115 52.9839 73.7148 54.3104 70.9386C52.9836 69.725 52.6593 67.7755 52.6167 65.9801C52.5201 61.9355 53.5271 57.7547 56.0633 54.5986C58.5998 51.4422 62.8124 49.4976 66.7913 50.2729Z" fill="#F7A80E"/>
<path d="M26.7708 70.6609C26.6475 66.4682 30.0419 62.7672 34.0088 61.3812C37.9757 59.9949 42.3557 60.4934 46.4418 61.4755C48.5528 61.9827 50.8303 62.7612 51.9269 64.6312C52.414 65.4617 52.6124 66.4319 52.6836 67.3916C52.9269 70.669 51.6963 74.0277 49.3925 76.3754C47.6674 78.1339 45.4358 79.2961 43.2207 80.3768C41.1961 81.3646 39.0054 82.3333 36.7727 82.029C38.882 81.0775 40.9913 80.126 43.1002 79.1744C38.5739 81.322 32.9436 80.953 28.737 78.2338C30.4861 79.2381 32.6066 79.5807 34.5837 79.178C32.9873 79.3806 31.3158 78.9046 30.0669 77.8915C28.9337 76.972 28.1751 75.6669 27.6246 74.3169C27.149 73.1518 26.8079 71.9185 26.7708 70.6609Z" fill="#F2591D"/>
<path d="M81.651 70.6609C81.7743 66.4682 78.3799 62.7672 74.4126 61.3812C70.4457 59.9949 66.066 60.4934 61.9796 61.4755C59.8686 61.9827 57.5915 62.7612 56.4946 64.6312C56.0075 65.4617 55.809 66.4319 55.7378 67.3916C55.4949 70.669 56.7251 74.0277 59.0293 76.3754C60.7544 78.1339 62.9857 79.2961 65.2011 80.3768C67.2254 81.3646 69.4161 82.3333 71.6488 82.029C69.5398 81.0775 67.4305 80.126 65.3213 79.1744C69.8479 81.322 75.4782 80.953 79.6844 78.2338C77.9354 79.2381 75.8152 79.5807 73.8377 79.178C75.4341 79.3806 77.106 78.9046 78.3545 77.8915C79.4881 76.972 80.2463 75.6669 80.7972 74.3169C81.2724 73.1518 81.6136 71.9185 81.651 70.6609Z" fill="#F2591D"/>
<path d="M84.9498 53.2721C84.3491 53.5683 83.7489 53.8642 83.1486 54.16C84.469 54.2462 85.702 55.1449 86.1856 56.3744C85.5515 56.3779 84.9173 56.3818 84.2832 56.3856C85.9917 56.584 87.2713 58.5082 86.7908 60.1562C77.0156 57.1113 66.3405 57.0104 56.5093 59.8699C59.001 55.07 63.92 51.7265 69.2323 50.6708C74.5447 49.6148 80.1707 50.7274 84.9498 53.2721Z" fill="#F2591D"/>
<path d="M71.1674 57.4227C76.4054 57.4227 81.5633 58.1811 86.5056 59.6776C86.5694 59.0982 86.4093 58.4805 86.0459 57.9342C85.6032 57.268 84.9448 56.8388 84.2402 56.7568C84.0438 56.734 83.8989 56.5623 83.9095 56.365C83.9205 56.1676 84.0833 56.0128 84.2814 56.0118L85.5768 56.0041C85.0452 55.1778 84.1034 54.597 83.1242 54.5333C82.9553 54.5224 82.8143 54.3993 82.7816 54.2336C82.7481 54.0676 82.8306 53.9001 82.9828 53.8248L84.1189 53.2652C80.6705 51.5507 76.9556 50.6477 73.3292 50.6477C71.9605 50.6477 70.607 50.7789 69.3059 51.0374C64.1808 52.0562 59.7475 55.1046 57.2734 59.2664C61.7711 58.0429 66.4409 57.4227 71.1674 57.4227ZM86.7915 60.5303C86.7537 60.5303 86.7164 60.5246 86.6797 60.5134C81.6888 58.9589 76.4699 58.1706 71.1674 58.1706C66.2065 58.1706 61.3104 58.8632 56.6142 60.2292C56.4704 60.2703 56.3153 60.2232 56.2198 60.1074C56.125 59.9921 56.1077 59.831 56.1768 59.698C58.6463 54.9407 63.4998 51.4289 69.1593 50.304C70.5086 50.0359 71.9115 49.8998 73.3292 49.8998C77.3092 49.8998 81.3885 50.9519 85.1263 52.9426C85.2504 53.0087 85.3269 53.1382 85.3244 53.2782C85.3226 53.4185 85.2419 53.5455 85.1161 53.6078L84.2666 54.0264C85.2825 54.4112 86.1334 55.2179 86.5348 56.2376C86.58 56.3523 86.5655 56.4821 86.4964 56.5841C86.427 56.6861 86.3117 56.7477 86.1883 56.7484L85.9853 56.7495C86.2426 56.9661 86.4739 57.225 86.6702 57.5205C87.2356 58.3704 87.4108 59.3694 87.151 60.2608C87.1232 60.3572 87.0572 60.4385 86.9688 60.486C86.9134 60.5155 86.8524 60.5303 86.7915 60.5303Z" fill="#292625"/>
<path d="M23.6344 53.2721C24.2347 53.5683 24.8349 53.8642 25.4356 54.16C24.1152 54.2462 22.8818 55.1449 22.3982 56.3744C23.0323 56.3779 23.6664 56.3818 24.3006 56.3856C22.5921 56.584 21.3125 58.5082 21.793 60.1562C31.5682 57.1113 42.2436 57.0104 52.0749 59.8699C49.5828 55.07 44.6642 51.7265 39.3518 50.6708C34.0395 49.6148 28.4134 50.7274 23.6344 53.2721Z" fill="#F2591D"/>
<path d="M23.0071 56.0041L24.3029 56.0118C24.5009 56.0128 24.6638 56.1676 24.6747 56.365C24.6853 56.5623 24.5404 56.734 24.3437 56.7568C23.6391 56.8388 22.981 57.268 22.5379 57.9342C22.1749 58.4805 22.0148 59.0982 22.0786 59.6776C27.0209 58.1811 32.1788 57.4227 37.4165 57.4227C42.1433 57.4227 46.8127 58.0429 51.3101 59.2664C48.8364 55.1046 44.4031 52.0562 39.2783 51.0374C37.9773 50.7789 36.6234 50.6477 35.2546 50.6477C31.6282 50.6477 27.9134 51.5507 24.4653 53.2652L25.6014 53.8248C25.7537 53.8998 25.8362 54.0672 25.8027 54.2336C25.7695 54.3993 25.6289 54.5224 25.4597 54.5333C24.4809 54.597 23.539 55.1778 23.0071 56.0041ZM21.7928 60.5303C21.7314 60.5303 21.6705 60.5155 21.6155 60.486C21.527 60.4385 21.4611 60.3572 21.4332 60.2608C21.1731 59.3694 21.3483 58.3704 21.914 57.5205C22.1104 57.225 22.3416 56.9661 22.5986 56.7495L22.3959 56.7484C22.2725 56.7477 22.1569 56.6861 22.0878 56.5841C22.0187 56.4821 22.0043 56.3523 22.0494 56.2376C22.4505 55.2179 23.3014 54.4112 24.3177 54.0264L23.4682 53.6078C23.3423 53.5455 23.2616 53.4185 23.2595 53.2782C23.257 53.1382 23.3339 53.0087 23.4579 52.9426C27.1954 50.9519 31.2751 49.8998 35.2546 49.8998C36.6724 49.8998 38.0756 50.0359 39.425 50.304C45.0842 51.4289 49.9376 54.9407 52.4071 59.698C52.4762 59.831 52.4589 59.9921 52.3641 60.1074C52.2689 60.2235 52.1138 60.2707 51.9696 60.2292C47.2738 58.8632 42.3777 58.1706 37.4165 58.1706C32.114 58.1706 26.8954 58.9589 21.9045 60.5134C21.8679 60.5246 21.8305 60.5303 21.7928 60.5303Z" fill="#292625"/>
<path d="M38.1901 53.8387C38.3455 54.5253 37.7685 55.1455 37.2193 55.5877C36.2955 56.332 35.2609 57.0074 34.0889 57.1949C32.9313 57.3796 31.7589 57.0725 30.5897 56.9905C28.4174 56.8382 26.2746 57.4654 24.1875 58.0859C25.2527 56.6634 27.1854 56.2691 28.9408 55.9781C27.7085 55.7928 26.454 55.753 25.2122 55.8599C27.129 54.6935 29.0811 53.5119 31.2538 52.9476C32.2387 52.6919 33.2535 52.5677 34.269 52.4995C35.2845 52.4312 36.3466 52.427 37.2662 52.8632C37.6853 53.062 38.0875 53.3866 38.1901 53.8387Z" fill="#D34B20"/>
<path d="M69.8294 53.8387C69.674 54.5253 70.251 55.1455 70.7999 55.5877C71.7237 56.332 72.7583 57.0074 73.9307 57.1949C75.0879 57.3796 76.2603 57.0725 77.4295 56.9905C79.6022 56.8382 81.745 57.4654 83.832 58.0859C82.7665 56.6634 80.8341 56.2691 79.0784 55.9781C80.3111 55.7928 81.5656 55.753 82.8074 55.8599C80.8905 54.6935 78.9381 53.5119 76.7654 52.9476C75.7805 52.6919 74.7657 52.5677 73.7505 52.4995C72.7347 52.4312 71.6726 52.427 70.7533 52.8632C70.3339 53.062 69.9317 53.3866 69.8294 53.8387Z" fill="#D34B20"/>
<path d="M80.8631 64.8041C80.8631 71.9376 75.0685 77.7207 67.9201 77.7207C60.772 77.7207 54.9771 71.9376 54.9771 64.8041C54.9771 57.6705 60.772 51.8874 67.9201 51.8874C75.0685 51.8874 80.8631 57.6705 80.8631 64.8041Z" fill="#523B1A"/>
<path d="M79.1313 65.2248C79.1313 71.6878 73.8813 76.9268 67.4054 76.9268C60.9292 76.9268 55.6792 71.6878 55.6792 65.2248C55.6792 58.7621 60.9292 53.5228 67.4054 53.5228C73.8813 53.5228 79.1313 58.7621 79.1313 65.2248Z" fill="#D1B86C"/>
<path d="M79.1313 65.2248C79.1313 71.6878 73.8813 76.9268 67.4054 76.9268C60.9292 76.9268 55.6792 71.6878 55.6792 65.2248C55.6792 58.7621 60.9292 53.5228 67.4054 53.5228C73.8813 53.5228 79.1313 58.7621 79.1313 65.2248Z" fill="#D1B86C"/>
<path d="M78.0081 65.2248C78.0081 71.0684 73.2611 75.8057 67.4056 75.8057C61.5497 75.8057 56.8027 71.0684 56.8027 65.2248C56.8027 59.3812 61.5497 54.6439 67.4056 54.6439C73.2611 54.6439 78.0081 59.3812 78.0081 65.2248Z" fill="#F3ED99"/>
<path d="M72.4843 65.2243C72.4843 68.0237 70.2104 70.293 67.4057 70.293C64.6006 70.293 62.3267 68.0237 62.3267 65.2243C62.3267 62.4249 64.6006 60.1557 67.4057 60.1557C70.2104 60.1557 72.4843 62.4249 72.4843 65.2243Z" fill="#D4C18D"/>
<path d="M71.0795 65.2254C71.0795 67.2509 69.4344 68.8926 67.4052 68.8926C65.3755 68.8926 63.7305 67.2509 63.7305 65.2254C63.7305 63.2002 65.3755 61.5582 67.4052 61.5582C69.4344 61.5582 71.0795 63.2002 71.0795 65.2254Z" fill="#2E2227"/>
<path d="M67.4053 64.1503C67.4053 64.7437 66.9231 65.2246 66.3285 65.2246C65.7338 65.2246 65.252 64.7437 65.252 64.1503C65.252 63.5569 65.7338 63.0757 66.3285 63.0757C66.9231 63.0757 67.4053 63.5569 67.4053 64.1503Z" fill="white"/>
<path d="M64.3579 57.3558C65.2311 58.1898 64.7358 60.12 63.2518 61.6667C61.7679 63.2134 59.8574 63.791 58.9843 62.957C58.1112 62.123 58.6064 60.1928 60.0904 58.6461C61.5744 57.0993 63.4852 56.5217 64.3579 57.3558Z" fill="white"/>
<path d="M69.771 73.8926C64.1798 73.8926 59.3677 70.5655 57.2129 65.7871C57.3412 69.6108 59.6765 73.1848 63.4597 74.7108C66.8112 76.0626 70.4658 75.4717 73.1711 73.4697C72.0837 73.7455 70.9444 73.8926 69.771 73.8926Z" fill="#D4C18D"/>
<path d="M28.0142 64.8041C28.0142 71.9376 33.8091 77.7207 40.9572 77.7207C48.1053 77.7207 53.9002 71.9376 53.9002 64.8041C53.9002 57.6705 48.1053 51.8874 40.9572 51.8874C33.8091 51.8874 28.0142 57.6705 28.0142 64.8041Z" fill="#523B1A"/>
<path d="M29.7461 65.2248C29.7461 71.6878 34.996 76.9268 41.4723 76.9268C47.9482 76.9268 53.1982 71.6878 53.1982 65.2248C53.1982 58.7621 47.9482 53.5228 41.4723 53.5228C34.996 53.5228 29.7461 58.7621 29.7461 65.2248Z" fill="#D1B86C"/>
<path d="M29.7461 65.2248C29.7461 71.6878 34.996 76.9268 41.4723 76.9268C47.9482 76.9268 53.1982 71.6878 53.1982 65.2248C53.1982 58.7621 47.9482 53.5228 41.4723 53.5228C34.996 53.5228 29.7461 58.7621 29.7461 65.2248Z" fill="#D1B86C"/>
<path d="M30.8701 65.2248C30.8701 71.0684 35.6171 75.8057 41.4726 75.8057C47.3281 75.8057 52.0751 71.0684 52.0751 65.2248C52.0751 59.3812 47.3281 54.6439 41.4726 54.6439C35.6171 54.6439 30.8701 59.3812 30.8701 65.2248Z" fill="#F3ED99"/>
<path d="M36.3936 65.2243C36.3936 68.0237 38.6675 70.293 41.4726 70.293C44.2773 70.293 46.5512 68.0237 46.5512 65.2243C46.5512 62.4249 44.2773 60.1557 41.4726 60.1557C38.6675 60.1557 36.3936 62.4249 36.3936 65.2243Z" fill="#D4C18D"/>
<path d="M37.7974 65.2254C37.7974 67.2509 39.4424 68.8926 41.4721 68.8926C43.5013 68.8926 45.1464 67.2509 45.1464 65.2254C45.1464 63.2002 43.5013 61.5582 41.4721 61.5582C39.4424 61.5582 37.7974 63.2002 37.7974 65.2254Z" fill="#2E2227"/>
<path d="M41.4722 64.1503C41.4722 64.7437 41.954 65.2246 42.5487 65.2246C43.1433 65.2246 43.6252 64.7437 43.6252 64.1503C43.6252 63.5569 43.1433 63.0757 42.5487 63.0757C41.954 63.0757 41.4722 63.5569 41.4722 64.1503Z" fill="white"/>
<path d="M38.3937 57.3558C39.2665 58.1898 38.7712 60.12 37.2873 61.6667C35.8033 63.2134 33.8928 63.791 33.0197 62.957C32.1469 62.123 32.6422 60.1928 34.1261 58.6461C35.6098 57.0993 37.5206 56.5217 38.3937 57.3558Z" fill="white"/>
<path d="M39.1075 73.8926C44.6983 73.8926 49.5105 70.5655 51.6652 65.7871C51.5369 69.6108 49.2017 73.1848 45.4184 74.7108C42.067 76.0626 38.4124 75.4717 35.707 73.4697C36.7945 73.7455 37.9337 73.8926 39.1075 73.8926Z" fill="#D4C18D"/>
<path d="M56.542 66.4651C56.2184 66.1105 55.8405 65.7918 55.3985 65.6821C54.9695 65.5751 54.4736 65.7092 54.2081 66.0979C53.9434 65.7084 53.4478 65.5734 53.0188 65.6793C52.5765 65.788 52.1979 66.106 51.8732 66.4595C50.1453 68.3418 49.6705 71.3164 50.0643 73.9803C50.4583 76.6443 51.599 79.0845 52.7238 81.4723C52.8066 81.6485 53.5095 82.7415 54.2011 82.7422C54.8927 82.7429 55.5733 81.6517 55.6565 81.4755C56.7866 79.0905 57.9332 76.6531 58.3333 73.9898C58.7337 71.3269 58.2656 68.3513 56.542 66.4651Z" fill="#2D1615"/>
<path d="M52.8842 66.1457C52.561 66.2041 52.3205 66.481 52.1253 66.7536C50.7365 68.6912 50.2874 71.2186 50.4584 73.624C50.648 76.2897 51.561 78.8963 53.0657 81.0689C53.3262 81.4453 53.7051 81.8505 54.1429 81.7555C54.6452 81.6465 54.795 80.9915 54.8416 80.4628C55.2244 76.0896 55.5078 71.5714 54.162 67.4072C54.0597 67.0913 53.9441 66.7709 53.7347 66.5176C53.5254 66.2647 53.2014 66.0881 52.8842 66.1457Z" fill="#EE8B40"/>
<path d="M55.126 66.1428C54.6861 66.2484 54.4788 66.7416 54.3484 67.1739C53.0111 71.6058 52.8105 76.3744 53.771 80.9024C53.8391 81.2225 53.9572 81.5926 54.2684 81.6946C54.6586 81.8226 55.0146 81.4374 55.2342 81.0913C57.2318 77.9436 58.1359 74.1192 57.7591 70.4123C57.6107 68.9489 57.2022 67.3944 56.0615 66.4626C55.7971 66.2466 55.4584 66.0633 55.126 66.1428Z" fill="#F2591D"/>
<path d="M55.2344 74.5956C55.2344 78.184 54.7261 81.0928 54.0994 81.0928C53.4727 81.0928 52.9644 78.184 52.9644 74.5956C52.9644 71.0072 53.4727 68.0984 54.0994 68.0984C54.7261 68.0984 55.2344 71.0072 55.2344 74.5956Z" fill="#F3DE3E"/>
<path d="M54.2497 72.4331C54.5021 72.355 54.6033 72.0556 54.6413 71.7946C54.7619 70.9701 54.6184 70.1096 54.2374 69.3685C53.6258 69.9584 53.3812 70.8726 53.5222 71.7095C53.5543 71.9012 53.6082 72.0961 53.7319 72.2463C53.8556 72.3961 54.0636 72.4908 54.2497 72.4331Z" fill="white"/>
<path d="M54.4572 74.5057C54.3257 74.0059 54.1942 73.506 54.0627 73.0065C53.7835 73.5137 53.657 74.1037 53.7039 74.6806C53.7169 74.8403 53.7451 75.0049 53.8357 75.1368C53.9266 75.2691 54.0951 75.3595 54.2495 75.3162C54.3997 75.2744 54.4959 75.1196 54.5164 74.9655C54.5368 74.8111 54.497 74.6559 54.4572 74.5057Z" fill="white"/>
<path d="M46.174 121.453C45.5286 120.993 44.6178 121.305 43.9688 121.76C42.4937 122.794 41.5543 124.463 41.1024 126.204C40.6501 127.946 40.6428 129.771 40.7259 131.568C40.7383 131.837 40.7859 132.157 41.0309 132.27C41.3601 132.421 41.6851 132.063 41.8719 131.753C42.8595 130.115 43.8476 128.476 44.8356 126.837C45.3636 125.961 45.8927 125.083 46.3238 124.155C46.5307 123.71 46.7176 123.241 46.7352 122.751C46.7532 122.26 46.5744 121.738 46.174 121.453Z" fill="#EDA263"/>
<path d="M45.4288 121.601C45.0598 121.601 44.6061 121.771 44.1846 122.066C42.9071 122.962 41.941 124.465 41.4651 126.299C41.0122 128.044 41.022 129.855 41.1003 131.551C41.1162 131.888 41.187 131.93 41.1877 131.93L41.1909 131.932C41.2367 131.932 41.3946 131.82 41.5511 131.561L44.5141 126.644C45.0291 125.79 45.5614 124.907 45.984 123.998C46.1705 123.596 46.3453 123.165 46.3605 122.738C46.3728 122.411 46.2723 121.982 45.9562 121.757C45.8085 121.652 45.6361 121.601 45.4288 121.601ZM41.1909 132.68C41.1909 132.68 41.1909 132.68 41.1905 132.68C41.0819 132.68 40.9755 132.656 40.8743 132.61C40.3886 132.387 40.3618 131.804 40.3519 131.585C40.2747 129.914 40.2603 127.958 40.7393 126.111C41.2603 124.106 42.3308 122.452 43.7535 121.454C44.0739 121.23 44.7172 120.853 45.4288 120.853C45.7923 120.853 46.1162 120.952 46.3911 121.148C46.8589 121.481 47.1338 122.1 47.1095 122.764C47.0898 123.324 46.8836 123.84 46.664 124.313C46.2244 125.258 45.6816 126.159 45.1567 127.029L42.193 131.947C42.0273 132.22 41.6777 132.68 41.1909 132.68Z" fill="#292625"/>
<path d="M45.0432 124.562C45.1243 124.148 45.1878 123.72 45.0989 123.308C44.941 124.072 44.4285 124.756 43.7383 125.124C43.8825 125.69 43.898 126.304 43.677 126.845C43.4559 127.386 42.9724 127.837 42.3936 127.923C42.475 128.925 42.273 129.948 41.8169 130.843C42.6576 129.365 43.4986 127.886 44.3393 126.408C44.4944 126.135 44.6502 125.861 44.7665 125.57C44.8962 125.246 44.9759 124.904 45.0432 124.562Z" fill="#DC7029"/>
<path d="M48.5408 121.453C49.1862 120.993 50.097 121.305 50.7456 121.76C52.2208 122.794 53.1601 124.463 53.6124 126.204C54.0646 127.946 54.0717 129.771 53.9888 131.568C53.9765 131.837 53.9286 132.157 53.6836 132.27C53.3544 132.421 53.0297 132.063 52.8429 131.753C51.8549 130.115 50.8672 128.476 49.8792 126.837C49.3512 125.961 48.822 125.083 48.391 124.155C48.184 123.71 47.9972 123.241 47.9793 122.751C47.9613 122.26 48.14 121.738 48.5408 121.453Z" fill="#EDA263"/>
<path d="M49.2857 121.601C49.0784 121.601 48.906 121.652 48.7583 121.757C48.4422 121.982 48.3421 122.411 48.354 122.737C48.3696 123.166 48.5444 123.597 48.7309 123.998C49.1546 124.91 49.6861 125.792 50.2004 126.644L53.1641 131.561C53.3195 131.819 53.4764 131.931 53.5233 131.932C53.5293 131.929 53.5994 131.884 53.6146 131.551C53.6928 129.855 53.7027 128.044 53.2494 126.299C52.7739 124.465 51.8081 122.962 50.5303 122.066C50.1084 121.771 49.6547 121.601 49.2857 121.601ZM53.5236 131.932V132.306V131.932ZM53.5236 132.68C53.0365 132.68 52.6872 132.22 52.5219 131.947L49.5581 127.03C49.0336 126.16 48.4915 125.261 48.0513 124.313C47.8313 123.841 47.6254 123.326 47.605 122.764C47.5807 122.1 47.856 121.481 48.3234 121.148C48.5983 120.952 48.9223 120.853 49.2857 120.853C49.9974 120.853 50.6406 121.23 50.961 121.454C52.384 122.452 53.4545 124.106 53.9752 126.111C54.4545 127.957 54.4401 129.914 54.3633 131.585C54.3541 131.784 54.3263 132.387 53.8402 132.61C53.739 132.656 53.6326 132.68 53.5236 132.68Z" fill="#292625"/>
<path d="M51.1152 124.836C51.0514 125.488 51.1624 126.156 51.4335 126.751C51.5297 126.963 51.6485 127.169 51.8237 127.321C51.9989 127.473 52.2385 127.565 52.4663 127.519C52.3584 128.122 52.5445 128.738 52.7722 129.307C52.9202 129.676 53.087 130.039 53.271 130.392C53.1511 130.338 53.0648 130.232 52.9837 130.129C52.5621 129.595 52.1571 129.048 51.7525 128.501C51.5692 128.254 51.3862 128.007 51.2033 127.759C51.0901 127.607 50.977 127.454 50.8684 127.298C50.1113 126.21 49.5773 124.968 49.3094 123.671C49.2297 123.285 49.18 122.857 49.3851 122.52C49.8043 123.405 50.2695 124.341 51.1152 124.836Z" fill="#DC7029"/>
<path d="M49.6296 125.376C49.6296 128.048 48.5855 133.01 47.2979 133.01C46.0099 133.01 44.9658 128.048 44.9658 125.376C44.9658 122.704 46.0099 120.538 47.2979 120.538C48.5855 120.538 49.6296 122.704 49.6296 125.376Z" fill="#EDA263"/>
<path d="M47.2977 120.911C46.3721 120.911 45.3407 122.744 45.3407 125.375C45.3407 128.36 46.4926 132.635 47.2977 132.635C48.1025 132.635 49.2544 128.36 49.2544 125.375C49.2544 122.744 48.2234 120.911 47.2977 120.911ZM47.2977 133.383C45.512 133.383 44.5913 127.77 44.5913 125.375C44.5913 122.453 45.7799 120.163 47.2977 120.163C48.8152 120.163 50.0038 122.453 50.0038 125.375C50.0038 127.77 49.0831 133.383 47.2977 133.383Z" fill="#292625"/>
<path d="M43.0701 123.836C43.0828 124.008 43.1959 124.156 43.3147 124.282C43.4173 124.391 43.5424 124.499 43.6922 124.501C43.9277 124.504 44.0768 124.258 44.1758 124.044C44.3041 123.769 44.4339 123.488 44.4677 123.186C44.5012 122.884 44.4226 122.552 44.1917 122.354C43.8805 122.641 43.5893 122.949 43.3214 123.276C43.1885 123.439 43.0546 123.627 43.0701 123.836Z" fill="#F3ED99"/>
<path d="M42.6578 124.661C42.557 124.68 42.4928 124.777 42.4435 124.866C41.9972 125.673 41.7956 126.613 41.8717 127.531C41.8802 127.63 41.9066 127.749 42.0007 127.78C42.116 127.818 42.215 127.695 42.2739 127.589C42.5065 127.171 42.7392 126.752 42.9718 126.334C43.1001 126.103 43.2323 125.857 43.221 125.592C43.2094 125.329 42.9179 124.611 42.6578 124.661Z" fill="#F3ED99"/>
<path d="M41.5778 130.484C41.7646 130.053 41.8763 129.589 41.9063 129.12C41.9169 128.956 41.9165 128.787 41.8523 128.636C41.7885 128.485 41.6465 128.356 41.4822 128.353C41.3441 128.787 41.2655 129.239 41.25 129.694C41.2401 129.982 41.2634 130.292 41.4449 130.517C41.4597 130.535 41.478 130.554 41.5016 130.556C41.539 130.558 41.563 130.519 41.5778 130.484Z" fill="#F3ED99"/>
<path d="M45.9257 125.39C45.986 125.593 46.1012 125.808 46.3053 125.865C46.5052 125.92 46.7205 125.795 46.833 125.621C46.9454 125.447 46.9775 125.235 47.0032 125.029C47.1418 123.929 47.171 122.815 47.0907 121.709C47.0822 121.591 47.0328 121.436 46.9144 121.444C46.8538 121.448 46.8073 121.498 46.7692 121.546C46.2211 122.227 45.9831 123.106 45.8739 123.973C45.8143 124.446 45.79 124.934 45.9257 125.39Z" fill="#F3ED99"/>
<path d="M46.4415 126.299C46.3572 126.317 46.2768 126.363 46.2307 126.436C46.2035 126.479 46.1894 126.529 46.1774 126.579C46.0213 127.222 46.1496 127.899 46.334 128.534C46.3801 128.692 46.4327 128.856 46.5458 128.975C46.6096 129.044 46.7012 129.097 46.7932 129.08C46.9311 129.054 46.9917 128.894 47.0227 128.757C47.132 128.272 47.1778 127.774 47.1641 127.277C47.1577 127.045 47.1359 126.804 47.0199 126.602C46.9036 126.401 46.6695 126.25 46.4415 126.299Z" fill="#F3ED99"/>
<path d="M51.3464 123.201C51.0394 122.857 50.7091 122.518 50.2925 122.32C50.2354 122.293 50.1698 122.268 50.1103 122.29C50.0648 122.549 50.1423 122.818 50.2734 123.046C50.4049 123.274 50.5865 123.468 50.7666 123.66C50.9171 123.821 51.0676 123.981 51.2181 124.141C51.3503 124.282 51.5174 124.436 51.7081 124.404C51.8279 124.212 51.8159 123.962 51.731 123.753C51.6457 123.544 51.4962 123.369 51.3464 123.201Z" fill="#F3ED99"/>
<path d="M52.5642 126.036C52.6523 125.642 52.4524 125.244 52.2222 124.913C52.157 124.819 52.0453 124.716 51.9445 124.77C51.7675 125.158 51.7742 125.625 51.9628 126.008C52.0065 126.096 52.0611 126.182 52.1426 126.238C52.2236 126.294 52.3361 126.314 52.4218 126.265C52.5028 126.22 52.5437 126.126 52.5642 126.036Z" fill="#F3ED99"/>
<path d="M47.2192 132.085C47.6394 132.078 47.8886 131.623 48.0307 131.228C48.8153 129.048 49.0712 126.68 48.7698 124.383C48.6225 123.258 48.2845 122.058 47.3715 121.383C47.6306 123.799 47.7293 126.232 47.6662 128.66C47.6546 129.105 47.6377 129.55 47.6137 129.995C47.5753 130.707 47.5146 131.435 47.2192 132.085Z" fill="#DC7029"/>
<path d="M64.7574 121.453C64.112 120.993 63.2011 121.305 62.5525 121.76C61.0774 122.794 60.138 124.463 59.6857 126.204C59.2335 127.946 59.2264 129.771 59.3093 131.568C59.3216 131.837 59.3696 132.157 59.6145 132.27C59.9438 132.421 60.2684 132.063 60.4552 131.753C61.4432 130.115 62.4309 128.476 63.4189 126.837C63.947 125.961 64.4761 125.083 64.9072 124.155C65.1141 123.71 65.3009 123.241 65.3189 122.751C65.3365 122.26 65.1581 121.738 64.7574 121.453Z" fill="#EDA263"/>
<path d="M64.0128 121.601C63.6437 121.601 63.1901 121.771 62.7682 122.066C61.4904 122.962 60.5246 124.465 60.0487 126.299C59.5954 128.044 59.6056 129.855 59.6835 131.551C59.6994 131.888 59.7706 131.93 59.7713 131.93L59.7748 131.932C59.8207 131.932 59.9782 131.82 60.1344 131.561L63.0981 126.644C63.6124 125.792 64.1439 124.91 64.5676 123.998C64.7541 123.597 64.9289 123.166 64.9444 122.737C64.9564 122.411 64.8563 121.982 64.5401 121.757C64.3924 121.652 64.2197 121.601 64.0128 121.601ZM59.7748 132.68C59.7748 132.68 59.7748 132.68 59.7745 132.68C59.6659 132.68 59.5594 132.656 59.4583 132.61C58.9722 132.387 58.9444 131.784 58.9352 131.585C58.8583 129.914 58.8439 127.957 59.3233 126.111C59.8436 124.106 60.9144 122.452 62.3374 121.454C62.6578 121.23 63.3011 120.853 64.0128 120.853C64.3762 120.853 64.7002 120.952 64.9751 121.148C65.4425 121.481 65.7174 122.1 65.6935 122.764C65.673 123.326 65.4672 123.841 65.2472 124.313C64.8066 125.261 64.2645 126.16 63.7403 127.03L60.7766 131.947C60.6113 132.22 60.262 132.68 59.7748 132.68Z" fill="#292625"/>
<path d="M63.6267 124.562C63.7078 124.148 63.7712 123.72 63.6828 123.308C63.5245 124.072 63.012 124.756 62.3218 125.124C62.4663 125.69 62.4815 126.304 62.2605 126.845C62.0398 127.386 61.5559 127.837 60.9771 127.923C61.0585 128.925 60.8565 129.948 60.4004 130.843C61.2411 129.365 62.0821 127.886 62.9228 126.408C63.0779 126.135 63.2337 125.861 63.3504 125.57C63.4801 125.246 63.5598 124.904 63.6267 124.562Z" fill="#DC7029"/>
<path d="M67.1247 121.453C67.7701 120.993 68.681 121.305 69.3295 121.76C70.8051 122.794 71.7441 124.463 72.1963 126.204C72.6486 127.946 72.6556 129.771 72.5728 131.568C72.5604 131.837 72.5125 132.157 72.2675 132.27C71.9386 132.421 71.6137 132.063 71.4268 131.753C70.4388 130.115 69.4511 128.476 68.4631 126.837C67.9351 125.961 67.406 125.083 66.9749 124.155C66.768 123.71 66.5812 123.241 66.5632 122.751C66.5456 122.26 66.7243 121.738 67.1247 121.453Z" fill="#EDA263"/>
<path d="M67.87 121.601C67.6627 121.601 67.4904 121.652 67.3427 121.757C67.0261 121.982 66.926 122.411 66.938 122.737C66.9535 123.166 67.1283 123.597 67.3152 123.998C67.7374 124.907 68.2697 125.79 68.7843 126.644L71.748 131.561C71.9035 131.819 72.0611 131.931 72.1072 131.932C72.1136 131.929 72.183 131.884 72.1985 131.551C72.2768 129.854 72.2867 128.043 71.8337 126.299C71.3575 124.464 70.3917 122.962 69.1143 122.066C68.6927 121.771 68.239 121.601 67.87 121.601ZM72.1076 131.932V132.306V131.932ZM72.1076 132.68C71.6211 132.68 71.2711 132.22 71.1062 131.947L68.1421 127.03C67.6172 126.159 67.0744 125.258 66.6352 124.313C66.4156 123.84 66.2097 123.325 66.1889 122.764C66.165 122.1 66.4399 121.481 66.9073 121.148C67.1826 120.952 67.5066 120.853 67.87 120.853C68.5813 120.853 69.225 121.23 69.5454 121.454C70.968 122.452 72.0382 124.105 72.5595 126.111C73.0371 127.952 73.0283 129.83 72.9469 131.585C72.937 131.804 72.9102 132.387 72.4245 132.61C72.3233 132.656 72.2169 132.68 72.1076 132.68Z" fill="#292625"/>
<path d="M69.699 124.836C69.6348 125.488 69.7459 126.156 70.0173 126.751C70.1132 126.963 70.2323 127.169 70.4075 127.321C70.5827 127.473 70.822 127.565 71.0497 127.519C70.9422 128.122 71.128 128.738 71.356 129.307C71.5037 129.676 71.6704 130.039 71.8548 130.392C71.7349 130.338 71.6486 130.232 71.5672 130.129C71.1456 129.595 70.7406 129.048 70.3359 128.501C70.153 128.254 69.9697 128.007 69.7867 127.759C69.6739 127.607 69.5608 127.454 69.4522 127.298C68.6947 126.21 68.1611 124.968 67.8928 123.671C67.8132 123.285 67.7635 122.857 67.969 122.52C68.3877 123.405 68.853 124.341 69.699 124.836Z" fill="#DC7029"/>
<path d="M68.2127 125.376C68.2127 128.048 67.1687 133.01 65.881 133.01C64.5934 133.01 63.5493 128.048 63.5493 125.376C63.5493 122.704 64.5934 120.538 65.881 120.538C67.1687 120.538 68.2127 122.704 68.2127 125.376Z" fill="#EDA263"/>
<path d="M65.8809 120.911C64.9552 120.911 63.9242 122.744 63.9242 125.375C63.9242 128.36 65.0761 132.635 65.8809 132.635C66.686 132.635 67.8379 128.36 67.8379 125.375C67.8379 122.744 66.8065 120.911 65.8809 120.911ZM65.8809 133.383C64.0955 133.383 63.1748 127.77 63.1748 125.375C63.1748 122.453 64.3634 120.163 65.8809 120.163C67.3987 120.163 68.5873 122.453 68.5873 125.375C68.5873 127.77 67.6666 133.383 65.8809 133.383Z" fill="#292625"/>
<path d="M61.6531 123.836C61.6661 124.008 61.7793 124.156 61.8977 124.282C62.0003 124.391 62.1258 124.499 62.2752 124.501C62.5107 124.504 62.6598 124.258 62.7592 124.044C62.8871 123.769 63.0172 123.488 63.0507 123.186C63.0846 122.884 63.0056 122.552 62.7751 122.354C62.4635 122.641 62.1723 122.949 61.9044 123.276C61.7715 123.439 61.6376 123.627 61.6531 123.836Z" fill="#F3ED99"/>
<path d="M61.2414 124.661C61.1409 124.68 61.0764 124.777 61.0271 124.866C60.5808 125.673 60.3796 126.613 60.4557 127.531C60.4638 127.63 60.4902 127.749 60.5847 127.78C60.6996 127.818 60.799 127.695 60.8579 127.589C61.0901 127.171 61.3228 126.752 61.5554 126.334C61.6837 126.103 61.8163 125.857 61.8047 125.592C61.7934 125.329 61.5015 124.611 61.2414 124.661Z" fill="#F3ED99"/>
<path d="M60.1613 130.484C60.3481 130.053 60.4598 129.589 60.4901 129.12C60.5004 128.956 60.5 128.787 60.4362 128.636C60.372 128.485 60.23 128.356 60.0661 128.353C59.9275 128.787 59.849 129.239 59.8334 129.694C59.8236 129.982 59.8469 130.292 60.0284 130.517C60.0432 130.535 60.0619 130.554 60.0855 130.556C60.1225 130.558 60.1465 130.519 60.1613 130.484Z" fill="#F3ED99"/>
<path d="M64.5099 125.39C64.5701 125.593 64.685 125.808 64.8895 125.865C65.0893 125.92 65.3044 125.795 65.4168 125.621C65.5292 125.447 65.5614 125.235 65.5874 125.029C65.7256 123.929 65.7549 122.815 65.6745 121.709C65.666 121.591 65.6167 121.436 65.4982 121.444C65.4376 121.448 65.3914 121.498 65.3534 121.546C64.8052 122.227 64.567 123.106 64.4577 123.973C64.3981 124.446 64.3742 124.934 64.5099 125.39Z" fill="#F3ED99"/>
<path d="M65.0258 126.299C64.9415 126.317 64.8608 126.363 64.815 126.436C64.7875 126.479 64.7738 126.529 64.7614 126.579C64.6053 127.222 64.7336 127.899 64.9183 128.534C64.9641 128.692 65.017 128.856 65.1298 128.975C65.1939 129.044 65.2856 129.097 65.3772 129.08C65.5154 129.054 65.576 128.894 65.6067 128.757C65.7163 128.272 65.7618 127.774 65.748 127.277C65.7417 127.045 65.7199 126.804 65.6039 126.602C65.4879 126.401 65.2535 126.25 65.0258 126.299Z" fill="#F3ED99"/>
<path d="M69.9304 123.201C69.6237 122.857 69.2934 122.518 68.8764 122.32C68.8193 122.293 68.7538 122.268 68.6942 122.29C68.6487 122.549 68.7266 122.818 68.8577 123.046C68.9889 123.274 69.1708 123.468 69.3509 123.66C69.501 123.821 69.6515 123.981 69.8021 124.141C69.9342 124.282 70.1013 124.436 70.2924 124.404C70.4119 124.212 70.3999 123.962 70.3149 123.753C70.2296 123.544 70.0805 123.369 69.9304 123.201Z" fill="#F3ED99"/>
<path d="M71.1475 126.036C71.2357 125.642 71.0358 125.244 70.8056 124.913C70.7404 124.819 70.629 124.716 70.5279 124.77C70.3509 125.158 70.3579 125.625 70.5462 126.008C70.5899 126.096 70.6449 126.182 70.726 126.238C70.807 126.294 70.9195 126.314 71.0055 126.265C71.0862 126.22 71.1271 126.126 71.1475 126.036Z" fill="#F3ED99"/>
<path d="M65.8027 132.085C66.2229 132.078 66.4721 131.623 66.6142 131.228C67.3992 129.048 67.6547 126.68 67.3533 124.383C67.206 123.258 66.868 122.058 65.955 121.383C66.2145 123.799 66.3128 126.232 66.2497 128.66C66.2384 129.105 66.2215 129.55 66.1972 129.995C66.1588 130.707 66.0981 131.435 65.8027 132.085Z" fill="#DC7029"/>
<path d="M19.686 74.1934C19.686 78.2626 16.3804 81.5615 12.3031 81.5615C8.22555 81.5615 4.91992 78.2626 4.91992 74.1934C4.91992 70.1244 8.22555 66.8255 12.3031 66.8255C16.3804 66.8255 19.686 70.1244 19.686 74.1934Z" fill="white"/>
<path d="M12.3026 67.2005C8.43828 67.2005 5.29445 70.338 5.29445 74.1944C5.29445 78.0512 8.43828 81.1887 12.3026 81.1887C16.1669 81.1887 19.3108 78.0512 19.3108 74.1944C19.3108 70.338 16.1669 67.2005 12.3026 67.2005ZM12.3026 81.9365C8.02517 81.9365 4.54541 78.4635 4.54541 74.1944C4.54541 69.9257 8.02517 66.4527 12.3026 66.4527C16.5804 66.4527 20.0602 69.9257 20.0602 74.1944C20.0602 78.4635 16.5804 81.9365 12.3026 81.9365Z" fill="#292625"/>
<path d="M17.9417 75.1281C17.4055 76.8243 16.304 78.3376 14.8535 79.3711C15.7936 79.2163 16.6322 78.618 17.1651 77.83C17.6981 77.0417 17.9395 76.0789 17.9417 75.1281Z" fill="#D3CFD2"/>
<path d="M13.793 69.5719C15.7331 70.7493 16.9269 73.0527 16.7687 75.3135C17.173 74.1305 17.2114 72.7909 16.6918 71.6537C16.1723 70.5164 15.0439 69.6299 13.793 69.5719Z" fill="#D3CFD2"/>
<path d="M14.2976 77.8525C15.041 77.4244 15.4432 76.5439 15.4658 75.6881C15.4887 74.8319 15.1817 73.9982 14.7799 73.2415C14.617 72.9348 14.3949 72.6059 14.0513 72.5503C14.6501 74.262 15.1538 76.2534 14.2976 77.8525Z" fill="#D3CFD2"/>
<path d="M9.37636 77.5364C9.82825 77.611 10.291 77.566 10.7436 77.497C11.5671 77.3722 12.3781 77.1699 13.1638 76.8945C12.8276 77.4854 12.3408 77.9906 11.762 78.349C11.5286 78.4936 11.277 78.616 11.007 78.6674C10.6372 78.7377 10.2537 78.6713 9.8945 78.5587C8.87017 78.2379 7.97238 77.5298 7.42285 76.6092C8.02913 77.0088 8.65939 77.4175 9.37636 77.5364Z" fill="#D3CFD2"/>
<path d="M10.2122 79.638C10.9887 79.868 11.8512 79.7934 12.5766 79.4339C12.6507 79.3973 12.7585 79.3667 12.7998 79.4382C12.8195 79.4726 12.8111 79.5159 12.7998 79.5542C12.6366 80.1104 12.019 80.4534 11.4395 80.4196C10.86 80.3858 10.3348 80.0397 9.95801 79.5989C10.0433 79.5855 10.1293 79.6137 10.2122 79.638Z" fill="#D3CFD2"/>
<path d="M9.82768 76.2754C9.5887 76.4619 9.24854 76.4745 8.96056 76.3789C8.67293 76.2835 8.42689 76.0946 8.19249 75.9026C7.67292 75.4766 7.16604 74.9964 6.91014 74.3763C6.48363 73.3424 6.84704 72.1425 7.42935 71.1878C7.33418 72.1028 7.24395 73.0606 7.58622 73.9147C7.93659 74.7882 9.50551 75.3911 9.82768 76.2754Z" fill="#D3CFD2"/>
<path d="M12.2239 70.9038C11.705 70.3635 10.8802 70.1601 10.1519 70.3388C9.4237 70.5175 8.80509 71.0512 8.46423 71.7178C8.21009 71.1528 8.42932 70.4472 8.89143 70.0335C9.35354 69.6198 10.0085 69.4703 10.6274 69.5153C11.0201 69.5435 11.4177 69.6494 11.7307 69.8875C12.0434 70.126 12.2591 70.5126 12.2239 70.9038Z" fill="#D3CFD2"/>
<path d="M41.0961 92.5475C40.9706 92.6094 40.4556 91.7807 40.2339 90.6132C40.0475 89.4397 40.2519 88.486 40.3908 88.5022C40.5646 88.5163 40.6213 89.4245 40.7947 90.5157C41.0006 91.6016 41.2547 92.4758 41.0961 92.5475Z" fill="#292625"/>
<path d="M43.8939 95.1882C43.7377 95.2072 43.4914 94.2384 43.3437 93.0245C43.1956 91.8105 43.2023 90.8111 43.3581 90.7921C43.5143 90.7732 43.7607 91.7419 43.9084 92.9559C44.0564 94.1698 44.0497 95.1696 43.8939 95.1882Z" fill="#292625"/>
<path d="M40.7194 101.707C40.5978 101.784 39.9446 100.949 39.4645 99.7459C39.0098 98.533 38.9316 97.477 39.0733 97.452C39.2407 97.4197 39.5611 98.3825 39.9954 99.5415C40.454 100.691 40.8653 101.619 40.7194 101.707Z" fill="#292625"/>
<path d="M43.7288 102.23C43.6717 102.279 43.5106 102.201 43.3118 102.006C43.1187 101.807 42.9047 101.48 42.768 101.078C42.6404 100.673 42.6192 100.283 42.6583 100.009C42.7027 99.7338 42.7866 99.5759 42.8621 99.5826C42.9431 99.5885 43.0027 99.7507 43.0602 99.991C43.1236 100.233 43.2005 100.554 43.309 100.902C43.4271 101.246 43.5551 101.551 43.6471 101.783C43.7429 102.011 43.7905 102.177 43.7288 102.23Z" fill="#292625"/>
<path d="M66.8181 103.098C66.65 103.048 66.8512 101.928 66.9753 100.545C67.0641 99.1585 67.0366 98.0209 67.2104 97.997C67.3472 97.9738 67.6359 99.1314 67.5428 100.588C67.412 102.042 66.9496 103.142 66.8181 103.098Z" fill="#292625"/>
<path d="M70.8723 100.987C70.7955 100.958 70.8177 100.7 70.8734 100.309C70.922 99.9144 70.9816 99.3804 70.9925 98.7873C70.9897 98.1939 70.9372 97.6592 70.8938 97.2641C70.8431 96.8726 70.8244 96.6141 70.9016 96.5859C70.9717 96.5595 71.1268 96.7748 71.2844 97.1681C71.4342 97.5624 71.5593 98.1422 71.5618 98.7908C71.5509 99.4398 71.418 100.017 71.2629 100.41C71.1 100.801 70.9417 101.014 70.8723 100.987Z" fill="#292625"/>
<path d="M34.711 106.807C34.5615 106.856 34.1068 105.877 33.6951 104.622C33.2838 103.366 33.0712 102.309 33.2207 102.26C33.3698 102.211 33.8245 103.19 34.2362 104.445C34.6475 105.701 34.8601 106.758 34.711 106.807Z" fill="#292625"/>
<path d="M40.3778 111.551C40.3151 111.591 40.1096 111.4 39.8597 111.027C39.6175 110.65 39.3556 110.08 39.1977 109.411C39.0528 108.738 39.044 108.111 39.1011 107.668C39.1663 107.223 39.2696 106.962 39.3436 106.971C39.4254 106.981 39.4652 107.253 39.5037 107.673C39.5502 108.094 39.62 108.665 39.7529 109.286C39.8995 109.903 40.0817 110.449 40.221 110.849C40.3665 111.245 40.4476 111.508 40.3778 111.551Z" fill="#292625"/>
<path d="M45.6818 111.894C45.526 111.915 45.3208 111.341 45.2232 110.613C45.1256 109.884 45.1728 109.277 45.3286 109.256C45.4844 109.235 45.6899 109.809 45.7872 110.538C45.8848 111.266 45.8376 111.873 45.6818 111.894Z" fill="#292625"/>
<path d="M69.9984 110.312C69.8461 110.274 69.948 109.335 70.2265 108.215C70.5049 107.095 70.8546 106.217 71.0069 106.255C71.1595 106.292 71.0573 107.232 70.7788 108.352C70.5003 109.472 70.151 110.35 69.9984 110.312Z" fill="#292625"/>
<path d="M74.0533 107.674C73.8982 107.602 74.3533 106.328 74.8485 104.746C75.3163 103.156 75.6462 101.845 75.8158 101.87C75.9575 101.889 75.8743 103.276 75.3931 104.911C74.8838 106.538 74.1816 107.737 74.0533 107.674Z" fill="#292625"/>
<path d="M78.2834 103.452C78.129 103.424 78.0825 102.968 78.1798 102.433C78.277 101.899 78.4815 101.489 78.6359 101.517C78.7906 101.545 78.8371 102.001 78.7398 102.535C78.6426 103.069 78.4381 103.48 78.2834 103.452Z" fill="#292625"/>
<path d="M76.3328 96.2387C76.1621 96.212 76.1731 95.31 76.1071 94.2167C76.0116 93.1256 75.8678 92.2352 76.0328 92.1835C76.1664 92.1374 76.5724 93.0084 76.675 94.1749C76.7452 95.3438 76.4716 96.2648 76.3328 96.2387Z" fill="#292625"/>
<path d="M27.5253 91.6675C27.3839 91.6932 27.0748 90.5981 27.061 89.2051C27.0748 87.8121 27.3839 86.7167 27.5253 86.7428C27.6937 86.7705 27.6433 87.866 27.6303 89.2051C27.6433 90.5443 27.6937 91.6397 27.5253 91.6675Z" fill="#292625"/>
<path d="M30.6975 94.3067C30.5579 94.3426 30.1797 93.3084 30.0669 91.9657C29.9802 90.6212 30.2016 89.5427 30.345 89.5578C30.5142 89.5726 30.5512 90.6321 30.6348 91.9238C30.743 93.2138 30.8628 94.267 30.6975 94.3067Z" fill="#292625"/>
<path d="M43.2126 119.8C43.2034 119.869 42.828 119.901 42.2528 119.728C41.9655 119.644 41.6387 119.493 41.3 119.285C40.9672 119.069 40.6257 118.79 40.319 118.447C40.0173 118.101 39.7829 117.728 39.6102 117.37C39.4456 117.009 39.3373 116.667 39.2901 116.371C39.1896 115.78 39.2696 115.413 39.3384 115.412C39.4258 115.408 39.4917 115.756 39.6789 116.268C39.7695 116.525 39.9048 116.819 40.0765 117.131C40.2563 117.439 40.4769 117.762 40.7462 118.072C41.0204 118.378 41.3137 118.636 41.5971 118.854C41.8854 119.062 42.1604 119.234 42.4047 119.356C42.89 119.606 43.2274 119.715 43.2126 119.8Z" fill="#292625"/>
<path d="M63.1371 120.493C63.1046 120.559 62.8685 120.52 62.5266 120.348C62.1914 120.169 61.7715 119.828 61.4307 119.35C61.1025 118.863 60.9319 118.351 60.8822 117.975C60.8417 117.595 60.8882 117.36 60.9615 117.353C61.044 117.344 61.1403 117.554 61.2707 117.87C61.411 118.185 61.614 118.602 61.8988 119.027C62.1973 119.443 62.516 119.78 62.7624 120.023C63.0123 120.255 63.1751 120.419 63.1371 120.493Z" fill="#292625"/>
<path d="M69.6882 117.556C69.8101 117.655 69.2719 118.518 68.4858 119.483C67.6998 120.449 66.9634 121.151 66.8414 121.052C66.7195 120.953 67.2581 120.09 68.0441 119.125C68.8302 118.16 69.5662 117.457 69.6882 117.556Z" fill="#292625"/>
<path d="M48.6697 117.167C48.7888 117.269 48.4116 117.902 47.8269 118.582C47.2421 119.261 46.6714 119.729 46.5523 119.627C46.4331 119.525 46.8103 118.891 47.3951 118.211C47.9798 117.532 48.5505 117.064 48.6697 117.167Z" fill="#292625"/>
<path d="M68.7757 83.7449C68.7824 83.81 68.2072 83.9486 67.2593 83.892C66.7859 83.8674 66.2262 83.772 65.6202 83.6056C65.0178 83.4273 64.3714 83.1712 63.7366 82.8177C63.106 82.4564 62.5533 82.0353 62.0901 81.6118C61.635 81.1788 61.2649 80.7489 61.0002 80.3567C60.4637 79.5747 60.2864 79.0115 60.346 78.9834C60.426 78.9412 60.7274 79.428 61.3181 80.1105C61.6103 80.4541 61.991 80.833 62.439 81.221C62.8952 81.5998 63.4236 81.9829 64.0168 82.3231C64.6146 82.6559 65.2156 82.9105 65.776 83.1058C66.34 83.2894 66.8614 83.4202 67.3073 83.4931C68.1976 83.6475 68.7708 83.6545 68.7757 83.7449Z" fill="#292625"/>
<path d="M71.5859 82.5121C71.5908 82.5859 71.2242 82.6799 70.6172 82.7263C70.0113 82.7639 69.165 82.7249 68.2524 82.5384C67.343 82.3372 66.5541 82.0287 66.0162 81.7477C65.4808 81.4582 65.1847 81.2232 65.2196 81.1578C65.2576 81.0846 65.6161 81.1908 66.1724 81.3776C66.7332 81.5563 67.5034 81.7906 68.3708 81.983C69.2418 82.1603 70.0409 82.2599 70.626 82.3249C71.2101 82.3809 71.5809 82.4294 71.5859 82.5121Z" fill="#292625"/>
<path d="M77.9313 80.4108C77.9637 80.4783 77.7346 80.6634 77.3137 80.8769C76.8915 81.0827 76.269 81.2934 75.5555 81.4014C74.8403 81.4971 74.1836 81.4689 73.7201 81.3891C73.2566 81.3018 72.9848 81.1882 72.9965 81.1143C73.0091 81.0334 73.2975 81.0053 73.7451 80.9881C74.1946 80.9638 74.8054 80.9283 75.4752 80.8393C76.1428 80.7376 76.7392 80.6011 77.1773 80.4991C77.6119 80.3904 77.8967 80.3366 77.9313 80.4108Z" fill="#292625"/>
<path d="M41.6123 82.4774C41.589 82.3961 41.9838 82.2097 42.6042 81.917C43.2211 81.6109 44.0491 81.1589 44.8989 80.5584C45.7347 79.9386 46.422 79.2931 46.9053 78.8031C47.3765 78.3057 47.6765 77.9888 47.747 78.0363C47.8073 78.0757 47.6226 78.4774 47.213 79.062C46.7932 79.6372 46.1132 80.3664 45.2331 81.0179C44.3392 81.651 43.4333 82.0697 42.7551 82.2892C42.0713 82.4967 41.6313 82.547 41.6123 82.4774Z" fill="#292625"/>
<path d="M35.2977 82.6347C35.2731 82.4799 36.4324 82.1683 37.8868 81.9389C39.3415 81.7092 40.5403 81.6487 40.565 81.8038C40.5893 81.9586 39.4303 82.2703 37.976 82.4996C36.5212 82.7293 35.3224 82.7898 35.2977 82.6347Z" fill="#292625"/>
<path d="M27.5239 81.5976C27.5257 81.4407 28.9476 81.3317 30.6995 81.3538C32.451 81.3764 33.8694 81.5213 33.8677 81.6782C33.8656 81.8351 32.444 81.9441 30.6921 81.9219C28.9402 81.8998 27.5218 81.7545 27.5239 81.5976Z" fill="#292625"/>
<path d="M130.272 64.2467C126.649 73.1292 119.437 78.5939 114.164 76.4523C108.894 74.3108 107.555 65.3741 111.178 56.4915C114.802 47.609 122.014 42.1446 127.283 44.2862C132.557 46.4278 133.893 55.3645 130.272 64.2467Z" fill="#F2591D"/>
<path d="M124.855 44.1949C119.994 44.1949 114.513 49.3092 111.527 56.632C107.988 65.3091 109.232 74.045 114.305 76.1053C115.02 76.3955 115.789 76.5425 116.592 76.5425C121.457 76.5425 126.938 71.4282 129.923 64.1054C131.651 59.8704 132.296 55.4979 131.742 51.7934C131.199 48.159 129.564 45.616 127.142 44.6318C126.43 44.3419 125.658 44.1949 124.855 44.1949ZM116.592 77.29C115.694 77.29 114.826 77.1247 114.023 76.7979C108.57 74.5821 107.135 65.4094 110.833 56.3499C113.931 48.7528 119.698 43.447 124.855 43.447C125.757 43.447 126.621 43.6127 127.424 43.9391C130.103 45.0268 131.901 47.7769 132.483 51.683C133.057 55.5183 132.394 60.0301 130.618 64.3871C127.519 71.9843 121.753 77.29 116.592 77.29Z" fill="#292625"/>
</g>
<defs>
<clipPath id="clip0_2064_3397">
<rect width="107.13" height="140" fill="white" transform="translate(0.93457)"/>
</clipPath>
</defs>
</svg>
